<?xml version="1.0" encoding="utf-8"?>
<!-- Generator: Adobe Illustrator 27.1.1, SVG Export Plug-In . SVG Version: 6.00 Build 0)  -->
<svg version="1.0" xmlns="http://www.w3.org/2000/svg" xmlns:xlink="http://www.w3.org/1999/xlink" x="0px" y="0px"
	 viewBox="0 0 296.5 296.5" enable-background="new 0 0 296.5 296.5" xml:space="preserve">
<g id="Layer_1">
</g>
<g id="Layer_2">
</g>
<g id="Layer_3">
	<g>
		<circle fill="#FFFFFF" cx="148.2" cy="148.2" r="148.2"/>
		<g>
			<path fill="#01686D" d="M80.7,57c-7.9,3.9-14.9,9.2-20.9,15.8l15.3,16.4c4.2-4.9,9.2-9,14.8-11.8c5.8-3,12.6-3.5,18.3-3.7V51.4
				C97.9,51.6,89.3,52.7,80.7,57z"/>
			<path fill="#01686D" d="M136,82.3v9.9c-4.4-3.9-8.2-6.9-12.8-8.8c-4.5-2-9.5-2.9-14.7-2.9c-11.3,0-20.9,4.2-28.7,12.8
				C72,101.8,68,112.7,68,126c0,12.9,4.1,23.6,12.2,32.3c8.1,8.6,17.8,13,28.9,13c5,0,9.7-0.9,14-2.6c4.3-1.8,7.2-4.7,12.9-8.7v11.7
				h22.1V82.3H136z M129.9,144.3c-4.5,4.7-10.1,7.1-16.9,7.1c-6.6,0-12.2-2.4-16.7-7.2c-4.5-4.8-6.8-11-6.8-18.4
				c0-7.4,2.2-13.5,6.6-18.2c4.4-4.7,10-7.1,16.7-7.1c6.9,0,12.5,2.3,17,7c4.5,4.6,6.7,10.7,6.7,18.3
				C136.7,133.4,134.4,139.6,129.9,144.3z"/>
			<path fill="#01686D" d="M236.6,113.3l-0.3,56.9c-5.2,40.5-41.2,74.8-84.1,74.8c-35.8,0-66.4-22.7-78.6-54.2
				c-3.6-9.4-5.6-19.7-5.6-30.4c0-3.3-0.1-6.5,0-10.3c0.7,2.9,4.7,9.5,11,15.4c3.8,3.6,8.9,6.1,14.2,8c2.6,10.1,6.7,21.4,13.6,28.8
				c11.3,12.2,27.5,20.4,45.4,20.4c30.6,0,57.7-25.2,62.7-52.6l0.1-37.7c0-10.3-0.5-17.2-1.4-20.5c-0.9-3.4-2.6-6-4.9-7.7
				c-2.3-1.8-5.1-2.7-8.5-2.7c-4.4,0-8.2,1.5-11.3,4.4c-3.2,2.9-4.5,7-5.7,12.2c-0.6,2.7-0.1,8.5-0.1,17.5v35.9h-20.8V82.3h20.8
				v10.5c2.9-4.2,8.5-7,12.5-8.6c4-1.6,7.6-2.4,11.8-2.4c8.6,0,15.8,3,21.8,9C234.2,95.8,236.6,103.4,236.6,113.3z"/>
		</g>
	</g>
</g>
</svg>
