<?xml version="1.0" encoding="UTF-8"?>
<svg id="Capa_2" data-name="Capa 2" xmlns="http://www.w3.org/2000/svg" viewBox="0 0 439.7 70.04">
  <defs>
    <style>
      .cls-1 {
        fill: #01686d;
      }
    </style>
  </defs>
  <g id="Layer_2" data-name="Layer 2">
    <g>
      <polygon class="cls-1" points="108.98 .03 121.22 .03 106.01 12.16 97.63 12.22 108.98 .03"/>
      <polygon class="cls-1" points="334.47 .03 346.73 .03 331.53 12.16 323.13 12.22 334.47 .03"/>
      <path class="cls-1" d="m38.46,17.98h12.31v51.63h-12.31v-6.44c-2.41,2.28-4.81,3.93-7.23,4.93-2.41,1.01-5.03,1.51-7.86,1.51-6.32,0-11.81-2.47-16.43-7.37C2.31,57.31,0,51.2,0,43.89s2.23-13.79,6.71-18.64c4.48-4.86,9.9-7.27,16.3-7.27,2.94,0,5.7.56,8.28,1.67,2.58,1.11,4.97,2.79,7.16,5.01v-6.68Zm-12.93,11.37c-3.81,0-6.96,1.35-9.48,4.04-2.52,2.7-3.78,6.15-3.78,10.36s1.28,7.73,3.84,10.47c2.55,2.75,5.71,4.11,9.45,4.11s7.06-1.34,9.63-4.04c2.54-2.68,3.82-6.21,3.82-10.57s-1.28-7.74-3.82-10.37c-2.56-2.66-5.77-3.99-9.66-3.99Z"/>
      <path class="cls-1" d="m90.08,26.1l-7.62,7.63c-3.09-3.07-5.9-4.59-8.42-4.59-1.39,0-2.47.29-3.24.87-.79.59-1.18,1.33-1.18,2.2,0,.66.25,1.27.75,1.84.49.55,1.72,1.31,3.68,2.27l4.5,2.26c4.75,2.34,8.01,4.74,9.78,7.17,1.77,2.45,2.65,5.31,2.65,8.57,0,4.36-1.59,8.01-4.8,10.93-3.2,2.93-7.5,4.38-12.87,4.38-7.15,0-12.86-2.78-17.12-8.4l7.56-8.26c1.44,1.68,3.12,3.05,5.09,4.08,1.93,1.04,3.65,1.56,5.15,1.56,1.62,0,2.93-.39,3.91-1.17,1-.79,1.49-1.69,1.49-2.72,0-1.89-1.78-3.74-5.35-5.54l-4.14-2.08c-7.95-3.99-11.91-9-11.91-15.02,0-3.89,1.5-7.2,4.48-9.96,2.98-2.75,6.81-4.13,11.47-4.13,3.19,0,6.18.7,8.99,2.09,2.81,1.41,5.19,3.41,7.14,6.03Z"/>
      <rect class="cls-1" x="97.11" y="17.56" width="12.31" height="52.05"/>
      <path class="cls-1" d="m171.64.74h12.31v68.74h-12.31v-6.32c-2.41,2.28-4.81,3.93-7.23,4.93-2.41,1.01-5.04,1.51-7.86,1.51-6.33,0-11.81-2.47-16.44-7.37-4.61-4.93-6.93-11.04-6.93-18.35s2.22-13.79,6.71-18.64c4.48-4.86,9.9-7.27,16.29-7.27,2.94,0,5.7.56,8.29,1.67,2.58,1.11,4.96,2.79,7.16,5.01V.74Zm-12.93,28.61c-3.82,0-6.98,1.35-9.49,4.04-2.52,2.7-3.77,6.15-3.77,10.36s1.28,7.73,3.84,10.47c2.56,2.75,5.71,4.11,9.45,4.11s7.08-1.34,9.61-4.03c2.55-2.69,3.83-6.21,3.83-10.58s-1.27-7.74-3.83-10.37c-2.53-2.65-5.75-3.99-9.65-3.99Z"/>
      <path class="cls-1" d="m241.23,47.36h-39.52c.56,3.49,2.1,6.27,4.58,8.33,2.47,2.06,5.63,3.08,9.48,3.08,4.61,0,8.55-1.61,11.86-4.82l10.37,4.88c-2.58,3.66-5.68,6.39-9.28,8.14-3.61,1.76-7.89,2.64-12.85,2.64-7.7,0-13.97-2.44-18.8-7.29-4.83-4.86-7.25-10.95-7.25-18.26s2.42-13.71,7.22-18.66c4.83-4.95,10.88-7.42,18.15-7.42,7.72,0,14,2.47,18.84,7.42,4.84,4.95,7.26,11.49,7.26,19.62l-.06,2.34Zm-12.3-9.71c-.81-2.74-2.4-4.97-4.8-6.69-2.39-1.71-5.17-2.56-8.33-2.56-3.44,0-6.45.97-9.03,2.88-1.63,1.22-3.13,3.34-4.52,6.37h26.68Z"/>
      <path class="cls-1" d="m265.65,17.56h4.37c.02-6.44.12-7.3.31-8.47.33-2.71,1.46-4.85,3.39-6.42,1.94-1.58,4.69-2.38,8.24-2.38,2.55,0,5.43.59,8.65,1.76v9.39c-1.78-.51-3.22-.76-4.38-.76-1.43,0-2.49.3-3.15.9-.49.45-.73,1.38-.73,2.79l-.04,3.19h7.79v10.43h-7.79v41.62h-12.3V27.99h-4.37v-10.43Z"/>
      <path class="cls-1" d="m334.41,17.98h12.32v52.06h-12.32v-6.45c-2.4,2.28-4.81,3.93-7.22,4.93-2.41,1-5.04,1.52-7.86,1.52-6.33,0-11.81-2.47-16.42-7.38-4.63-4.92-6.93-11.03-6.93-18.34s2.23-13.8,6.71-18.65c4.48-4.83,9.9-7.26,16.3-7.26,2.95,0,5.7.55,8.29,1.68,2.57,1.1,4.95,2.78,7.15,5.01v-7.1Zm-12.93,11.79c-3.8,0-6.96,1.35-9.47,4.05-2.52,2.68-3.77,6.14-3.77,10.34s1.28,7.74,3.84,10.46c2.55,2.75,5.71,4.12,9.46,4.12s7.08-1.35,9.62-4.04c2.54-2.69,3.82-6.21,3.82-10.59s-1.29-7.73-3.82-10.37c-2.54-2.64-5.76-3.97-9.66-3.97Z"/>
      <path class="cls-1" d="m402.98,29.18l-10.25,5.63c-1.91-2.01-3.81-3.41-5.7-4.19-1.9-.78-4.08-1.17-6.61-1.17-4.61,0-8.34,1.38-11.17,4.12-2.85,2.75-4.27,6.28-4.27,10.56s1.38,7.6,4.1,10.23c2.75,2.64,6.34,3.96,10.81,3.96,5.49,0,9.78-1.87,12.84-5.64l9.72,6.66c-5.27,6.85-12.69,10.27-22.28,10.27-8.61,0-15.38-2.55-20.25-7.67-4.89-5.11-7.33-11.1-7.33-17.96,0-4.76,1.2-9.14,3.57-13.13,2.37-4.01,5.69-7.15,9.93-9.44,4.27-2.29,9.02-3.43,14.27-3.43,4.87,0,9.25.97,13.12,2.92,3.89,1.94,7.05,4.69,9.52,8.28Z"/>
      <path class="cls-1" d="m415.34,0c1.69,0,3.14.62,4.35,1.85,1.21,1.22,1.83,2.71,1.83,4.45s-.61,3.2-1.81,4.41c-1.19,1.22-2.64,1.82-4.3,1.82s-3.18-.62-4.39-1.85c-1.21-1.25-1.81-2.75-1.81-4.52s.6-3.15,1.8-4.35c1.2-1.21,2.64-1.82,4.33-1.82Z"/>
      <rect class="cls-1" x="409.2" y="17.56" width="12.31" height="52.05"/>
      <path class="cls-1" d="m427.4,0h12.3v69.61h-12.3V0Z"/>
    </g>
  </g>
</svg>