<?xml version="1.0" encoding="UTF-8"?>
<svg id="Capa_2" data-name="Capa 2" xmlns="http://www.w3.org/2000/svg" viewBox="0 0 158.61 158.58">
  <defs>
    <style>
      .cls-1 {
        fill: #fff;
        fill-rule: evenodd;
      }
    </style>
  </defs>
  <g id="Layer_3" data-name="Layer 3">
    <g>
      <path class="cls-1" d="m129.78,0c3.01.82,6.06,1.54,9.02,2.51,1.59.53,3.07,1.44,4.53,2.3,1.36.8,1.69,2.12.98,3.29-.7,1.17-2.02,1.51-3.37.71-3.6-2.13-7.42-3.49-11.6-3.95-13.09-1.45-25.56,6.82-29.28,19.5-4.78,16.27,6.3,33.06,23.12,35.09,15.06,1.8,28.89-9.18,30.52-24.21.75-6.86-.87-13.08-4.73-18.75-.23-.34-.49-.67-.68-1.03-.62-1.17-.33-2.47.69-3.15,1.1-.73,2.35-.52,3.26.68,2.56,3.36,4.35,7.12,5.38,11.21,4.16,16.68-5.23,33.46-21.63,38.67-.43.14-.86.31-1.16.41,1.03,3.8,2.25,7.47,3.02,11.23,4.22,20.81-.19,39.75-13.06,56.56-10.47,13.69-24.29,22.39-41.18,26.07-2.51.55-5.09.76-7.63,1.15-.45.07-.88.2-1.32.3h-9.91c-.4-.1-.79-.25-1.19-.28-9.58-.83-18.57-3.62-27.01-8.18-9.21-4.98-16.97-11.68-23.16-20.15-.99-1.35-.9-2.74.17-3.58,1.16-.91,2.48-.63,3.59.78.16.2.31.41.48.61,16.52,20.64,37.88,29.51,63.94,24.85,23.06-4.13,39.1-17.85,48.33-39.33,4.6-10.71,5.91-21.99,4.13-33.48-.77-4.95-2.47-9.75-3.8-14.61-.11-.4-.58-1-.9-1.01-2.17-.09-4.35-.04-6.59-.04,13.42,30.18.13,59.8-20.84,73.49-22.6,14.75-52.4,12.4-71.65-5.67-20.02-18.8-24.83-47.99-11.73-71.28,6.63-11.78,16.11-20.47,28.58-25.66,15.82-6.59,31.63-6.03,47.36.87-.08-1.25-.2-2.37-.21-3.5,0-1.18.09-2.36.15-3.52-.11-.09-.18-.18-.27-.22-.19-.09-.38-.16-.57-.24-11.98-4.72-24.33-5.92-36.88-3.2-20.61,4.48-35.78,16.28-45.32,35.09-5.64,11.12-7.58,23.03-6.33,35.43.76,7.55,2.86,14.74,6.18,21.57.78,1.61.45,2.98-.79,3.6-1.34.67-2.63.1-3.46-1.61-2.65-5.5-4.64-11.22-5.7-17.24-.46-2.63-.83-5.28-1.25-7.91v-10.22c.1-.4.23-.79.29-1.19.44-2.9.69-5.84,1.31-8.7C9.69,36.27,47.58,12.18,85.17,20.93c3.39.79,6.71,1.91,10.15,2.9.15-.48.3-1.02.49-1.54,3.84-10.89,11.29-17.98,22.37-21.23,1.57-.46,3.2-.71,4.8-1.05h6.81Zm-60.13,142.95c4.07-.57,8.22-.82,12.21-1.75,34.08-7.9,51.65-45.98,35.59-76.94-.5-.97-1.11-1.59-2.16-1.99-9.13-3.49-15.47-9.82-18.97-18.95-.4-1.04-.99-1.68-1.97-2.18-11.67-5.91-23.9-7.42-36.66-4.62-27.34,6-45.7,33.24-41.04,60.9,4.42,26.23,26.48,45.06,53,45.53Z"/>
      <path class="cls-1" d="m121.29,30.6c3.98-3.99,7.77-7.78,11.56-11.58,2.11-2.12,4.65-2.88,7.5-2.09,5.33,1.47,7.13,8.08,3.3,12.16-2.65,2.82-5.45,5.5-8.18,8.23-2.48,2.48-4.94,4.98-7.45,7.44-4.02,3.94-9.36,3.93-13.36,0-1.77-1.74-3.53-3.48-5.25-5.26-2.99-3.1-3.01-7.63-.08-10.55,2.9-2.89,7.5-2.85,10.57.1.45.43.83.91,1.39,1.54Zm-6.93.59c-.77.64-1.67,1.14-2.2,1.9-.69,1-.35,2.11.47,2.96,1.64,1.71,3.33,3.38,5.01,5.04,2.58,2.56,4.88,2.55,7.46-.03,4.74-4.74,9.48-9.48,14.22-14.22,1.85-1.85,2.16-3.53.86-4.77-1.26-1.21-2.86-.9-4.68.92-3.79,3.79-7.57,7.59-11.37,11.37-1.9,1.89-3.69,1.87-5.63-.02-.66-.65-1.27-1.36-1.99-1.94-.53-.43-1.21-.68-2.16-1.2Z"/>
      <path class="cls-1" d="m69.11,93.5c-4.82-6.32-4.82-12.42.02-16.79,4.44-4.02,11.14-3.89,15.41.28,4.61,4.5,4.51,10.66-.37,16.57,4.49,2.99,7.05,7.17,7.05,12.62,0,4.1-1.57,7.63-4.56,10.48-5.81,5.52-15.05,5.18-20.58-.6-4.86-5.08-6.5-15.89,3.04-22.56Zm7.5,22.39c5.5.03,9.85-4.25,9.87-9.72.02-5.5-4.27-9.86-9.72-9.88-5.49-.02-9.87,4.29-9.89,9.73-.02,5.49,4.27,9.84,9.73,9.87Zm0-24.36c3.61.05,6.63-2.93,6.63-6.53,0-3.53-2.92-6.47-6.48-6.53-3.55-.06-6.49,2.8-6.57,6.39-.08,3.67,2.76,6.62,6.43,6.67Z"/>
      <path class="cls-1" d="m52.1,78.45c-2.08,0-4.03.01-5.97,0-1.9-.02-3.02-.91-3.01-2.34.01-1.45,1.15-2.35,3.03-2.35,2.58-.01,5.15-.02,7.73,0,2.07.01,2.97.84,2.98,2.89.02,13.72.02,27.43,0,41.15,0,1.8-.95,2.84-2.38,2.83-1.47-.01-2.37-1.12-2.37-3.01,0-12.38,0-24.75,0-37.13v-2.03Z"/>
      <path class="cls-1" d="m91.36,66.94c-.33,4.12-.72,4.88-2.42,4.92-1.75.03-2.19-.79-2.55-4.98-.78,0-1.59.03-2.39,0-1.5-.07-2.52-1.06-2.49-2.39.02-1.27.99-2.19,2.44-2.26.77-.04,1.53,0,2.55,0,0-.83-.02-1.52,0-2.22.05-1.76.98-2.84,2.4-2.83,1.43,0,2.3,1.06,2.37,2.86.02.66,0,1.32,0,2.06,1.98.38,4.92-.68,4.92,2.43,0,3.09-2.87,2.17-4.82,2.42Z"/>
    </g>
  </g>
</svg>