<?xml version="1.0" encoding="UTF-8"?>
<svg id="Capa_2" data-name="Capa 2" xmlns="http://www.w3.org/2000/svg" xmlns:xlink="http://www.w3.org/1999/xlink" viewBox="0 0 152 152">
  <defs>
    <style>
      .cls-1 {
        fill: #fff;
        fill-rule: evenodd;
        filter: url(#outer-glow-1);
      }
    </style>
    <filter id="outer-glow-1" filterUnits="userSpaceOnUse">
      <feOffset dx="0" dy="0"/>
      <feGaussianBlur result="blur" stdDeviation="9"/>
      <feFlood flood-color="#c0c" flood-opacity=".75"/>
      <feComposite in2="blur" operator="in"/>
      <feComposite in="SourceGraphic"/>
    </filter>
  </defs>
  <g id="Layer_4" data-name="Layer 4">
    <path class="cls-1" d="m27.34,84.73c.18-2.66,1.42-4.28,3.76-5.3,17.57-7.62,35.71-13.47,54.45-17.35,9.81-2.03,19.75-3.48,29.63-5.16,2.5-.43,4.38.5,5.24,2.85,1.47,4.02,2.85,8.09,4.03,12.21.76,2.64-.44,4.11-3.18,4.56-29.44,4.76-57.97,12.59-85.22,24.85-3.74,1.68-5.33.86-6.15-3.21-.91-4.52-1.74-9.05-2.57-13.44Zm63.05-55.78c-15.08,2.16-29.96,5.24-44.62,9.36-3.86,1.09-4.98,3.16-3.98,7.16.87,3.45,1.73,6.9,2.62,10.35,1.07,4.16,2.55,4.97,6.67,3.81,4.83-1.36,9.61-2.93,14.51-3.96,13.22-2.77,26.48-5.32,39.74-7.89,3.45-.67,4.9-2.15,4-4.92-1.38-4.22-2.84-8.44-4.67-12.48-.62-1.38-2.43-2.21-3.26-2.92-4.26.58-7.63,1.01-10.99,1.5Zm24.8,59.32c-18.2,3.86-36.13,8.69-53.74,14.68-2.69.91-3.74,2.99-3.03,5.75,1,3.91,2.07,7.81,3.17,11.7,1.04,3.68,3.05,4.71,6.79,3.47,3.53-1.17,7-2.51,10.56-3.56,13.94-4.11,27.9-8.16,41.87-12.18,3.05-.88,4.18-2.16,3.45-4.71-1.19-4.11-2.46-8.21-3.86-12.25-.65-1.87-2.09-3.06-4.31-3.03-.26.04-.58.07-.9.13Z"/>
  </g>
</svg>