<?xml version="1.0" encoding="UTF-8"?>
<svg id="Capa_2" data-name="Capa 2" xmlns="http://www.w3.org/2000/svg" viewBox="0 0 97.35 97.34">
  <defs>
    <style>
      .cls-1 {
        fill: #fff;
      }

      .cls-2 {
        fill-rule: evenodd;
      }
    </style>
  </defs>
  <g id="Layer_4" data-name="Layer 4">
    <g>
      <path class="cls-1" d="m97.35,48.67C97.35,21.79,75.55,0,48.67,0S0,21.79,0,48.67s21.79,48.67,48.67,48.67,48.67-21.79,48.67-48.67Z"/>
      <path class="cls-2" d="m24.5,59c-.44,2.5-.84,4.76-1.25,7.02-.16.88-.3,1.77-.5,2.65-.07.31-.2.74-.43.84-.47.21-1.09.42-1.53.27-.27-.09-.54-.85-.47-1.25.5-3.19,1.09-6.38,1.65-9.56.84-4.78,1.7-9.55,2.5-14.34.68-4.07,4.01-6.96,8.13-6.98,1.71,0,3.41-.02,5.12,0,3.34.02,5.67,2.29,5.53,5.61-.07,1.78-.49,3.55-.79,5.32-.29,1.71-.6,3.42-.93,5.13-.77,3.97-4.07,6.68-8.09,6.68-1.11,0-2.22-.03-3.33,0-1.93.05-3.85.04-5.62-1.39Zm6.92-1.16c.78,0,1.55,0,2.33,0,2.79-.02,4.82-1.77,5.28-4.53.49-2.92,1-5.84,1.53-8.75.44-2.41-.87-4.18-3.31-4.29-1.76-.08-3.53-.08-5.3-.02-2.43.09-4.38,1.74-4.84,4.08-.61,3.17-1.19,6.35-1.71,9.54-.37,2.21,1.06,3.89,3.31,3.97.9.03,1.8,0,2.7,0Z"/>
      <path class="cls-2" d="m73.92,50.37c-2.37,0-4.73.02-7.1-.01-.64,0-.91.21-.99.84-.1.8-.32,1.58-.44,2.38-.4,2.53,1.09,4.3,3.64,4.31,3.27.02,6.53,0,9.79.02,1.19,0,1.63.3,1.62,1.07,0,.79-.58,1.32-1.59,1.33-3.59.04-7.19.12-10.78.04-3.14-.06-5.62-2.85-5.2-5.98.48-3.62,1.12-7.22,1.93-10.78.78-3.44,4.16-5.9,7.69-5.93,1.8-.01,3.59-.02,5.39,0,3.66.05,6.05,2.73,5.61,6.37-.2,1.69-.58,3.36-.9,5.04-.17.9-.76,1.29-1.67,1.29-2.34-.01-4.67,0-7.01,0h0Zm-7.48-2.62c.24.08.35.14.46.14,4.31.01,8.62.03,12.93,0,.23,0,.59-.37.65-.62.23-.9.36-1.82.53-2.73.47-2.51-1.05-4.4-3.6-4.44-1.77-.02-3.53-.03-5.3.01-1.91.05-3.38.96-4.38,2.56-.97,1.55-.88,3.36-1.3,5.07Z"/>
      <path class="cls-2" d="m48.94,60.39c-1.77,0-3.53,0-5.3,0-.66,0-1.22-.15-1.32-.91-.1-.77.31-1.27,1.02-1.49.36-.11.77-.11,1.15-.11,3.27,0,6.53,0,9.8,0,2.16-.01,4.02-1.45,4.6-3.5.65-2.29-.79-4.27-3.17-4.31-1.71-.03-3.42-.02-5.12,0-2.38.03-4.44-.59-5.47-2.96-1.06-2.43-.42-4.66,1.16-6.63,1.55-1.93,3.61-2.91,6.11-2.89,3,.02,5.99.03,8.99.05,1.03,0,1.46.31,1.48,1.03.02.79-.61,1.43-1.51,1.43-3.17.02-6.35,0-9.53.03-2.02.03-3.5,1.01-4.31,2.85-1.05,2.36.32,4.51,2.9,4.59,1.77.05,3.54.13,5.3,0,4.18-.32,7.55,3.68,4.97,8.55-1.49,2.8-3.9,4.31-7.16,4.28-1.53-.01-3.06,0-4.58,0Z"/>
      <path class="cls-2" d="m14.24,49.38c-.39-.03-.76-.1-1.14-.1-3.77-.01-7.55-.01-11.32-.01-.27,0-.54,0-.81,0-.45,0-.76-.12-.75-.65,0-.55.35-.62.78-.62,2.46,0,4.91,0,7.37-.01.35,0,.7-.03,1.05-.04,0-.18.05-.3.01-.35-1.15-1.49-2.29-3-3.48-4.45-.16-.2-.59-.25-.9-.25-1.23-.03-2.46.01-3.68-.04-.24,0-.46-.3-.68-.46.22-.27.42-.77.65-.78,1.65-.07,3.29-.07,4.94-.02.29,0,.63.32.84.57,1.4,1.67,2.8,3.36,4.16,5.07.46.58.98.78,1.7.77,2.73-.03,5.45-.03,8.18-.01.43,0,1.03-.19,1.02.62-.01.75-.5.77-1.05.76-1.32-.03-2.64-.03-3.95-.07-.75-.02-1.2.27-1.54.96-.87,1.78-1.83,3.5-2.71,5.27-.27.54-.61.73-1.19.72-1.2-.04-2.4-.06-3.59.02-.36.02-.83.31-1.02.62-.72,1.15-2.11,1.59-3.16.91-1.06-.69-1.32-2.16-.56-3.15.84-1.09,2.2-1.15,3.33-.22.34.28.82.49,1.25.52.98.07,1.98.06,2.96,0,.34-.02.84-.19.98-.44.83-1.53,1.57-3.1,2.33-4.66.05-.09,0-.23,0-.44Z"/>
      <path class="cls-2" d="m11.78,35.25c-.02,1.27-.97,2.17-2.28,2.14-1.2-.03-2.05-.92-2.05-2.14,0-1.29.95-2.23,2.2-2.2,1.22.03,2.14.99,2.12,2.21Z"/>
      <path class="cls-2" d="m11.76,62.32c-.01,1.21-.98,2.17-2.17,2.16-1.19,0-2.14-.98-2.12-2.19.01-1.26.9-2.14,2.16-2.13,1.24,0,2.16.93,2.14,2.16Z"/>
      <path class="cls-2" d="m5.11,67.18c.99-.01,1.75.52,2.06,1.42.31.93-.02,1.95-.78,2.47-.54.37-.91.31-1.18-.34-.31-.75-.68-1.47-1-2.21-.44-1.01-.2-1.34.91-1.35Z"/>
      <path class="cls-2" d="m7.41,28.45c-.09,1.45-1.32,2.49-2.68,2.23-.51-.1-.77-.3-.5-.86.42-.86.79-1.75,1.22-2.6.39-.77.8-.81,1.32-.11.29.39.43.89.64,1.35Z"/>
      <path class="cls-2" d="m1.81,36.88c.24-.87.45-1.61.69-2.47.54,1.05.3,1.91-.69,2.47Z"/>
    </g>
  </g>
</svg>