<?xml version="1.0" encoding="UTF-8"?>
<svg id="Capa_2" data-name="Capa 2" xmlns="http://www.w3.org/2000/svg" viewBox="0 0 3654.14 983.67">
  <defs>
    <style>
      .cls-1 {
        fill: #01686d;
      }

      .cls-2 {
        fill: #b1b1b1;
      }
    </style>
  </defs>
  <g id="Layer_3" data-name="Layer 3">
    <g>
      <polygon class="cls-1" points="0 1 294.33 1 294.33 111.79 112.09 111.79 112.09 226.35 294.33 226.35 294.33 336.88 112.09 336.88 112.09 608.82 0 608.82 0 1"/>
      <path class="cls-1" d="m384.81.28c15.07,0,28,5.46,38.79,16.39,10.78,10.92,16.18,24.15,16.18,39.67s-5.35,28.41-16.01,39.22c-10.7,10.83-23.47,16.23-38.34,16.23s-28.31-5.52-39.09-16.55c-10.8-11.02-16.19-24.41-16.19-40.15s5.35-28.05,16.03-38.74C356.85,5.62,369.71.28,384.81.28Z"/>
      <rect class="cls-1" x="329.73" y="159.71" width="110.06" height="449.1"/>
      <path class="cls-1" d="m476.44,159.86h110.09v55.23c24.95-21.06,47.55-35.67,67.84-43.92,20.26-8.23,40.98-12.34,62.2-12.34,43.48,0,80.4,15.2,110.73,45.57,25.49,25.8,38.25,63.97,38.25,114.5v289.9h-108.86v-192.11c0-52.35-2.35-87.09-7.05-104.29-4.69-17.21-12.85-30.29-24.53-39.27-11.66-9-26.09-13.5-43.23-13.5-22.25,0-41.38,7.46-57.33,22.35-15.96,14.9-27.03,35.5-33.18,61.81-3.23,13.7-4.82,43.38-4.82,89.01v176h-110.09V159.86Z"/>
      <path class="cls-1" d="m2246.67,247.54l-91.66,50.41c-17.22-18-34.24-30.53-51.05-37.51-16.83-6.97-36.55-10.47-59.15-10.47-41.17,0-74.48,12.26-99.91,36.84-25.43,24.55-38.15,56.01-38.15,94.39s12.25,67.77,36.72,91.4c24.5,23.61,56.66,35.42,96.5,35.42,49.25,0,87.59-16.81,115.04-50.41l86.8,59.43c-47.04,61.17-113.44,91.77-199.19,91.77-77.15,0-137.57-22.84-181.25-68.54-43.67-45.7-65.51-99.19-65.51-160.48,0-42.46,10.62-81.6,31.87-117.34,21.22-35.75,50.85-63.86,88.88-84.27,38.05-20.42,80.58-30.64,127.63-30.64,43.54,0,82.65,8.68,117.32,26,34.69,17.34,63.03,41.99,85.1,73.99Z"/>
      <path class="cls-1" d="m2340.33,1c15.3,0,28.44,5.54,39.38,16.63,10.93,11.09,16.42,24.53,16.42,40.3s-5.43,28.83-16.26,39.81c-10.84,10.99-23.82,16.48-38.9,16.48s-28.75-5.62-39.69-16.8c-10.96-11.2-16.42-24.76-16.42-40.76s5.41-28.46,16.25-39.34c10.84-10.87,23.92-16.31,39.22-16.31Z"/>
      <rect class="cls-1" x="2286.98" y="159.69" width="110.09" height="449.12"/>
      <path class="cls-1" d="m2777.18,158.65h110.07v448.23h-110.07v-57.67c-21.51,20.43-43.03,35.15-64.64,44.16-21.64,9-45.05,13.52-70.29,13.52-56.65,0-105.65-21.99-147-65.94-41.35-43.94-62.01-98.57-62.01-163.91s20.01-123.24,60.01-166.52c40.01-43.29,88.61-64.92,145.79-64.92,26.29,0,51.01,4.97,74.1,14.92,23.08,9.94,44.43,24.87,64.05,44.74v-46.61Zm-124.95,88.55c-34.04,0-62.3,12.04-84.81,36.1-22.51,24.04-33.73,54.9-33.73,92.53s11.42,69.09,34.34,93.55c22.89,24.46,51.1,36.7,84.58,36.7s63.23-12.03,86-36.09c22.76-24.06,34.17-55.57,34.17-94.56s-11.41-69.09-34.17-92.73c-22.77-23.64-51.56-35.49-86.38-35.49Z"/>
      <polygon class="cls-1" points="2981.18 1 3091.25 1 3091.25 158.65 3156.57 158.65 3156.57 253.41 3091.25 253.41 3091.25 606.62 2981.18 606.62 2981.18 253.41 2924.75 253.41 2924.75 158.65 2981.18 158.65 2981.18 1"/>
      <path class="cls-1" d="m3653.74,410.04h-353.62c5.12,31.16,18.76,55.97,40.94,74.37,22.16,18.41,50.46,27.6,84.86,27.6,41.13,0,76.48-14.35,106.06-43.13l92.73,43.55c-23.12,32.79-50.81,57.04-83.05,72.77-32.28,15.73-70.57,23.6-114.91,23.6-68.83,0-124.88-21.72-168.14-65.13-43.28-43.42-64.92-97.78-64.92-163.11s21.57-122.49,64.7-166.73c43.15-44.19,97.25-66.31,162.3-66.31,69.09,0,125.26,22.12,168.55,66.31,43.26,44.24,64.92,102.62,64.92,175.19l-.41,20.99Zm-129.75-86.7c-7.27-24.46-21.6-44.37-43.02-59.68-21.41-15.33-46.23-22.99-74.51-22.99-30.71,0-57.62,8.62-80.77,25.81-14.56,10.76-28.02,29.7-40.4,56.86h238.7Z"/>
      <g>
        <path class="cls-2" d="m968.06,28.07c-39.96,19.62-75.72,46.88-106.17,80.08l77.47,83.34c21.23-25,46.91-45.5,75.43-60.11,29.68-15.29,64.22-17.86,93.22-18.67V0c-52,.73-96.23,6.69-139.95,28.07Z"/>
        <path class="cls-2" d="m1250.01,156.83v50.39c-22-19.92-42.38-34.84-65.46-44.75-23.08-9.93-48.56-14.91-74.88-14.91-57.16,0-106.08,21.58-146.12,64.87-39.99,43.27-60.22,98.84-60.22,166.6s20.64,119.89,61.93,163.84c41.38,43.93,90.33,65.91,146.97,65.91,25.21,0,50.08-4.47,71.78-13.44,21.6-9.02,36-23.73,66-44.16v59.67h113V156.83h-113Zm-32.23,315.06c-22.77,24.09-51.43,36.14-85.96,36.14s-61.73-12.28-84.58-36.74c-22.93-24.47-34.4-55.64-34.4-93.55s11.25-68.48,33.75-92.5c22.56-24.1,50.76-36.09,84.78-36.09s63.64,11.81,86.41,35.49c22.79,23.59,34.18,54.51,34.18,92.73s-11.39,70.47-34.18,94.51Z"/>
        <path class="cls-2" d="m1759.84,314.35l-1.76,289.14c-26.22,205.73-209.42,380.18-427.42,380.18-181.93,0-337.35-115.14-399.08-275.34-18.37-47.68-28.42-100.22-28.42-154.37,0-16.68-.34-33.24-.19-52.18,3.81,14.68,24.04,48.36,55.92,78.16,19.33,18.06,45.14,30.74,71.98,40.84,13.28,51.29,34.08,108.79,69.08,146.48,57.59,61.87,139.75,103.62,230.72,103.62,155.25,0,293.17-127.79,318.6-267.39l.36-191.35c0-52.39-2.57-87.14-7.19-104.34-4.71-17.19-13.01-30.27-24.69-39.24-11.68-8.95-26.1-13.5-43.22-13.5-22.25,0-41.43,7.48-57.38,22.34-16.03,14.91-22.54,35.55-28.7,61.86-3.24,13.67-.42,43.36-.42,88.99v182.59h-105V156.83h105v53.68c15-21.08,43.18-35.71,63.39-43.93,20.2-8.24,38.78-12.34,59.94-12.34,43.51,0,80.21,15.2,110.54,45.55,25.5,25.87,37.95,63.99,37.95,114.56Z"/>
      </g>
    </g>
  </g>
</svg>