<?xml version="1.0" encoding="UTF-8"?>
<svg id="Capa_2" data-name="Capa 2" xmlns="http://www.w3.org/2000/svg" viewBox="0 0 4012 1080">
  <defs>
    <style>
      .cls-1 {
        fill: #fff;
      }
    </style>
  </defs>
  <g id="Layer_3" data-name="Layer 3">
    <g>
      <polygon class="cls-1" points="0 1.09 323.16 1.09 323.16 122.74 123.07 122.74 123.07 248.52 323.16 248.52 323.16 369.88 123.07 369.88 123.07 668.44 0 668.44 0 1.09"/>
      <path class="cls-1" d="m422.5.3c16.55,0,30.75,5.99,42.59,17.99,11.84,11.99,17.76,26.52,17.76,43.56s-5.87,31.19-17.58,43.07c-11.74,11.89-25.77,17.82-42.09,17.82s-31.08-6.06-42.92-18.17c-11.86-12.09-17.78-26.81-17.78-44.09s5.87-30.79,17.6-42.53C391.8,6.17,405.92.3,422.5.3Z"/>
      <rect class="cls-1" x="362.03" y="175.36" width="120.83" height="493.08"/>
      <path class="cls-1" d="m523.1,175.51h120.87v60.64c27.4-23.12,52.21-39.17,74.48-48.22,22.24-9.03,44.99-13.55,68.29-13.55,47.74,0,88.27,16.69,121.57,50.04,27.99,28.32,42,70.24,42,125.72v318.29h-119.53v-210.93c0-57.47-2.58-95.62-7.74-114.5-5.15-18.89-14.11-33.25-26.93-43.12-12.8-9.88-28.64-14.82-47.47-14.82-24.43,0-45.43,8.19-62.95,24.54-17.52,16.36-29.68,38.98-36.43,67.87-3.54,15.05-5.3,47.63-5.3,97.73v193.23h-120.87V175.51Z"/>
      <path class="cls-1" d="m2466.69,271.79l-100.63,55.34c-18.91-19.76-37.59-33.52-56.05-41.18-18.48-7.65-40.13-11.5-64.94-11.5-45.2,0-81.78,13.47-109.7,40.45-27.92,26.95-41.88,61.49-41.88,103.63s13.45,74.41,40.32,100.35c26.9,25.92,62.21,38.89,105.95,38.89,54.08,0,96.17-18.45,126.31-55.34l95.31,65.25c-51.65,67.17-124.55,100.76-218.69,100.76-84.71,0-151.04-25.07-199-75.25-47.95-50.17-71.93-108.91-71.93-176.19,0-46.62,11.66-89.59,34.99-128.83,23.3-39.25,55.83-70.11,97.59-92.53,41.77-22.42,88.48-33.64,140.12-33.64,47.8,0,90.74,9.53,128.81,28.55,38.09,19.04,69.2,46.1,93.44,81.23Z"/>
      <path class="cls-1" d="m2569.52,1.09c16.8,0,31.23,6.08,43.24,18.25,12,12.17,18.03,26.93,18.03,44.25s-5.97,31.66-17.86,43.7c-11.9,12.06-26.15,18.09-42.71,18.09s-31.56-6.17-43.58-18.45c-12.03-12.29-18.03-27.19-18.03-44.76s5.94-31.24,17.84-43.19c11.9-11.94,26.26-17.9,43.06-17.9Z"/>
      <rect class="cls-1" x="2510.95" y="175.33" width="120.87" height="493.11"/>
      <path class="cls-1" d="m3049.16,174.18h120.85v492.13h-120.85v-63.32c-23.62,22.43-47.25,38.59-70.97,48.48-23.76,9.88-49.46,14.84-77.18,14.84-62.2,0-116-24.14-161.39-72.4-45.4-48.24-68.08-108.22-68.08-179.96s21.97-135.31,65.88-182.82c43.93-47.53,97.28-71.27,160.07-71.27,28.87,0,56,5.46,81.36,16.39,25.34,10.91,48.78,27.3,70.32,49.12v-51.18Zm-137.19,97.22c-37.37,0-68.4,13.22-93.12,39.63-24.71,26.4-37.03,60.28-37.03,101.59s12.54,75.85,37.7,102.71c25.13,26.85,56.1,40.29,92.86,40.29s69.43-13.21,94.43-39.63c24.99-26.42,37.51-61.01,37.51-103.82s-12.53-75.85-37.51-101.81c-25-25.95-56.61-38.96-94.84-38.96Z"/>
      <polygon class="cls-1" points="3273.13 1.09 3393.98 1.09 3393.98 174.18 3465.7 174.18 3465.7 278.23 3393.98 278.23 3393.98 666.02 3273.13 666.02 3273.13 278.23 3211.18 278.23 3211.18 174.18 3273.13 174.18 3273.13 1.09"/>
      <path class="cls-1" d="m4011.56,450.2h-388.26c5.62,34.22,20.6,61.45,44.95,81.65,24.33,20.22,55.4,30.31,93.17,30.31,45.16,0,83.97-15.76,116.45-47.35l101.81,47.82c-25.39,36-55.78,62.63-91.19,79.9-35.44,17.27-77.48,25.91-126.16,25.91-75.57,0-137.11-23.84-184.61-71.51-47.52-47.68-71.27-107.35-71.27-179.08s23.68-134.49,71.04-183.05c47.37-48.52,106.78-72.81,178.2-72.81,75.85,0,137.52,24.28,185.06,72.81,47.5,48.57,71.27,112.67,71.27,192.35l-.45,23.05Zm-142.46-95.19c-7.98-26.85-23.71-48.71-47.23-65.52-23.5-16.83-50.75-25.24-81.8-25.24-33.71,0-63.27,9.46-88.68,28.34-15.99,11.82-30.76,32.61-44.36,62.43h262.08Z"/>
      <g>
        <path class="cls-1" d="m1063.11,30.82c-43.88,21.54-83.26,51.47-116.69,87.92l85,91.5c23.31-27.45,51.72-49.95,83.03-65.99,32.58-16.79,70.56-19.61,102.56-20.5V0c-57,.8-105.9,7.35-153.9,30.82Z"/>
        <path class="cls-1" d="m1372.01,172v55.51c-24-21.88-46.33-38.25-71.66-49.13-25.34-10.9-53.21-16.37-82.11-16.37-62.75,0-116.42,23.7-160.38,71.22-43.91,47.51-66.09,108.52-66.09,182.91s22.67,131.64,68,179.89c45.43,48.24,99.18,72.36,161.38,72.36,27.68,0,54.78-4.91,78.6-14.76,23.71-9.91,40.26-26.06,72.26-48.48v64.86h123V172h-123Zm-34.97,346.11c-25,26.45-56.47,39.68-94.38,39.68s-67.78-13.48-92.86-40.34c-25.18-26.87-37.77-61.09-37.77-102.71s12.35-75.18,37.05-101.56c24.76-26.46,55.73-39.62,93.09-39.62s69.87,12.97,94.87,38.96c25.02,25.9,37.53,59.85,37.53,101.82s-12.51,77.37-37.53,103.76Z"/>
        <path class="cls-1" d="m1932.18,345.13l-1.93,317.45c-28.78,225.88-229.92,417.41-469.28,417.41-199.75,0-370.38-126.42-438.17-302.3-20.17-52.35-31.21-110.03-31.21-169.49,0-18.32-.37-36.49-.21-57.29,4.18,16.11,26.39,53.1,61.4,85.82,21.22,19.82,49.56,33.75,79.03,44.84,14.58,56.32,37.42,119.45,75.84,160.82,63.23,67.92,153.43,113.77,253.32,113.77,170.46,0,321.88-140.3,349.8-293.58l.4-210.08c0-57.52-2.82-95.67-7.9-114.56-5.17-18.88-14.28-33.24-27.11-43.08-12.83-9.83-28.66-14.82-47.45-14.82-24.43,0-45.49,8.22-62.99,24.52-17.6,16.37-24.61,39.04-31.38,67.91-3.56,15.01-.33,47.61-.33,97.71v199.82h-115V172h115v59.13c16-23.14,47.27-39.2,69.47-48.23,22.18-9.05,42.51-13.55,65.74-13.55,47.77,0,88.03,16.69,121.33,50.01,28,28.4,41.63,70.25,41.63,125.78Z"/>
      </g>
    </g>
  </g>
</svg>