<?xml version="1.0" encoding="UTF-8"?>
<svg id="Capa_2" data-name="Capa 2" xmlns="http://www.w3.org/2000/svg" viewBox="0 0 538.58 305.03">
  <defs>
    <style>
      .cls-1 {
        fill: #1d1d1b;
      }
    </style>
  </defs>
  <g id="Capa_1-2" data-name="Capa 1">
    <g>
      <path class="cls-1" d="m102.87,304.87C15.43,251.85-14.02,136.55,6.02,40.59,8.35,2.99,58.82,22.32,80.38,24.76c-56.62,83.19-44.66,205.96,22.49,280.12Z"/>
      <path class="cls-1" d="m100.86,15.4c-12.74-1.46-25.32-3.28-38.08-4.83-.13-2.02,2.26-3.54,3.48-5,3.16-2.86,7.31-4.97,11.4-5.35,5.12-.47,7.87-.1,12.94.39,3.57.35,44.52,5.36,47.11,6.07,0,0-3.83,5.78-4.61,7.51-4.46,6.41-8.67,12.99-12.64,19.71-11.73,19.72-21.57,40.72-29.07,62.34-1.99,4.6-3.12,9.69-4.85,14.4-2.28,8.52-4.89,16.85-6.42,25.55-9.72,43.64-8.7,90.7,7.82,132.49,4.79,12.58,12.05,24.64,18.7,36.05-.61.82-1.3-.58-1.76-.95-4.67-5.26-9.31-10.56-13.29-16.37-10.49-14.88-18.67-31.51-24.57-48.72-.61-.92-.7-2.28-1.23-3.26-2.4-7.74-4.5-15.57-6.23-23.35-6.63-31.74-6.23-64.91-.55-96.68,2.75-13.52,6.22-26.87,10.73-40.11.56-.47.27-1.31.79-1.8,7.27-20.64,17.37-40.4,30.38-58.06Z"/>
      <g>
        <path class="cls-1" d="m324.45,170.24c-30.81,1.11-61.82-18.75-69.8-49.31-10.91-43.5,9.98-84.83,56.46-91.68,25.71-3.71,53.4,5.88,69.76,26.61,11.3,14.43,14.74,33.42,13.12,51.33-1.82,37.01-33.13,63.57-69.55,63.05Zm-1.85-25.76c16.38.47,32.79-10.52,38.41-26.07,4.22-10.41,4.44-22.19,1.18-32.93-7.55-24.28-33.57-36.94-56.81-25.75-21.61,9.66-28.95,37.37-20.58,58.16,4.21,11.14,13.44,20.96,24.89,24.69,4.2,1.08,8.46,2.19,12.92,1.9Z"/>
        <path class="cls-1" d="m140.79,30.54c34.78-5.28,87-7.07,97.4,35.96,11.71,43.07-25.76,71.5-66.43,65.19-.92,8.41,2.49,23.89-3.04,29.98-7.13,7.29-18.42,7.22-27.96,7.09-.29-46-.38-92.23.03-138.21Zm30.88,75.69c20.37,1.7,37.2,1.66,39.84-22.97.16-9.5-3.42-20.31-12.37-25.01-6.73-3.2-19.93-2.82-27.47-2v49.98Z"/>
        <path class="cls-1" d="m412.14,30.5c10.24-.21,26.77-.15,29.75,12.19,1.16,33.1.05,66.56.45,99.78,13.28.34,26.62-.18,39.9.21,10.41,2.83,10.96,16.99,10.69,26.01-26.88.37-53.85.03-80.77.12-.35-46.04-.27-92.27-.03-138.31Z"/>
        <path class="cls-1" d="m506.74,168.67c-.15-45.99-.28-92.21.07-138.15,10.34-.31,27.65.05,29.81,12.97,1.16,41.19.03,82.73.26,124,.2.92-.31,1.59-1.29,1.34-9.6-.14-19.3.3-28.84-.16Z"/>
      </g>
      <g>
        <path class="cls-1" d="m140.4,288.23c0-.24.22-.46.46-.46h.97c.24,0,.46.22.46.46v16.1c0,.24-.22.46-.46.46h-.97c-.24,0-.46-.22-.46-.46v-16.1Z"/>
        <path class="cls-1" d="m147.67,287.96c0-.24.22-.44.46-.44h.36c.17,0,.29.05.39.19l10.82,13.47h.05v-12.96c0-.24.19-.46.46-.46h.85c.24,0,.46.22.46.46v16.36c0,.24-.22.44-.46.44h-.19c-.17,0-.29-.05-.39-.19l-11.01-13.74h-.02v13.23c0,.24-.19.46-.46.46h-.85c-.24,0-.46-.22-.46-.46v-16.36Z"/>
        <path class="cls-1" d="m167.07,302.23l.36-.46c.24-.32.44-.44.78-.15.17.15,2.02,1.78,4.18,1.78,1.97,0,3.26-1.24,3.26-2.77,0-1.68-1.46-2.65-4.26-3.84-2.67-1.14-4.28-2.16-4.28-4.94,0-1.65,1.31-4.33,5.18-4.33,2.38,0,4.16,1.24,4.16,1.24.15.07.41.36.15.83l-.24.41c-.19.34-.46.34-.85.12-1.02-.61-1.87-.97-3.23-.97-2.58,0-3.36,1.65-3.36,2.67,0,1.73,1.24,2.48,3.28,3.33,3.28,1.34,5.4,2.58,5.4,5.4,0,2.53-2.41,4.47-5.25,4.47s-4.81-1.68-5.13-1.97c-.19-.17-.49-.39-.15-.83Z"/>
        <path class="cls-1" d="m187.68,289.39h-4.23c-.27,0-.46-.22-.46-.46v-.71c0-.24.19-.46.46-.46h10.31c.27,0,.46.22.46.46v.71c0,.24-.19.46-.46.46h-4.23v14.93c0,.24-.22.46-.46.46h-.92c-.24,0-.46-.22-.46-.46v-14.93Z"/>
        <path class="cls-1" d="m199.6,288.23c0-.24.22-.46.46-.46h.97c.24,0,.46.22.46.46v16.1c0,.24-.22.46-.46.46h-.97c-.24,0-.46-.22-.46-.46v-16.1Z"/>
        <path class="cls-1" d="m211.57,289.39h-4.23c-.27,0-.46-.22-.46-.46v-.71c0-.24.19-.46.46-.46h10.31c.27,0,.46.22.46.46v.71c0,.24-.19.46-.46.46h-4.23v14.93c0,.24-.22.46-.46.46h-.92c-.24,0-.46-.22-.46-.46v-14.93Z"/>
        <path class="cls-1" d="m223.49,288.23c0-.24.22-.46.46-.46h.92c.27,0,.46.22.46.46v10.24c0,2.77,1.73,4.84,4.57,4.84s4.62-2.02,4.62-4.79v-10.29c0-.24.19-.46.46-.46h.92c.24,0,.46.22.46.46v10.38c0,3.7-2.63,6.42-6.47,6.42s-6.42-2.72-6.42-6.42v-10.38Z"/>
        <path class="cls-1" d="m241.76,288.23c0-.24.22-.46.46-.46h.97c.24,0,.46.22.46.46v16.1c0,.24-.22.46-.46.46h-.97c-.24,0-.46-.22-.46-.46v-16.1Z"/>
        <path class="cls-1" d="m257.82,287.52c2.46,0,4.23.85,5.88,2.26.19.19.22.49.02.68l-.66.66c-.19.24-.39.22-.63-.02-1.26-1.09-2.87-1.82-4.64-1.82-3.84,0-6.78,3.23-6.78,7s2.94,6.98,6.78,6.98c2.12,0,3.36-.73,4.64-1.82.24-.19.44-.17.63.02l.56.56c.19.15.15.49-.02.66-1.6,1.46-3.62,2.36-5.79,2.36-4.86,0-8.78-3.87-8.78-8.73s3.91-8.78,8.78-8.78Z"/>
        <path class="cls-1" d="m269.25,288.23c0-.24.22-.46.46-.46h.97c.24,0,.46.22.46.46v16.1c0,.24-.22.46-.46.46h-.97c-.24,0-.46-.22-.46-.46v-16.1Z"/>
        <path class="cls-1" d="m285.25,287.52c4.86,0,8.75,3.91,8.75,8.78s-3.89,8.73-8.75,8.73-8.73-3.87-8.73-8.73,3.87-8.78,8.73-8.78Zm0,15.8c3.87,0,7.05-3.16,7.05-7.03s-3.19-7.08-7.05-7.08-7.03,3.21-7.03,7.08,3.16,7.03,7.03,7.03Zm-2.19-18.11c-.1-.19,0-.39.15-.46l3.65-2.04c.15-.1.51-.15.63.07l.44.88c.1.19.05.44-.15.51l-3.91,1.63c-.34.15-.46.15-.56-.05l-.24-.53Z"/>
        <path class="cls-1" d="m299.39,287.96c0-.24.22-.44.46-.44h.36c.17,0,.29.05.39.19l10.82,13.47h.05v-12.96c0-.24.19-.46.46-.46h.85c.24,0,.46.22.46.46v16.36c0,.24-.22.44-.46.44h-.19c-.17,0-.29-.05-.39-.19l-11.02-13.74h-.02v13.23c0,.24-.19.46-.46.46h-.85c-.24,0-.46-.22-.46-.46v-16.36Z"/>
        <path class="cls-1" d="m330.44,288.23c0-.24.22-.46.46-.46h.92c.27,0,.46.22.46.46v10.24c0,2.77,1.73,4.84,4.57,4.84s4.62-2.02,4.62-4.79v-10.29c0-.24.19-.46.46-.46h.92c.24,0,.46.22.46.46v10.38c0,3.7-2.63,6.42-6.47,6.42s-6.42-2.72-6.42-6.42v-10.38Z"/>
        <path class="cls-1" d="m349.16,287.96c0-.24.22-.44.46-.44h.36c.17,0,.29.05.39.19l10.82,13.47h.05v-12.96c0-.24.19-.46.46-.46h.85c.24,0,.46.22.46.46v16.36c0,.24-.22.44-.46.44h-.19c-.17,0-.29-.05-.39-.19l-11.02-13.74h-.02v13.23c0,.24-.19.46-.46.46h-.85c-.24,0-.46-.22-.46-.46v-16.36Z"/>
        <path class="cls-1" d="m368.85,288.23c0-.24.22-.46.46-.46h.97c.24,0,.46.22.46.46v16.1c0,.24-.22.46-.46.46h-.97c-.24,0-.46-.22-.46-.46v-16.1Z"/>
        <path class="cls-1" d="m376.63,288.4c-.15-.32.05-.63.41-.63h.97c.22,0,.36.15.41.27l6.05,13.62h.1l6.05-13.62c.05-.12.22-.27.41-.27h.97c.36,0,.56.32.41.63l-7.39,16.36c-.07.15-.22.27-.41.27h-.24c-.17,0-.34-.12-.41-.27l-7.34-16.36Z"/>
        <path class="cls-1" d="m398.31,288.23c0-.24.19-.46.46-.46h9.58c.27,0,.46.22.46.46v.71c0,.24-.19.46-.46.46h-8.17v5.93h6.98c.24,0,.46.22.46.46v.7c0,.27-.22.46-.46.46h-6.98v6.2h8.17c.27,0,.46.22.46.46v.7c0,.24-.19.46-.46.46h-9.58c-.27,0-.46-.22-.46-.46v-16.1Z"/>
        <path class="cls-1" d="m414.65,288.23c0-.24.19-.46.46-.46h6.3c2.92,0,5.3,2.29,5.3,5.18,0,2.24-1.48,4.11-3.6,4.96l3.33,6.18c.17.32,0,.7-.41.7h-1.17c-.29,0-.41-.12-.53-.36l-3.16-6.3h-4.64v6.2c0,.24-.22.46-.46.46h-.95c-.27,0-.46-.22-.46-.46v-16.1Zm6.64,8.29c1.87,0,3.5-1.56,3.5-3.55,0-1.85-1.63-3.43-3.5-3.43h-4.72v6.98h4.72Z"/>
        <path class="cls-1" d="m432.7,302.23l.36-.46c.24-.32.44-.44.78-.15.17.15,2.02,1.78,4.18,1.78,1.97,0,3.26-1.24,3.26-2.77,0-1.68-1.46-2.65-4.26-3.84-2.67-1.14-4.28-2.16-4.28-4.94,0-1.65,1.31-4.33,5.18-4.33,2.38,0,4.16,1.24,4.16,1.24.15.07.41.36.15.83l-.24.41c-.19.34-.46.34-.85.12-1.02-.61-1.87-.97-3.23-.97-2.58,0-3.36,1.65-3.36,2.67,0,1.73,1.24,2.48,3.28,3.33,3.28,1.34,5.4,2.58,5.4,5.4,0,2.53-2.41,4.47-5.25,4.47s-4.81-1.68-5.13-1.97c-.19-.17-.49-.39-.15-.83Z"/>
        <path class="cls-1" d="m449.06,288.23c0-.24.22-.46.46-.46h.97c.24,0,.46.22.46.46v16.1c0,.24-.22.46-.46.46h-.97c-.24,0-.46-.22-.46-.46v-16.1Z"/>
        <path class="cls-1" d="m461.48,289.39h-4.23c-.27,0-.46-.22-.46-.46v-.71c0-.24.19-.46.46-.46h10.31c.27,0,.46.22.46.46v.71c0,.24-.19.46-.46.46h-4.23v14.93c0,.24-.22.46-.46.46h-.92c-.24,0-.46-.22-.46-.46v-14.93Z"/>
        <path class="cls-1" d="m473.9,304.15l7.39-16.36c.07-.15.19-.27.41-.27h.24c.22,0,.34.12.41.27l7.34,16.36c.15.32-.05.63-.41.63h-.97c-.22,0-.36-.15-.41-.27l-1.8-4.01h-8.63l-1.78,4.01c-.05.12-.19.27-.41.27h-.97c-.36,0-.56-.32-.41-.63Zm11.55-5.15c-1.19-2.65-2.36-5.33-3.55-7.98h-.19l-3.55,7.98h7.29Z"/>
        <path class="cls-1" d="m495.58,288.23c0-.24.19-.46.46-.46h6.3c2.92,0,5.3,2.29,5.3,5.18,0,2.24-1.48,4.11-3.6,4.96l3.33,6.18c.17.32,0,.7-.41.7h-1.17c-.29,0-.41-.12-.53-.36l-3.16-6.3h-4.64v6.2c0,.24-.22.46-.46.46h-.95c-.27,0-.46-.22-.46-.46v-16.1Zm6.64,8.29c1.87,0,3.5-1.56,3.5-3.55,0-1.85-1.63-3.43-3.5-3.43h-4.72v6.98h4.72Z"/>
        <path class="cls-1" d="m513.47,288.23c0-.24.22-.46.46-.46h.97c.24,0,.46.22.46.46v16.1c0,.24-.22.46-.46.46h-.97c-.24,0-.46-.22-.46-.46v-16.1Z"/>
        <path class="cls-1" d="m521.25,304.15l7.39-16.36c.07-.15.19-.27.41-.27h.24c.22,0,.34.12.41.27l7.34,16.36c.15.32-.05.63-.41.63h-.97c-.22,0-.36-.15-.41-.27l-1.8-4.01h-8.63l-1.78,4.01c-.05.12-.19.27-.41.27h-.97c-.36,0-.56-.32-.41-.63Zm11.55-5.15c-1.19-2.65-2.36-5.33-3.55-7.98h-.19l-3.55,7.98h7.29Z"/>
      </g>
      <g>
        <path class="cls-1" d="m141.84,202.76c0-.36.29-.68.68-.68h8.4c4.4,0,8.01,3.57,8.01,7.9s-3.61,8.04-7.97,8.04h-4.47v8.4c0,.36-.32.68-.68.68h-3.29c-.39,0-.68-.32-.68-.68v-23.67Zm8.94,10.9c2,0,3.54-1.61,3.54-3.72,0-1.97-1.54-3.47-3.54-3.47h-4.29v7.19h4.29Z"/>
        <path class="cls-1" d="m178.87,201.72c7.15,0,12.87,5.76,12.87,12.91s-5.72,12.83-12.87,12.83-12.83-5.68-12.83-12.83,5.68-12.91,12.83-12.91Zm0,21.09c4.5,0,8.22-3.68,8.22-8.19s-3.72-8.26-8.22-8.26-8.19,3.75-8.19,8.26,3.68,8.19,8.19,8.19Z"/>
        <path class="cls-1" d="m200.96,202.76c0-.36.29-.68.68-.68h3.29c.36,0,.68.32.68.68v20.06h9.12c.39,0,.68.32.68.68v2.93c0,.36-.29.68-.68.68h-13.08c-.39,0-.68-.32-.68-.68v-23.67Z"/>
        <path class="cls-1" d="m223.63,202.76c0-.36.32-.68.68-.68h3.32c.36,0,.68.32.68.68v23.67c0,.36-.32.68-.68.68h-3.32c-.36,0-.68-.32-.68-.68v-23.67Z"/>
        <path class="cls-1" d="m243.04,206.37h-5.47c-.39,0-.68-.32-.68-.68v-2.93c0-.36.29-.68.68-.68h15.62c.39,0,.68.32.68.68v2.93c0,.36-.29.68-.68.68h-5.47v20.06c0,.36-.32.68-.68.68h-3.32c-.36,0-.68-.32-.68-.68v-20.06Z"/>
        <path class="cls-1" d="m262.45,202.76c0-.36.29-.68.68-.68h14.55c.39,0,.68.32.68.68v2.93c0,.36-.29.68-.68.68h-10.58v5.86h8.83c.36,0,.68.32.68.68v2.97c0,.39-.32.68-.68.68h-8.83v6.26h10.58c.39,0,.68.32.68.68v2.93c0,.36-.29.68-.68.68h-14.55c-.39,0-.68-.32-.68-.68v-23.67Zm4.79-3.36l-.64-1.25c-.14-.29.04-.57.21-.68l5.86-3.5c.39-.25.75-.21.93.11l1,1.86c.25.43.11.82-.21.97l-6.26,2.75c-.5.21-.75.07-.89-.25Z"/>
        <path class="cls-1" d="m298.7,201.72c3.61,0,6.22,1.14,8.65,3.33.32.29.32.71.04,1l-2.18,2.25c-.25.29-.61.29-.89,0-1.5-1.32-3.5-2.11-5.51-2.11-4.58,0-7.97,3.83-7.97,8.33s3.43,8.26,8.01,8.26c2.14,0,3.97-.82,5.47-2.04.29-.25.68-.21.89,0l2.22,2.29c.29.25.21.71-.04.97-2.43,2.36-5.51,3.47-8.69,3.47-7.15,0-12.91-5.68-12.91-12.83s5.76-12.91,12.91-12.91Z"/>
        <path class="cls-1" d="m316.47,202.36c0-.36.32-.64.68-.64h.54c.25,0,.43.07.61.25l14.59,15.55h.07v-14.76c0-.36.29-.68.68-.68h3.29c.36,0,.68.32.68.68v24.06c0,.36-.32.64-.68.64h-.5c-.25,0-.43-.07-.61-.25l-14.66-16.16h-.07v15.37c0,.36-.29.68-.68.68h-3.25c-.36,0-.68-.32-.68-.68v-24.06Z"/>
        <path class="cls-1" d="m348.29,202.76c0-.36.32-.68.68-.68h3.32c.36,0,.68.32.68.68v23.67c0,.36-.32.68-.68.68h-3.32c-.36,0-.68-.32-.68-.68v-23.67Z"/>
        <path class="cls-1" d="m375.1,201.72c3.61,0,6.22,1.14,8.65,3.33.32.29.32.71.04,1l-2.18,2.25c-.25.29-.61.29-.89,0-1.5-1.32-3.5-2.11-5.51-2.11-4.58,0-7.97,3.83-7.97,8.33s3.43,8.26,8.01,8.26c2.14,0,3.97-.82,5.47-2.04.29-.25.68-.21.89,0l2.22,2.29c.29.25.21.71-.04.97-2.43,2.36-5.51,3.47-8.69,3.47-7.15,0-12.91-5.68-12.91-12.83s5.76-12.91,12.91-12.91Z"/>
        <path class="cls-1" d="m403.66,201.72c7.15,0,12.87,5.76,12.87,12.91s-5.72,12.83-12.87,12.83-12.83-5.68-12.83-12.83,5.68-12.91,12.83-12.91Zm0,21.09c4.5,0,8.22-3.68,8.22-8.19s-3.72-8.26-8.22-8.26-8.19,3.75-8.19,8.26,3.68,8.19,8.19,8.19Z"/>
      </g>
      <g>
        <path class="cls-1" d="m151.31,243.08c3.22,0,6.29,1.25,8.72,3.33.29.29.32.71.04,1l-2.22,2.32c-.29.29-.61.29-.93,0-1.54-1.36-3.43-2.07-5.4-2.07-4.47,0-8.01,3.83-8.01,8.29s3.54,8.19,8.04,8.19c2,0,3.54-.61,4.25-.89v-3.04h-2.86c-.39,0-.68-.29-.68-.64v-2.82c0-.39.29-.68.68-.68h6.86c.36,0,.64.32.64.68v9.15c0,.29-.14.46-.29.57,0,0-3.68,2.32-8.87,2.32-7.11,0-12.83-5.65-12.83-12.8s5.72-12.91,12.83-12.91Z"/>
        <path class="cls-1" d="m170.22,244.12c0-.36.29-.68.68-.68h10.22c4.29,0,7.79,3.43,7.79,7.69,0,3.29-2.18,5.97-5.29,7.22l4.9,9.08c.25.46,0,1.04-.61,1.04h-3.75c-.32,0-.5-.18-.57-.32l-4.75-9.47h-3.97v9.12c0,.36-.32.68-.68.68h-3.29c-.39,0-.68-.32-.68-.68v-23.67Zm10.51,10.72c1.89,0,3.54-1.64,3.54-3.65,0-1.89-1.64-3.47-3.54-3.47h-5.83v7.11h5.83Z"/>
        <path class="cls-1" d="m195.46,267.54l11.12-24.06c.11-.21.29-.39.61-.39h.36c.36,0,.5.18.61.39l11.01,24.06c.21.47-.07.93-.61.93h-3.11c-.54,0-.79-.21-1.04-.71l-1.75-3.86h-10.69l-1.75,3.86c-.14.36-.46.71-1.04.71h-3.11c-.54,0-.82-.46-.61-.93Zm15.44-7.61l-3.57-7.87h-.11l-3.5,7.87h7.19Z"/>
        <path class="cls-1" d="m226.92,243.73c0-.36.32-.64.68-.64h.54c.25,0,.43.07.61.25l14.59,15.55h.07v-14.76c0-.36.29-.68.68-.68h3.29c.36,0,.68.32.68.68v24.06c0,.36-.32.64-.68.64h-.5c-.25,0-.43-.07-.61-.25l-14.66-16.16h-.07v15.37c0,.36-.29.68-.68.68h-3.25c-.36,0-.68-.32-.68-.68v-24.06Z"/>
        <path class="cls-1" d="m270.18,243.08c3.61,0,6.22,1.14,8.65,3.33.32.29.32.71.04,1l-2.18,2.25c-.25.29-.61.29-.89,0-1.5-1.32-3.5-2.11-5.51-2.11-4.58,0-7.97,3.83-7.97,8.33s3.43,8.26,8.01,8.26c2.14,0,3.97-.82,5.47-2.04.29-.25.68-.21.89,0l2.22,2.29c.29.25.21.71-.04.97-2.43,2.36-5.51,3.47-8.69,3.47-7.15,0-12.91-5.68-12.91-12.83s5.76-12.91,12.91-12.91Z"/>
        <path class="cls-1" d="m298.74,243.08c7.15,0,12.87,5.76,12.87,12.91s-5.72,12.83-12.87,12.83-12.83-5.68-12.83-12.83,5.68-12.91,12.83-12.91Zm0,21.09c4.5,0,8.22-3.68,8.22-8.19s-3.72-8.26-8.22-8.26-8.19,3.75-8.19,8.26,3.68,8.19,8.19,8.19Z"/>
        <path class="cls-1" d="m320.83,244.12c0-.36.29-.68.68-.68h3.29c.36,0,.68.32.68.68v20.06h9.12c.39,0,.68.32.68.68v2.93c0,.36-.29.68-.68.68h-13.08c-.39,0-.68-.32-.68-.68v-23.67Z"/>
        <path class="cls-1" d="m354.22,243.08c7.15,0,12.87,5.76,12.87,12.91s-5.72,12.83-12.87,12.83-12.83-5.68-12.83-12.83,5.68-12.91,12.83-12.91Zm0,21.09c4.5,0,8.22-3.68,8.22-8.19s-3.72-8.26-8.22-8.26-8.19,3.75-8.19,8.26,3.68,8.19,8.19,8.19Z"/>
        <path class="cls-1" d="m379,243.62c.04-.29.25-.54.64-.54h.57c.29,0,.5.14.61.36l7.86,16.87h.11l7.86-16.87c.11-.21.29-.36.61-.36h.57c.39,0,.61.25.64.54l4.22,24.02c.11.5-.18.82-.64.82h-3.25c-.32,0-.61-.29-.68-.54l-2.11-13.55h-.11l-6.26,14.05c-.07.21-.29.39-.61.39h-.64c-.32,0-.5-.18-.61-.39l-6.33-14.05h-.11l-2.07,13.55c-.04.25-.32.54-.64.54h-3.22c-.47,0-.75-.32-.68-.82l4.25-24.02Z"/>
        <path class="cls-1" d="m424.86,255.81c2.07.71,4.29,2.4,4.29,5.76,0,4-3.43,6.9-7.79,6.9h-8.65c-.39,0-.68-.32-.68-.68v-23.67c0-.36.29-.68.68-.68h8.19c4.25,0,7.54,2.86,7.54,6.61,0,2.68-1.72,4.65-3.58,5.58v.18Zm-4.33-1.86c1.82,0,3-1.43,3-3.22s-1.18-3.04-3-3.04h-3.9v6.26h3.9Zm.5,10.3c1.79,0,3.15-1.39,3.15-3.25s-1.36-3.11-3.15-3.11h-4.4v6.36h4.4Z"/>
        <path class="cls-1" d="m438.66,244.12c0-.36.32-.68.68-.68h3.32c.36,0,.68.32.68.68v23.67c0,.36-.32.68-.68.68h-3.32c-.36,0-.68-.32-.68-.68v-23.67Z"/>
        <path class="cls-1" d="m451.07,267.54l11.12-24.06c.11-.21.29-.39.61-.39h.36c.36,0,.5.18.61.39l11.01,24.06c.21.47-.07.93-.61.93h-3.11c-.54,0-.79-.21-1.04-.71l-1.75-3.86h-10.69l-1.75,3.86c-.14.36-.47.71-1.04.71h-3.11c-.54,0-.82-.46-.61-.93Zm15.44-7.61l-3.57-7.87h-.11l-3.5,7.87h7.19Z"/>
        <path class="cls-1" d="m482.53,243.73c0-.36.32-.64.68-.64h.54c.25,0,.43.07.61.25l14.59,15.55h.07v-14.76c0-.36.29-.68.68-.68h3.29c.36,0,.68.32.68.68v24.06c0,.36-.32.64-.68.64h-.5c-.25,0-.43-.07-.61-.25l-14.66-16.16h-.07v15.37c0,.36-.29.68-.68.68h-3.25c-.36,0-.68-.32-.68-.68v-24.06Z"/>
        <path class="cls-1" d="m525.71,243.08c7.15,0,12.87,5.76,12.87,12.91s-5.72,12.83-12.87,12.83-12.83-5.68-12.83-12.83,5.68-12.91,12.83-12.91Zm0,21.09c4.5,0,8.22-3.68,8.22-8.19s-3.72-8.26-8.22-8.26-8.19,3.75-8.19,8.26,3.68,8.19,8.19,8.19Z"/>
      </g>
    </g>
  </g>
</svg>