<?xml version="1.0" encoding="UTF-8"?>
<svg id="Capa_2" data-name="Capa 2" xmlns="http://www.w3.org/2000/svg" viewBox="0 0 162.08 91.8">
  <defs>
    <style>
      .cls-1 {
        fill: #00a3c7;
      }

      .cls-2 {
        fill: #293257;
      }
    </style>
  </defs>
  <g id="Capa_1-2" data-name="Capa 1">
    <g>
      <path class="cls-1" d="m30.96,91.75C4.64,75.79-4.22,41.1,1.81,12.21,2.51.9,17.7,6.72,24.19,7.45c-17.04,25.04-13.44,61.98,6.77,84.3Z"/>
      <path class="cls-2" d="m30.35,4.63c-3.83-.44-7.62-.99-11.46-1.45-.04-.61.68-1.07,1.05-1.51.95-.86,2.2-1.5,3.43-1.61,1.54-.14,2.37-.03,3.89.12,1.08.1,13.4,1.61,14.18,1.83,0,0-1.15,1.74-1.39,2.26-1.34,1.93-2.61,3.91-3.81,5.93-3.53,5.94-6.49,12.25-8.75,18.76-.6,1.39-.94,2.92-1.46,4.33-.69,2.56-1.47,5.07-1.93,7.69-2.93,13.13-2.62,27.29,2.35,39.87,1.44,3.79,3.63,7.41,5.63,10.85-.18.25-.39-.17-.53-.29-1.4-1.58-2.8-3.18-4-4.93-3.16-4.48-5.62-9.48-7.4-14.66-.18-.28-.21-.69-.37-.98-.72-2.33-1.35-4.69-1.88-7.03-2-9.55-1.87-19.53-.17-29.1.83-4.07,1.87-8.09,3.23-12.07.17-.14.08-.4.24-.54,2.19-6.21,5.23-12.16,9.14-17.47Z"/>
      <g>
        <path class="cls-2" d="m97.64,51.23c-9.27.33-18.61-5.64-21-14.84-3.28-13.09,3-25.53,16.99-27.59,7.74-1.12,16.07,1.77,20.99,8.01,3.4,4.34,4.44,10.06,3.95,15.45-.55,11.14-9.97,19.13-20.93,18.98Zm-.56-7.75c4.93.14,9.87-3.17,11.56-7.85,1.27-3.13,1.34-6.68.35-9.91-2.27-7.31-10.1-11.12-17.1-7.75-6.5,2.91-8.71,11.25-6.19,17.5,1.27,3.35,4.04,6.31,7.49,7.43,1.26.32,2.55.66,3.89.57Z"/>
        <path class="cls-2" d="m42.37,9.19c10.47-1.59,26.18-2.13,29.31,10.82,3.53,12.96-7.75,21.52-19.99,19.62-.28,2.53.75,7.19-.92,9.02-2.15,2.19-5.54,2.17-8.41,2.13-.09-13.84-.11-27.76,0-41.59Zm9.29,22.78c6.13.51,11.19.5,11.99-6.91.05-2.86-1.03-6.11-3.72-7.53-2.03-.96-6-.85-8.27-.6v15.04Z"/>
        <path class="cls-2" d="m124.03,9.18c3.08-.06,8.06-.05,8.95,3.67.35,9.96.02,20.03.14,30.03,4,.1,8.01-.05,12.01.06,3.13.85,3.3,5.11,3.22,7.83-8.09.11-16.21,0-24.31.04-.11-13.86-.08-27.77,0-41.62Z"/>
        <path class="cls-2" d="m152.5,50.76c-.04-13.84-.09-27.75.02-41.58,3.11-.09,8.32.01,8.97,3.9.35,12.4,0,24.9.08,37.32.06.28-.09.48-.39.4-2.89-.04-5.81.09-8.68-.05Z"/>
      </g>
      <g>
        <path class="cls-2" d="m42.25,86.74c0-.07.07-.14.14-.14h.29c.07,0,.14.07.14.14v4.84c0,.07-.07.14-.14.14h-.29c-.07,0-.14-.07-.14-.14v-4.84Z"/>
        <path class="cls-2" d="m44.44,86.66c0-.07.07-.13.14-.13h.11c.05,0,.09.01.12.06l3.26,4.05h.01v-3.9c0-.07.06-.14.14-.14h.26c.07,0,.14.07.14.14v4.92c0,.07-.07.13-.14.13h-.06c-.05,0-.09-.01-.12-.06l-3.31-4.13h0v3.98c0,.07-.06.14-.14.14h-.26c-.07,0-.14-.07-.14-.14v-4.92Z"/>
        <path class="cls-2" d="m50.28,90.96l.11-.14c.07-.1.13-.13.23-.04.05.04.61.53,1.26.53.59,0,.98-.37.98-.83,0-.5-.44-.8-1.28-1.16-.8-.34-1.29-.65-1.29-1.49,0-.5.4-1.3,1.56-1.3.72,0,1.25.37,1.25.37.04.02.12.11.04.25l-.07.12c-.06.1-.14.1-.26.04-.31-.18-.56-.29-.97-.29-.78,0-1.01.5-1.01.8,0,.52.37.75.99,1,.99.4,1.62.78,1.62,1.62,0,.76-.72,1.35-1.58,1.35s-1.45-.5-1.54-.59c-.06-.05-.15-.12-.04-.25Z"/>
        <path class="cls-2" d="m56.48,87.09h-1.27c-.08,0-.14-.07-.14-.14v-.21c0-.07.06-.14.14-.14h3.1c.08,0,.14.07.14.14v.21c0,.07-.06.14-.14.14h-1.27v4.49c0,.07-.07.14-.14.14h-.28c-.07,0-.14-.07-.14-.14v-4.49Z"/>
        <path class="cls-2" d="m60.07,86.74c0-.07.07-.14.14-.14h.29c.07,0,.14.07.14.14v4.84c0,.07-.07.14-.14.14h-.29c-.07,0-.14-.07-.14-.14v-4.84Z"/>
        <path class="cls-2" d="m63.67,87.09h-1.27c-.08,0-.14-.07-.14-.14v-.21c0-.07.06-.14.14-.14h3.1c.08,0,.14.07.14.14v.21c0,.07-.06.14-.14.14h-1.27v4.49c0,.07-.07.14-.14.14h-.28c-.07,0-.14-.07-.14-.14v-4.49Z"/>
        <path class="cls-2" d="m67.26,86.74c0-.07.07-.14.14-.14h.28c.08,0,.14.07.14.14v3.08c0,.83.52,1.46,1.38,1.46s1.39-.61,1.39-1.44v-3.1c0-.07.06-.14.14-.14h.28c.07,0,.14.07.14.14v3.12c0,1.11-.79,1.93-1.95,1.93s-1.93-.82-1.93-1.93v-3.12Z"/>
        <path class="cls-2" d="m72.76,86.74c0-.07.07-.14.14-.14h.29c.07,0,.14.07.14.14v4.84c0,.07-.07.14-.14.14h-.29c-.07,0-.14-.07-.14-.14v-4.84Z"/>
        <path class="cls-2" d="m77.59,86.53c.74,0,1.27.26,1.77.68.06.06.07.15,0,.2l-.2.2c-.06.07-.12.07-.19,0-.38-.33-.86-.55-1.4-.55-1.16,0-2.04.97-2.04,2.11s.89,2.1,2.04,2.1c.64,0,1.01-.22,1.4-.55.07-.06.13-.05.19,0l.17.17c.06.04.04.15,0,.2-.48.44-1.09.71-1.74.71-1.46,0-2.64-1.16-2.64-2.63s1.18-2.64,2.64-2.64Z"/>
        <path class="cls-2" d="m81.03,86.74c0-.07.07-.14.14-.14h.29c.07,0,.14.07.14.14v4.84c0,.07-.07.14-.14.14h-.29c-.07,0-.14-.07-.14-.14v-4.84Z"/>
        <path class="cls-2" d="m85.85,86.53c1.46,0,2.63,1.18,2.63,2.64s-1.17,2.63-2.63,2.63-2.63-1.16-2.63-2.63,1.16-2.64,2.63-2.64Zm0,4.76c1.16,0,2.12-.95,2.12-2.11s-.96-2.13-2.12-2.13-2.11.97-2.11,2.13.95,2.11,2.11,2.11Zm-.66-5.45c-.03-.06,0-.12.04-.14l1.1-.61s.15-.04.19.02l.13.26c.03.06.01.13-.04.15l-1.18.49c-.1.04-.14.04-.17-.01l-.07-.16Z"/>
        <path class="cls-2" d="m90.1,86.66c0-.07.07-.13.14-.13h.11c.05,0,.09.01.12.06l3.26,4.05h.01v-3.9c0-.07.06-.14.14-.14h.26c.07,0,.14.07.14.14v4.92c0,.07-.07.13-.14.13h-.06c-.05,0-.09-.01-.12-.06l-3.31-4.13h0v3.98c0,.07-.06.14-.14.14h-.26c-.07,0-.14-.07-.14-.14v-4.92Z"/>
        <path class="cls-2" d="m99.45,86.74c0-.07.07-.14.14-.14h.28c.08,0,.14.07.14.14v3.08c0,.83.52,1.46,1.38,1.46s1.39-.61,1.39-1.44v-3.1c0-.07.06-.14.14-.14h.28c.07,0,.14.07.14.14v3.12c0,1.11-.79,1.93-1.95,1.93s-1.93-.82-1.93-1.93v-3.12Z"/>
        <path class="cls-2" d="m105.08,86.66c0-.07.07-.13.14-.13h.11c.05,0,.09.01.12.06l3.26,4.05h.01v-3.9c0-.07.06-.14.14-.14h.26c.07,0,.14.07.14.14v4.92c0,.07-.07.13-.14.13h-.06c-.05,0-.09-.01-.12-.06l-3.31-4.13h0v3.98c0,.07-.06.14-.14.14h-.26c-.07,0-.14-.07-.14-.14v-4.92Z"/>
        <path class="cls-2" d="m111,86.74c0-.07.07-.14.14-.14h.29c.07,0,.14.07.14.14v4.84c0,.07-.07.14-.14.14h-.29c-.07,0-.14-.07-.14-.14v-4.84Z"/>
        <path class="cls-2" d="m113.34,86.79c-.04-.1.01-.19.12-.19h.29c.07,0,.11.04.12.08l1.82,4.1h.03l1.82-4.1s.07-.08.12-.08h.29c.11,0,.17.1.12.19l-2.22,4.92s-.07.08-.12.08h-.07c-.05,0-.1-.04-.12-.08l-2.21-4.92Z"/>
        <path class="cls-2" d="m119.87,86.74c0-.07.06-.14.14-.14h2.88c.08,0,.14.07.14.14v.21c0,.07-.06.14-.14.14h-2.46v1.79h2.1c.07,0,.14.07.14.14v.21c0,.08-.07.14-.14.14h-2.1v1.87h2.46c.08,0,.14.07.14.14v.21c0,.07-.06.14-.14.14h-2.88c-.08,0-.14-.07-.14-.14v-4.84Z"/>
        <path class="cls-2" d="m124.79,86.74c0-.07.06-.14.14-.14h1.9c.88,0,1.6.69,1.6,1.56,0,.67-.45,1.24-1.08,1.49l1,1.86c.05.1,0,.21-.12.21h-.35c-.09,0-.12-.04-.16-.11l-.95-1.9h-1.4v1.87c0,.07-.07.14-.14.14h-.29c-.08,0-.14-.07-.14-.14v-4.84Zm2,2.5c.56,0,1.05-.47,1.05-1.07,0-.56-.49-1.03-1.05-1.03h-1.42v2.1h1.42Z"/>
        <path class="cls-2" d="m130.22,90.96l.11-.14c.07-.1.13-.13.23-.04.05.04.61.53,1.26.53.59,0,.98-.37.98-.83,0-.5-.44-.8-1.28-1.16-.8-.34-1.29-.65-1.29-1.49,0-.5.4-1.3,1.56-1.3.72,0,1.25.37,1.25.37.04.02.12.11.04.25l-.07.12c-.06.1-.14.1-.26.04-.31-.18-.56-.29-.97-.29-.78,0-1.01.5-1.01.8,0,.52.37.75.99,1,.99.4,1.62.78,1.62,1.62,0,.76-.72,1.35-1.58,1.35s-1.45-.5-1.54-.59c-.06-.05-.15-.12-.04-.25Z"/>
        <path class="cls-2" d="m135.14,86.74c0-.07.07-.14.14-.14h.29c.07,0,.14.07.14.14v4.84c0,.07-.07.14-.14.14h-.29c-.07,0-.14-.07-.14-.14v-4.84Z"/>
        <path class="cls-2" d="m138.88,87.09h-1.27c-.08,0-.14-.07-.14-.14v-.21c0-.07.06-.14.14-.14h3.1c.08,0,.14.07.14.14v.21c0,.07-.06.14-.14.14h-1.27v4.49c0,.07-.07.14-.14.14h-.28c-.07,0-.14-.07-.14-.14v-4.49Z"/>
        <path class="cls-2" d="m142.62,91.53l2.22-4.92s.06-.08.12-.08h.07c.07,0,.1.04.12.08l2.21,4.92c.04.1-.01.19-.12.19h-.29c-.07,0-.11-.04-.12-.08l-.54-1.21h-2.6l-.53,1.21s-.06.08-.12.08h-.29c-.11,0-.17-.1-.12-.19Zm3.48-1.55c-.36-.8-.71-1.6-1.07-2.4h-.06l-1.07,2.4h2.2Z"/>
        <path class="cls-2" d="m149.14,86.74c0-.07.06-.14.14-.14h1.9c.88,0,1.6.69,1.6,1.56,0,.67-.45,1.24-1.08,1.49l1,1.86c.05.1,0,.21-.12.21h-.35c-.09,0-.12-.04-.16-.11l-.95-1.9h-1.4v1.87c0,.07-.07.14-.14.14h-.29c-.08,0-.14-.07-.14-.14v-4.84Zm2,2.5c.56,0,1.05-.47,1.05-1.07,0-.56-.49-1.03-1.05-1.03h-1.42v2.1h1.42Z"/>
        <path class="cls-2" d="m154.53,86.74c0-.07.07-.14.14-.14h.29c.07,0,.14.07.14.14v4.84c0,.07-.07.14-.14.14h-.29c-.07,0-.14-.07-.14-.14v-4.84Z"/>
        <path class="cls-2" d="m156.87,91.53l2.22-4.92s.06-.08.12-.08h.07c.07,0,.1.04.12.08l2.21,4.92c.04.1-.01.19-.12.19h-.29c-.07,0-.11-.04-.12-.08l-.54-1.21h-2.6l-.53,1.21s-.06.08-.12.08h-.29c-.11,0-.17-.1-.12-.19Zm3.48-1.55c-.36-.8-.71-1.6-1.07-2.4h-.06l-1.07,2.4h2.2Z"/>
      </g>
      <g>
        <path class="cls-2" d="m42.68,61.02c0-.11.09-.2.2-.2h2.53c1.32,0,2.41,1.08,2.41,2.38s-1.09,2.42-2.4,2.42h-1.34v2.53c0,.11-.1.2-.2.2h-.99c-.12,0-.2-.1-.2-.2v-7.12Zm2.69,3.28c.6,0,1.07-.48,1.07-1.12,0-.59-.46-1.04-1.07-1.04h-1.29v2.16h1.29Z"/>
        <path class="cls-2" d="m53.83,60.71c2.15,0,3.87,1.73,3.87,3.88s-1.72,3.86-3.87,3.86-3.86-1.71-3.86-3.86,1.71-3.88,3.86-3.88Zm0,6.35c1.36,0,2.47-1.11,2.47-2.46s-1.12-2.49-2.47-2.49-2.46,1.13-2.46,2.49,1.11,2.46,2.46,2.46Z"/>
        <path class="cls-2" d="m60.48,61.02c0-.11.09-.2.2-.2h.99c.11,0,.2.1.2.2v6.04h2.74c.12,0,.2.1.2.2v.88c0,.11-.09.2-.2.2h-3.94c-.12,0-.2-.1-.2-.2v-7.12Z"/>
        <path class="cls-2" d="m67.3,61.02c0-.11.1-.2.2-.2h1c.11,0,.2.1.2.2v7.12c0,.11-.1.2-.2.2h-1c-.11,0-.2-.1-.2-.2v-7.12Z"/>
        <path class="cls-2" d="m73.14,62.11h-1.65c-.12,0-.2-.1-.2-.2v-.88c0-.11.09-.2.2-.2h4.7c.12,0,.2.1.2.2v.88c0,.11-.09.2-.2.2h-1.65v6.04c0,.11-.1.2-.2.2h-1c-.11,0-.2-.1-.2-.2v-6.04Z"/>
        <path class="cls-2" d="m78.98,61.02c0-.11.09-.2.2-.2h4.38c.12,0,.2.1.2.2v.88c0,.11-.09.2-.2.2h-3.18v1.76h2.66c.11,0,.2.1.2.2v.89c0,.12-.1.2-.2.2h-2.66v1.88h3.18c.12,0,.2.1.2.2v.88c0,.11-.09.2-.2.2h-4.38c-.12,0-.2-.1-.2-.2v-7.12Zm1.44-1.01l-.19-.38c-.04-.09.01-.17.06-.2l1.76-1.05c.12-.08.23-.06.28.03l.3.56c.08.13.03.25-.06.29l-1.88.83c-.15.06-.23.02-.27-.08Z"/>
        <path class="cls-2" d="m89.89,60.71c1.09,0,1.87.34,2.6,1,.1.09.1.22.01.3l-.66.68c-.08.09-.18.09-.27,0-.45-.4-1.05-.63-1.66-.63-1.38,0-2.4,1.15-2.4,2.51s1.03,2.49,2.41,2.49c.65,0,1.19-.25,1.65-.61.09-.08.2-.06.27,0l.67.69c.09.08.06.22-.01.29-.73.71-1.66,1.04-2.61,1.04-2.15,0-3.88-1.71-3.88-3.86s1.73-3.88,3.88-3.88Z"/>
        <path class="cls-2" d="m95.24,60.9c0-.11.1-.19.2-.19h.16c.08,0,.13.02.18.08l4.39,4.68h.02v-4.44c0-.11.09-.2.2-.2h.99c.11,0,.2.1.2.2v7.24c0,.11-.1.19-.2.19h-.15c-.08,0-.13-.02-.18-.08l-4.41-4.86h-.02v4.63c0,.11-.09.2-.2.2h-.98c-.11,0-.2-.1-.2-.2v-7.24Z"/>
        <path class="cls-2" d="m104.82,61.02c0-.11.1-.2.2-.2h1c.11,0,.2.1.2.2v7.12c0,.11-.1.2-.2.2h-1c-.11,0-.2-.1-.2-.2v-7.12Z"/>
        <path class="cls-2" d="m112.88,60.71c1.09,0,1.87.34,2.6,1,.1.09.1.22.01.3l-.66.68c-.08.09-.18.09-.27,0-.45-.4-1.05-.63-1.66-.63-1.38,0-2.4,1.15-2.4,2.51s1.03,2.49,2.41,2.49c.65,0,1.19-.25,1.65-.61.09-.08.2-.06.27,0l.67.69c.09.08.06.22-.01.29-.73.71-1.66,1.04-2.61,1.04-2.15,0-3.88-1.71-3.88-3.86s1.73-3.88,3.88-3.88Z"/>
        <path class="cls-2" d="m121.48,60.71c2.15,0,3.87,1.73,3.87,3.88s-1.72,3.86-3.87,3.86-3.86-1.71-3.86-3.86,1.71-3.88,3.86-3.88Zm0,6.35c1.36,0,2.47-1.11,2.47-2.46s-1.12-2.49-2.47-2.49-2.46,1.13-2.46,2.49,1.11,2.46,2.46,2.46Z"/>
      </g>
      <g>
        <path class="cls-2" d="m45.54,73.15c.97,0,1.89.38,2.63,1,.09.09.1.22.01.3l-.67.7c-.09.09-.18.09-.28,0-.46-.41-1.03-.62-1.62-.62-1.34,0-2.41,1.15-2.41,2.5s1.07,2.46,2.42,2.46c.6,0,1.07-.18,1.28-.27v-.91h-.86c-.12,0-.2-.09-.2-.19v-.85c0-.12.09-.2.2-.2h2.07c.11,0,.19.1.19.2v2.75c0,.09-.04.14-.09.17,0,0-1.11.7-2.67.7-2.14,0-3.86-1.7-3.86-3.85s1.72-3.88,3.86-3.88Z"/>
        <path class="cls-2" d="m51.23,73.47c0-.11.09-.2.2-.2h3.08c1.29,0,2.35,1.03,2.35,2.31,0,.99-.66,1.8-1.59,2.17l1.47,2.73c.08.14,0,.31-.18.31h-1.13c-.1,0-.15-.05-.17-.1l-1.43-2.85h-1.19v2.74c0,.11-.1.2-.2.2h-.99c-.12,0-.2-.1-.2-.2v-7.12Zm3.16,3.23c.57,0,1.07-.49,1.07-1.1,0-.57-.49-1.04-1.07-1.04h-1.75v2.14h1.75Z"/>
        <path class="cls-2" d="m58.82,80.51l3.35-7.24c.03-.06.09-.12.18-.12h.11c.11,0,.15.05.18.12l3.31,7.24c.06.14-.02.28-.18.28h-.94c-.16,0-.24-.06-.31-.22l-.53-1.16h-3.22l-.53,1.16c-.04.11-.14.22-.31.22h-.94c-.16,0-.25-.14-.18-.28Zm4.65-2.29l-1.08-2.37h-.03l-1.05,2.37h2.16Z"/>
        <path class="cls-2" d="m68.29,73.35c0-.11.1-.19.2-.19h.16c.08,0,.13.02.18.08l4.39,4.68h.02v-4.44c0-.11.09-.2.2-.2h.99c.11,0,.2.1.2.2v7.24c0,.11-.1.19-.2.19h-.15c-.08,0-.13-.02-.18-.08l-4.41-4.86h-.02v4.63c0,.11-.09.2-.2.2h-.98c-.11,0-.2-.1-.2-.2v-7.24Z"/>
        <path class="cls-2" d="m81.31,73.15c1.09,0,1.87.34,2.6,1,.1.09.1.22.01.3l-.66.68c-.08.09-.18.09-.27,0-.45-.4-1.05-.63-1.66-.63-1.38,0-2.4,1.15-2.4,2.51s1.03,2.49,2.41,2.49c.65,0,1.19-.25,1.65-.61.09-.08.2-.06.27,0l.67.69c.09.08.06.22-.01.29-.73.71-1.66,1.04-2.61,1.04-2.15,0-3.88-1.71-3.88-3.86s1.73-3.88,3.88-3.88Z"/>
        <path class="cls-2" d="m89.9,73.15c2.15,0,3.87,1.73,3.87,3.88s-1.72,3.86-3.87,3.86-3.86-1.71-3.86-3.86,1.71-3.88,3.86-3.88Zm0,6.35c1.36,0,2.47-1.11,2.47-2.46s-1.12-2.49-2.47-2.49-2.46,1.13-2.46,2.49,1.11,2.46,2.46,2.46Z"/>
        <path class="cls-2" d="m96.55,73.47c0-.11.09-.2.2-.2h.99c.11,0,.2.1.2.2v6.04h2.74c.12,0,.2.1.2.2v.88c0,.11-.09.2-.2.2h-3.94c-.12,0-.2-.1-.2-.2v-7.12Z"/>
        <path class="cls-2" d="m106.6,73.15c2.15,0,3.87,1.73,3.87,3.88s-1.72,3.86-3.87,3.86-3.86-1.71-3.86-3.86,1.71-3.88,3.86-3.88Zm0,6.35c1.36,0,2.47-1.11,2.47-2.46s-1.12-2.49-2.47-2.49-2.46,1.13-2.46,2.49,1.11,2.46,2.46,2.46Z"/>
        <path class="cls-2" d="m114.06,73.32c.01-.09.08-.16.19-.16h.17c.09,0,.15.04.18.11l2.37,5.08h.03l2.37-5.08c.03-.06.09-.11.18-.11h.17c.12,0,.18.08.19.16l1.27,7.23c.03.15-.05.25-.19.25h-.98c-.1,0-.18-.09-.2-.16l-.63-4.08h-.03l-1.88,4.23c-.02.06-.09.12-.18.12h-.19c-.1,0-.15-.05-.18-.12l-1.9-4.23h-.03l-.62,4.08c-.01.08-.1.16-.19.16h-.97c-.14,0-.23-.1-.2-.25l1.28-7.23Z"/>
        <path class="cls-2" d="m127.86,76.98c.62.22,1.29.72,1.29,1.73,0,1.2-1.03,2.08-2.35,2.08h-2.6c-.12,0-.2-.1-.2-.2v-7.12c0-.11.09-.2.2-.2h2.46c1.28,0,2.27.86,2.27,1.99,0,.81-.52,1.4-1.08,1.68v.05Zm-1.3-.56c.55,0,.9-.43.9-.97s-.36-.91-.9-.91h-1.17v1.88h1.17Zm.15,3.1c.54,0,.95-.42.95-.98s-.41-.94-.95-.94h-1.32v1.92h1.32Z"/>
        <path class="cls-2" d="m132.01,73.47c0-.11.1-.2.2-.2h1c.11,0,.2.1.2.2v7.12c0,.11-.1.2-.2.2h-1c-.11,0-.2-.1-.2-.2v-7.12Z"/>
        <path class="cls-2" d="m135.75,80.51l3.35-7.24c.03-.06.09-.12.18-.12h.11c.11,0,.15.05.18.12l3.31,7.24c.06.14-.02.28-.18.28h-.94c-.16,0-.24-.06-.31-.22l-.53-1.16h-3.22l-.53,1.16c-.04.11-.14.22-.31.22h-.94c-.16,0-.25-.14-.18-.28Zm4.65-2.29l-1.08-2.37h-.03l-1.05,2.37h2.16Z"/>
        <path class="cls-2" d="m145.21,73.35c0-.11.1-.19.2-.19h.16c.08,0,.13.02.18.08l4.39,4.68h.02v-4.44c0-.11.09-.2.2-.2h.99c.11,0,.2.1.2.2v7.24c0,.11-.1.19-.2.19h-.15c-.08,0-.13-.02-.18-.08l-4.41-4.86h-.02v4.63c0,.11-.09.2-.2.2h-.98c-.11,0-.2-.1-.2-.2v-7.24Z"/>
        <path class="cls-2" d="m158.21,73.15c2.15,0,3.87,1.73,3.87,3.88s-1.72,3.86-3.87,3.86-3.86-1.71-3.86-3.86,1.71-3.88,3.86-3.88Zm0,6.35c1.36,0,2.47-1.11,2.47-2.46s-1.12-2.49-2.47-2.49-2.46,1.13-2.46,2.49,1.11,2.46,2.46,2.46Z"/>
      </g>
    </g>
  </g>
</svg>