<?xml version="1.0" encoding="UTF-8"?>
<svg xmlns="http://www.w3.org/2000/svg" xmlns:xlink="http://www.w3.org/1999/xlink" viewBox="0 0 487.11 532.71">
  <defs>
    <style>
      .cls-1 {
        mix-blend-mode: multiply;
        opacity: .7;
      }

      .cls-2 {
        isolation: isolate;
      }

      .cls-3 {
        fill: url(#linear-gradient);
      }
    </style>
    <linearGradient id="linear-gradient" x1="-14.48" y1="47.47" x2="557.6" y2="514.47" gradientUnits="userSpaceOnUse">
      <stop offset="0" stop-color="#93278f"/>
      <stop offset=".14" stop-color="#822e8a"/>
      <stop offset=".43" stop-color="#56417e"/>
      <stop offset=".52" stop-color="#47487b"/>
      <stop offset="1" stop-color="#0a626c"/>
    </linearGradient>
  </defs>
  <g class="cls-2">
    <g id="Capa_2" data-name="Capa 2">
      <g id="Layer_2" data-name="Layer 2">
        <g class="cls-1">
          <path class="cls-3" d="m130.82,0v61.04c-11.76.44-32.98,1.84-49.05,10.12-15.44,7.91-27.9,19.01-39.41,32.55L0,58.57C16.49,40.59,35.03,25.83,56.68,15.2,80.35,3.63,104.79.39,130.82,0Zm136.03,81v250.22h-57.1v-32.74c-16.79,11.06-23.43,19.03-35.12,23.91-11.75,4.86-24.6,7.28-38.25,7.28-30.67,0-57.2-11.9-79.61-35.69-22.36-23.8-33.57-53.36-33.57-88.73s10.87-66.79,32.53-90.22c21.68-23.44,48.02-35.13,78.97-35.13,14.25,0,27.74,2.7,40.24,8.07,12.5,5.37,18.03,13.45,34.82,24.24v-31.22h57.1Zm-54.78,123.38c0-20.7-6.17-37.45-18.51-50.22-12.33-12.82-27.93-19.22-46.8-19.22s-33.7,6.49-45.92,19.54c-12.18,13.01-18.28,29.73-18.28,50.09s6.21,37.41,18.63,50.66c12.37,13.25,27.65,19.9,45.8,19.9s34.22-6.53,46.55-19.57c12.34-13.02,18.51-30.09,18.51-51.18Zm254.28-96.18c-16.42-16.43-36.51-24.67-60.08-24.67-11.46,0-21.94,2.22-32.88,6.68-10.95,4.45-26.78,12.38-35.17,23.79v-33h-57.1v250.22h57.1v-99.31c0-24.71-.68-40.79,1.07-48.2,3.34-14.24,7.7-25.42,16.38-33.5,8.63-8.05,19.02-12.1,31.07-12.1,9.27,0,17.08,2.46,23.41,7.31,6.33,4.86,10.82,11.94,13.37,21.25,2.5,9.32,3.89,28.14,3.89,56.51l-.2,103.63c-13.77,75.6-88.46,144.8-172.54,144.8-49.27,0-93.76-22.61-124.95-56.11-18.95-20.41-30.21-51.55-37.41-79.32-14.54-5.47-28.52-12.34-38.99-22.12-17.27-16.14-28.22-34.38-30.28-42.33-.08,10.26.1,19.22.1,28.26,0,29.33,5.45,57.78,15.39,83.6,33.43,86.75,117.6,149.11,216.12,149.11,118.06,0,217.27-94.48,231.47-205.89l.96-156.58c0-27.39-6.95-48.03-20.76-62.04Z"/>
        </g>
      </g>
    </g>
  </g>
</svg>