<?xml version="1.0" encoding="UTF-8"?>
<svg id="Layer_3" data-name="Layer 3" xmlns="http://www.w3.org/2000/svg" viewBox="0 0 4010.73 1080">
  <defs>
    <style>
      .cls-1 {
        fill: #01686d;
      }

      .cls-2 {
        fill: #b1b1b1;
      }
    </style>
  </defs>
  <polygon class="cls-1" points=".84 1.09 323.99 1.09 323.99 122.74 123.91 122.74 123.91 248.52 323.99 248.52 323.99 369.87 123.91 369.87 123.91 668.44 .84 668.44 .84 1.09"/>
  <path class="cls-1" d="m423.34.3c16.55,0,30.75,5.99,42.59,17.99,11.84,11.99,17.76,26.52,17.76,43.56s-5.87,31.19-17.58,43.06c-11.74,11.89-25.77,17.82-42.09,17.82s-31.08-6.06-42.92-18.17c-11.86-12.09-17.78-26.81-17.78-44.09s5.87-30.79,17.6-42.53C392.64,6.17,406.76.3,423.34.3Z"/>
  <rect class="cls-1" x="362.86" y="175.36" width="120.83" height="493.08"/>
  <path class="cls-1" d="m523.94,175.51h120.87v60.64c27.4-23.12,52.21-39.16,74.48-48.22,22.24-9.03,44.99-13.55,68.29-13.55,47.74,0,88.27,16.69,121.57,50.04,27.99,28.32,42,70.24,42,125.72v318.29h-119.53v-210.93c0-57.47-2.59-95.62-7.74-114.5-5.15-18.89-14.11-33.25-26.93-43.12-12.8-9.88-28.64-14.82-47.47-14.82-24.43,0-45.43,8.19-62.95,24.54-17.52,16.36-29.68,38.98-36.43,67.87-3.54,15.05-5.3,47.63-5.3,97.73v193.23h-120.87V175.51Z"/>
  <path class="cls-1" d="m2467.53,271.78l-100.63,55.34c-18.91-19.76-37.59-33.52-56.05-41.18-18.48-7.65-40.13-11.5-64.94-11.5-45.2,0-81.78,13.47-109.7,40.45-27.92,26.95-41.88,61.49-41.88,103.63s13.45,74.41,40.32,100.35c26.9,25.92,62.21,38.89,105.95,38.89,54.08,0,96.17-18.45,126.31-55.34l95.31,65.25c-51.65,67.17-124.55,100.76-218.69,100.76-84.71,0-151.04-25.07-199-75.25-47.95-50.17-71.93-108.91-71.93-176.19,0-46.62,11.66-89.59,34.99-128.83,23.3-39.25,55.83-70.11,97.59-92.53,41.77-22.42,88.48-33.64,140.12-33.64,47.8,0,90.74,9.53,128.81,28.55,38.09,19.04,69.2,46.1,93.44,81.23Z"/>
  <path class="cls-1" d="m2570.36,1.09c16.8,0,31.23,6.08,43.24,18.25,12,12.17,18.03,26.93,18.03,44.25s-5.97,31.66-17.86,43.7c-11.9,12.06-26.15,18.09-42.71,18.09s-31.56-6.17-43.58-18.45c-12.03-12.29-18.03-27.19-18.03-44.76s5.94-31.24,17.84-43.19c11.9-11.93,26.26-17.9,43.06-17.9Z"/>
  <rect class="cls-1" x="2511.79" y="175.33" width="120.87" height="493.11"/>
  <path class="cls-1" d="m3050,174.18h120.85v492.13h-120.85v-63.32c-23.62,22.43-47.25,38.59-70.97,48.48-23.76,9.88-49.46,14.84-77.18,14.84-62.2,0-116-24.14-161.39-72.4-45.4-48.24-68.09-108.22-68.09-179.96s21.97-135.31,65.88-182.82c43.93-47.53,97.28-71.27,160.07-71.27,28.87,0,56.01,5.46,81.36,16.39,25.34,10.92,48.78,27.3,70.32,49.12v-51.18Zm-137.19,97.22c-37.37,0-68.4,13.22-93.12,39.63-24.72,26.4-37.03,60.28-37.03,101.59s12.54,75.85,37.71,102.71c25.13,26.85,56.1,40.29,92.86,40.29s69.42-13.21,94.43-39.63c24.99-26.42,37.51-61.01,37.51-103.82s-12.53-75.85-37.51-101.81c-25-25.95-56.61-38.96-94.84-38.96Z"/>
  <polygon class="cls-1" points="3273.97 1.09 3394.82 1.09 3394.82 174.18 3466.54 174.18 3466.54 278.23 3394.82 278.23 3394.82 666.02 3273.97 666.02 3273.97 278.23 3212.02 278.23 3212.02 174.18 3273.97 174.18 3273.97 1.09"/>
  <path class="cls-1" d="m4012.4,450.2h-388.26c5.62,34.22,20.6,61.45,44.95,81.65,24.33,20.22,55.4,30.31,93.17,30.31,45.16,0,83.97-15.76,116.45-47.35l101.82,47.82c-25.39,36-55.78,62.63-91.19,79.9-35.44,17.27-77.48,25.91-126.16,25.91-75.57,0-137.11-23.85-184.61-71.51-47.52-47.68-71.27-107.35-71.27-179.08s23.68-134.49,71.04-183.05c47.37-48.52,106.78-72.81,178.2-72.81,75.85,0,137.52,24.28,185.06,72.81,47.5,48.57,71.28,112.67,71.28,192.35l-.45,23.05Zm-121.3-95.19c-7.98-26.85-23.71-48.71-47.23-65.52-23.5-16.83-50.75-25.24-81.81-25.24-33.71,0-63.27,9.46-88.68,28.34-15.99,11.82-30.76,32.61-44.36,62.43h262.08Z"/>
  <g>
    <path class="cls-2" d="m1063.72,31.05c-43.87,21.54-83.18,51.47-116.6,87.92l85.03,91.49c23.31-27.45,51.59-49.94,82.89-65.99,32.58-16.78,70.43-19.61,102.42-20.5V.24c-56.99.8-105.74,7.35-153.74,30.81Z"/>
    <path class="cls-2" d="m1372.44,173.22v54.51c-24-21.87-46.17-38.25-71.51-49.13-25.33-10.9-53.13-16.37-82.02-16.37-62.75,0-116.37,23.69-160.32,71.21-43.91,47.51-66.07,108.51-66.07,182.89s22.68,131.62,68.01,179.87c45.42,48.23,99.17,72.35,161.36,72.35,27.68,0,54.63-4.9,78.45-14.76,23.71-9.91,40.11-26.05,72.11-48.48v65.85h122.99V173.22h-122.99Zm-34.67,345.08c-25,26.44-56.46,39.68-94.37,39.68s-67.77-13.48-92.85-40.33c-25.18-26.87-37.77-61.08-37.77-102.7s12.35-75.18,37.05-101.55c24.76-26.46,55.73-39.61,93.08-39.61s69.86,12.97,94.86,38.96c25.02,25.89,37.53,59.84,37.53,101.8s-12.51,77.36-37.53,103.75Z"/>
    <path class="cls-2" d="m1932.84,345.33l-1.58,259.85c-.75,123.11-48.26,241.75-134.2,329.9-86.01,88.23-205.02,145.04-335.38,145.04-199.73,0-370.34-126.41-438.11-302.27-20.17-52.34-31.21-110.02-31.21-169.47,0-18.09-.36-36.03-.22-56.5,0-.12.17-.16.21-.04,4.65,16.48,26.71,52.85,61.19,85.07,21.21,19.81,49.52,33.73,78.97,44.82.03.01.06.04.07.07,14.58,56.3,37.41,119.4,75.82,160.75,63.22,67.92,153.41,113.76,253.28,113.76,51.49,0,101.24-12.8,146.37-34.9,124.92-61.15,203.26-189.04,203.52-328.12l.27-140.59c0-33.99-.45-80.69-.45-83.49,0-48.87-41.62-88.99-90.49-88.99s-86.49,37.5-86.49,88.99v301.86c0,.06-.05.11-.11.11h-114.77c-.06,0-.11-.05-.11-.11V173.33c0-.06.05-.11.11-.11h114.77c.06,0,.11.05.11.11v57.68c0,.1.13.15.19.06,16.06-23,47.31-38.97,69.41-47.96,22.18-9.04,42.58-13.54,65.8-13.54,47.77,0,88.06,16.69,121.36,49.99,28,28.41,41.67,70.25,41.67,125.77Z"/>
  </g>
</svg>