<?xml version="1.0" encoding="UTF-8"?>
<svg id="Capa_2" data-name="Capa 2" xmlns="http://www.w3.org/2000/svg" viewBox="0 0 542.73 86.45">
  <defs>
    <style>
      .cls-1 {
        fill: #fff;
      }
    </style>
  </defs>
  <g id="Layer_3" data-name="Layer 3">
    <g>
      <polygon class="cls-1" points="134.51 .03 149.62 .03 130.85 15.01 120.5 15.08 134.51 .03"/>
      <polygon class="cls-1" points="412.84 .03 427.98 .03 409.21 15.01 398.84 15.08 412.84 .03"/>
      <path class="cls-1" d="m47.47,22.2h15.19v63.72h-15.19v-7.95c-2.97,2.81-5.93,4.85-8.92,6.08-2.98,1.24-6.21,1.87-9.7,1.87-7.8,0-14.57-3.04-20.28-9.1C2.85,70.74,0,63.2,0,54.17s2.75-17.02,8.29-23.01c5.53-6,12.23-8.97,20.12-8.97,3.64,0,7.04.69,10.23,2.07,3.18,1.37,6.14,3.44,8.84,6.18v-8.25Zm-15.96,14.03c-4.71,0-8.59,1.67-11.7,4.99-3.1,3.34-4.66,7.59-4.66,12.78s1.58,9.54,4.74,12.92c3.15,3.39,7.05,5.07,11.67,5.07s8.72-1.66,11.88-4.99c3.14-3.31,4.72-7.66,4.72-13.05s-1.58-9.55-4.72-12.8c-3.16-3.28-7.12-4.92-11.93-4.92Z"/>
      <path class="cls-1" d="m111.18,32.22l-9.4,9.41c-3.82-3.79-7.28-5.67-10.4-5.67-1.71,0-3.04.35-4,1.07-.98.73-1.46,1.65-1.46,2.71,0,.82.31,1.57.92,2.27.61.68,2.12,1.62,4.54,2.8l5.56,2.79c5.86,2.89,9.88,5.84,12.08,8.85,2.18,3.02,3.28,6.55,3.28,10.58,0,5.38-1.97,9.88-5.92,13.49-3.95,3.62-9.26,5.4-15.89,5.4-8.82,0-15.87-3.44-21.13-10.36l9.34-10.19c1.78,2.08,3.86,3.76,6.28,5.04,2.38,1.28,4.5,1.93,6.36,1.93,2,0,3.62-.48,4.83-1.44,1.23-.98,1.84-2.08,1.84-3.36,0-2.34-2.2-4.61-6.61-6.84l-5.11-2.56c-9.81-4.93-14.7-11.11-14.7-18.54,0-4.81,1.85-8.89,5.53-12.3,3.68-3.39,8.41-5.09,14.16-5.09,3.93,0,7.63.86,11.1,2.59,3.46,1.74,6.4,4.21,8.81,7.44Z"/>
      <rect class="cls-1" x="119.87" y="21.67" width="15.19" height="64.25"/>
      <path class="cls-1" d="m211.86.92h15.2v84.85h-15.2v-7.8c-2.97,2.81-5.93,4.85-8.92,6.08-2.97,1.25-6.22,1.87-9.7,1.87-7.81,0-14.58-3.04-20.29-9.1-5.69-6.08-8.55-13.62-8.55-22.65s2.75-17.02,8.28-23.01c5.53-6,12.22-8.97,20.11-8.97,3.63,0,7.03.69,10.23,2.07,3.19,1.37,6.12,3.44,8.84,6.18V.92Zm-15.96,35.31c-4.72,0-8.61,1.67-11.71,4.99-3.12,3.34-4.65,7.59-4.65,12.78s1.58,9.54,4.74,12.92c3.16,3.39,7.04,5.07,11.67,5.07s8.74-1.66,11.87-4.98c3.15-3.32,4.72-7.67,4.72-13.06s-1.57-9.55-4.72-12.8c-3.13-3.27-7.1-4.92-11.91-4.92Z"/>
      <path class="cls-1" d="m297.75,58.46h-48.78c.7,4.31,2.59,7.74,5.65,10.29,3.05,2.54,6.95,3.8,11.7,3.8,5.69,0,10.55-1.98,14.64-5.95l12.79,6.02c-3.18,4.52-7.01,7.88-11.45,10.05-4.46,2.17-9.73,3.26-15.86,3.26-9.5,0-17.24-3.01-23.21-9-5.97-6-8.96-13.52-8.96-22.54s2.99-16.92,8.91-23.03c5.96-6.11,13.44-9.16,22.41-9.16,9.53,0,17.28,3.05,23.26,9.16,5.97,6.11,8.97,14.18,8.97,24.22l-.08,2.89Zm-15.19-11.98c-1-3.38-2.97-6.13-5.92-8.25-2.96-2.11-6.38-3.16-10.28-3.16-4.25,0-7.96,1.19-11.15,3.55-2.01,1.5-3.87,4.12-5.58,7.87h32.93Z"/>
      <path class="cls-1" d="m327.89,21.67h5.39c.02-7.95.15-9.01.38-10.45.4-3.35,1.8-5.98,4.19-7.93,2.39-1.96,5.79-2.93,10.17-2.93,3.15,0,6.71.73,10.67,2.17v11.59c-2.2-.63-3.98-.94-5.4-.94-1.76,0-3.08.37-3.88,1.12-.6.55-.9,1.7-.9,3.44l-.05,3.94h9.62v12.88h-9.62v51.37h-15.18v-51.37h-5.39v-12.88Z"/>
      <path class="cls-1" d="m412.77,22.19h15.21v64.25h-15.21v-7.97c-2.96,2.81-5.94,4.85-8.91,6.09-2.98,1.24-6.22,1.88-9.7,1.88-7.81,0-14.58-3.04-20.27-9.11-5.71-6.07-8.56-13.61-8.56-22.64s2.75-17.03,8.28-23.02c5.53-5.97,12.22-8.97,20.11-8.97,3.64,0,7.03.68,10.23,2.07,3.17,1.36,6.11,3.44,8.82,6.18v-8.77Zm-15.97,14.56c-4.69,0-8.59,1.67-11.69,5-3.11,3.31-4.66,7.58-4.66,12.77s1.58,9.56,4.73,12.92c3.15,3.4,7.05,5.08,11.67,5.08s8.73-1.66,11.87-4.98c3.13-3.32,4.72-7.67,4.72-13.07s-1.59-9.54-4.72-12.81c-3.14-3.26-7.11-4.9-11.93-4.9Z"/>
      <path class="cls-1" d="m497.4,36.01l-12.66,6.95c-2.35-2.48-4.71-4.21-7.03-5.17-2.34-.96-5.04-1.45-8.16-1.45-5.69,0-10.29,1.71-13.78,5.09-3.52,3.4-5.27,7.75-5.27,13.03s1.71,9.38,5.06,12.63c3.39,3.26,7.83,4.89,13.34,4.89,6.77,0,12.07-2.3,15.85-6.96l11.99,8.22c-6.5,8.45-15.67,12.67-27.5,12.67-10.63,0-18.98-3.15-25-9.47-6.04-6.31-9.05-13.71-9.05-22.17,0-5.87,1.48-11.28,4.4-16.2,2.92-4.95,7.02-8.83,12.25-11.65,5.27-2.83,11.13-4.24,17.62-4.24,6.02,0,11.41,1.2,16.19,3.6,4.8,2.39,8.71,5.79,11.74,10.22Z"/>
      <path class="cls-1" d="m512.66,0c2.09,0,3.88.77,5.37,2.28,1.5,1.5,2.26,3.34,2.26,5.5s-.75,3.94-2.24,5.44c-1.47,1.51-3.25,2.25-5.31,2.25s-3.92-.77-5.42-2.28c-1.5-1.54-2.24-3.39-2.24-5.58s.74-3.89,2.22-5.37c1.48-1.49,3.26-2.24,5.35-2.24Z"/>
      <rect class="cls-1" x="505.09" y="21.67" width="15.19" height="64.25"/>
      <path class="cls-1" d="m527.54,0h15.19v85.92h-15.19V0Z"/>
    </g>
  </g>
</svg>