<?xml version="1.0" encoding="UTF-8"?>
<svg id="Capa_2" data-name="Capa 2" xmlns="http://www.w3.org/2000/svg" viewBox="0 0 121.76 158.58">
  <defs>
    <style>
      .cls-1 {
        fill: #fff;
        fill-rule: evenodd;
      }
    </style>
  </defs>
  <g id="Layer_3" data-name="Layer 3">
    <g>
      <path class="cls-1" d="m61.82,0c3.13,2.59,6.1,5.43,9.43,7.73,9.63,6.65,20.45,10.4,31.96,12.07,4.94.71,9.96.93,14.95,1.26,2.71.17,3.59.92,3.59,3.67.01,9.76.02,19.53,0,29.29-.01,7.75.03,15.49-.12,23.24-.24,12.76-3.25,24.91-8.73,36.4-8.07,16.9-20.23,30.06-36.81,38.88-4.43,2.35-9.25,3.98-13.93,5.84-.74.29-1.76.24-2.53,0-16.61-5.21-30.14-14.88-40.79-28.56-9.41-12.08-15.2-25.81-17.57-40.9-.81-5.17-1.12-10.47-1.17-15.72C-.06,57.2.03,41.19.03,25.18c0-3.38.66-4.03,4.08-4.1,12.7-.28,25.01-2.42,36.64-7.76,6.62-3.04,12.65-6.94,17.82-12.12.43-.43.93-.8,1.4-1.2h1.86ZM5.45,26.4c-.03.58-.06.99-.06,1.4,0,15.65-.07,31.3.05,46.95.04,4.37.38,8.78,1.05,13.1,1.93,12.61,6.46,24.26,13.71,34.79,9.81,14.26,22.84,24.37,39.22,30.07.89.31,2.05.29,2.95,0,8.59-2.78,16.37-7.14,23.3-12.86,20.06-16.59,29.99-38.21,30.65-64.02.41-16,.09-32.02.09-48.03,0-.45-.06-.89-.1-1.37-20.62-.78-39.57-5.95-55.44-19.92-7.55,6.83-16.24,11.64-25.82,14.88-9.55,3.23-19.39,4.71-29.59,5Z"/>
      <path class="cls-1" d="m92.6,90.87c.59-6.46.37-12.88-.97-19.25-2.57-12.13-13.3-22.82-25.46-24.72-6.18-.96-12.15.32-17.55,3.56-9.2,5.53-14.01,13.76-14.32,24.47-.08,2.69.4,5.47,1.09,8.09,1.28,4.79,1.71,9.63,1.76,14.54.04,4.29-.02,8.58-.07,12.86-.02,2.08-1.05,3.32-2.67,3.29-1.63-.02-2.62-1.27-2.63-3.35,0-1.96-.03-3.92.02-5.89.19-7.76-.46-15.36-2.19-23.01-3.58-15.76,6.07-32.4,21.22-37.99,14.63-5.39,28.1-.29,38.1,10.97,5.42,6.1,7.79,13.46,8.85,21.38,1.2,8.91.3,17.84.22,26.76-.02,1.9-.93,2.96-2.37,3.11-1.89.21-3.04-1.09-3.03-3.37.02-3.82,0-7.64,0-11.46Z"/>
      <path class="cls-1" d="m52.91,108.32c0-8.25-.25-16.51-1.92-24.63-.48-2.32-1.21-4.58-1.58-6.91-1.05-6.73,3.72-13.3,10.48-14.83,6.42-1.45,13.21,1.9,15.54,8.46,1.49,4.18,2.39,8.64,3,13.05.73,5.25.87,10.58,1.25,15.88.03.45,0,.93-.1,1.38-.31,1.39-1.21,2.18-2.63,2.15-1.33-.03-2.33-.76-2.45-2.12-.26-2.77-.25-5.57-.57-8.33-.65-5.47-1.37-10.93-2.23-16.37-.25-1.6-.88-3.19-1.61-4.65-1.89-3.76-6.28-5.33-10.31-3.83-3.67,1.38-6.1,5.59-4.99,9.41,3.22,11.14,3.6,22.56,3.6,34.04,0,2.32-.02,4.64-.08,6.97-.01.66-.06,1.36-.29,1.98-.41,1.14-1.41,1.86-2.51,1.62-.87-.19-1.75-.95-2.32-1.69-.37-.49-.28-1.39-.28-2.1-.03-3.15-.01-6.3-.01-9.45Z"/>
      <path class="cls-1" d="m63.85,37.23c-8.21.22-15.07,1.73-21.02,6.17-.54.4-1.09.79-1.68,1.11-1.36.74-2.75.44-3.57-.72-.86-1.2-.71-2.74.67-3.66,2.66-1.76,5.26-3.81,8.19-4.92,17.49-6.55,33.21-3.43,46.9,9.31,4.2,3.91,7.24,8.72,9.44,14.03,2.63,6.34,4.83,12.81,5.61,19.69.23,2.05-.46,3.37-2.12,3.66-1.65.29-2.93-.84-3.18-2.96-.81-6.99-3.05-13.56-5.96-19.89-6.07-13.22-19.74-21.88-33.29-21.83Z"/>
      <path class="cls-1" d="m84.72,99.36c-.08-9.18-.35-18.37-2.73-27.31-1.55-5.8-4.35-10.79-9.67-14.01-3.83-2.32-7.97-2.93-12.35-2.16-1.99.35-3.44-.45-3.7-2.04-.27-1.67.74-2.84,2.76-3.23,9.98-1.91,20.27,3.17,25.05,12.28,2.63,5.01,3.88,10.37,4.7,15.91,1.57,10.62,1.49,21.29,1.23,31.97-.04,1.77-1.18,2.99-2.71,2.96-1.55-.03-2.57-1.21-2.58-3.06-.01-3.76,0-7.53,0-11.3Z"/>
      <path class="cls-1" d="m50.76,52.78c.51.42,1.57.89,1.82,1.63.28.82.06,2.05-.41,2.81-.6.97-1.75,1.59-2.51,2.49-3.96,4.64-5.89,10.13-5.51,16.13.27,4.33,1.53,8.59,2.25,12.89,1.52,9.11,1.58,18.29,1.25,27.48-.06,1.75-1.2,2.81-2.7,2.78-1.49-.04-2.59-1.17-2.61-2.9-.04-3.25.02-6.51.04-9.76.04-8.29-1.08-16.4-2.95-24.49-2.22-9.61.08-18.41,6.53-25.97,1.14-1.35,2.4-2.73,4.8-3.1Z"/>
      <path class="cls-1" d="m18.54,75.67c.05-5.76.89-13.08,4.19-19.94,1.77-3.66,4.1-6.91,6.95-9.78,1.23-1.25,2.73-1.34,3.86-.33,1.2,1.08,1.28,2.57-.02,3.97-2.61,2.82-4.87,5.86-6.39,9.41-2.27,5.3-3.1,10.86-3.2,16.58-.11,6.29.66,12.44,2.38,18.48.37,1.3.18,2.46-.99,3.3-.94.67-2.01.78-2.86.02-.61-.54-1.09-1.37-1.33-2.16-1.73-5.81-2.54-11.77-2.6-19.55Z"/>
      <path class="cls-1" d="m68.62,107.54c0,3.71.03,7.44-.01,11.15-.02,1.8-1.16,2.98-2.7,2.96-1.52-.03-2.58-1.22-2.58-3.06,0-5.78.14-11.57.03-17.35-.14-7.28-.64-14.53-2.13-21.68-.23-1.11-.6-2.18-.86-3.28-.43-1.8.24-3.11,1.78-3.58,1.46-.45,2.98.34,3.32,2.16,1.03,5.51,2.13,11.03,2.72,16.59.56,5.33.51,10.72.73,16.08h-.29Z"/>
      <path class="cls-1" d="m74.18,111.1c0-.98-.06-1.96,0-2.93.1-1.46,1.06-2.2,2.41-2.39,1.19-.17,2.56.75,2.68,2.07.19,2.14.25,4.33.04,6.47-.13,1.35-1.28,2.08-2.72,1.95-1.43-.12-2.26-.95-2.37-2.38-.07-.92-.01-1.86-.01-2.78h-.03Z"/>
    </g>
  </g>
</svg>