<?xml version="1.0" encoding="UTF-8"?>
<svg id="Capa_2" data-name="Capa 2" xmlns="http://www.w3.org/2000/svg" viewBox="0 0 158.59 118.23">
  <defs>
    <style>
      .cls-1 {
        fill: #fff;
        fill-rule: evenodd;
      }
    </style>
  </defs>
  <g id="Layer_3" data-name="Layer 3">
    <g>
      <path class="cls-1" d="m0,29.99c.25-.72.49-1.43.74-2.15,2.04-5.78,7.2-9.21,13.97-9.21,16.77-.01,33.54,0,50.31,0h2.19c0-2.13-.02-4.13,0-6.12.05-6.55,4.06-11.27,10.48-12.36,6.64-1.13,13.45,4.38,13.67,11.12.08,2.37.01,4.73.01,7.36h52.06c8.08,0,12.6,3.38,14.95,11.15.03.08.14.14.21.21v76.81c-.22.67-.45,1.34-.67,2.02-1.8,5.45-6.89,9.35-12.74,9.37-17.19.08-34.37.04-51.56.03-2.12,0-3.47-1.26-3.48-3.12-.02-1.82,1.2-3.01,3.26-3.17.51-.04,1.03-.02,1.55-.02,16.31,0,32.62-.1,48.93.06,5.71.05,8.58-3.9,8.56-8.5-.09-23.43-.04-46.86-.04-70.29,0-4.13-1.98-6.97-5.55-7.94-.59-.16-1.22-.22-1.83-.22-17.55-.02-35.1-.01-52.65-.01-.25,0-.5.03-.89.06-.24,4.02-1.87,7.34-5.16,9.72-2.25,1.62-4.8,2.4-7.56,2.26-5.39-.28-11.08-4.2-11.67-12.05h-1.64c-17.03,0-34.06.09-51.09-.05-4.63-.04-8.21,3.31-8.19,8.23.07,23.53.03,47.07.03,70.61,0,5.14,3.02,8.14,8.2,8.14,16.47.01,32.93,0,49.4.01.67,0,1.35,0,2,.11,1.61.25,2.62,1.39,2.66,2.92.04,1.55-.87,2.79-2.41,3.15-.59.14-1.23.13-1.84.13-16.51.01-33.03.01-49.55,0-7.5,0-12.47-3.82-14.4-11.05-.04-.14-.17-.25-.26-.37V29.99Zm85.19-11.53c0-2.07.03-4.13,0-6.19-.06-3.41-2.55-5.92-5.83-5.95-3.35-.03-5.91,2.51-5.94,5.99-.04,4.13-.03,8.25,0,12.38.03,3.5,2.54,6.04,5.9,6.03,3.35-.01,5.83-2.56,5.87-6.07.02-2.06,0-4.12,0-6.19Z"/>
      <path class="cls-1" d="m70.56,70.08c0,7.59,0,15.17,0,22.76,0,4.66-2.51,7.13-7.2,7.14-13.78,0-27.56,0-41.34,0-4.55,0-7.06-2.52-7.06-7.11,0-15.23,0-30.46,0-45.69,0-4.65,2.51-7.16,7.19-7.17,13.73-.01,27.46-.01,41.19,0,4.75,0,7.22,2.52,7.22,7.3,0,7.59,0,15.18,0,22.77Zm-49.12-23.65v39.15c1.77-1.47,3.39-3,5.19-4.26,1.79-1.24,3.77-2.21,5.66-3.3-5.17-7.71-4.94-14.75.67-20.1,4.96-4.75,12.61-5.26,18.17-1.21,2.77,2.02,4.61,4.71,5.43,8.03,1.23,5.02-.14,9.45-3.35,13.23,2.04,1.18,4.03,2.17,5.84,3.44,1.78,1.25,3.35,2.79,5.09,4.25v-39.23H21.44Zm40.29,47.26c-2.81-6.63-12.1-11.79-19.91-11.2-7.95.59-16.59,5.96-17.96,11.2h37.88Zm-18.91-33.4c-4.42-.02-8,3.48-8.05,7.87-.05,4.34,3.57,7.99,7.94,8.01,4.39.02,8.01-3.53,8.06-7.89.05-4.35-3.55-7.97-7.95-7.99Z"/>
      <path class="cls-1" d="m115.42,74.88c-7.85,0-15.69.02-23.54,0-2.54,0-4.11-2.01-3.31-4.16.46-1.22,1.32-1.94,2.65-2.03.41-.03.82-.04,1.24-.04h45.99c.31,0,.62,0,.93.01,1.93.1,3.17,1.31,3.17,3.08,0,1.83-1.29,3.1-3.29,3.13-2.32.04-4.65.01-6.97.02-5.62,0-11.25,0-16.88,0Z"/>
      <path class="cls-1" d="m115.68,55.41c7.79,0,15.59-.01,23.38.01,2.33,0,3.72,1.46,3.45,3.56-.19,1.45-1.04,2.33-2.46,2.6-.6.11-1.24.1-1.85.1h-45.38c-.36,0-.72.01-1.08-.01-2.01-.1-3.37-1.34-3.39-3.08-.02-1.78,1.45-3.15,3.49-3.16,5.47-.02,10.95-.01,16.42-.01h7.43Z"/>
      <path class="cls-1" d="m115.6,81.77c5,0,10.01-.02,15.01.01,2.78.02,4.44,2.23,3.39,4.46-.71,1.52-2.06,1.88-3.6,1.87-5.21,0-10.42,0-15.63,0-4.59,0-9.19,0-13.78-.01-.66,0-1.35-.03-1.99-.2-1.48-.38-2.26-1.43-2.3-2.92-.04-1.43.71-2.48,2.07-2.95.62-.21,1.31-.26,1.97-.26,4.95-.02,9.91-.02,14.86-.02Z"/>
      <path class="cls-1" d="m82.38,115.07c0,1.71-1.46,3.16-3.14,3.13-1.69-.03-3.08-1.5-3.04-3.22.03-1.69,1.36-2.99,3.06-3.01,1.76-.02,3.12,1.34,3.12,3.1Z"/>
    </g>
  </g>
</svg>