<?xml version="1.0" encoding="UTF-8"?>
<svg id="Capa_2" data-name="Capa 2" xmlns="http://www.w3.org/2000/svg" viewBox="0 0 142.71 142.72">
  <defs>
    <style>
      .cls-1 {
        fill: #fff;
        fill-rule: evenodd;
      }
    </style>
  </defs>
  <g id="Layer_3" data-name="Layer 3">
    <g>
      <path class="cls-1" d="m71.17,142.72H14.63C6.19,142.72,0,136.54,0,128.11,0,103.38,0,78.65,0,53.92c0-7.39,3.2-13.11,9.22-17.32,3.6-2.52,7.21-5.03,10.74-7.65.58-.43,1.03-1.41,1.05-2.16.09-4.22.03-8.44.04-12.66C21.07,6.08,27.12.03,35.13.03,55.76.03,76.39.04,97.02,0c1.51,0,2.52.51,3.52,1.61,6.52,7.16,13.08,14.29,19.7,21.37,1.02,1.08,1.64,2.15,1.4,3.62-.2,1.23.36,1.94,1.35,2.61,3.68,2.51,7.36,5.03,10.94,7.67,5.6,4.12,8.74,9.66,8.75,16.7.04,24.96.03,49.93.01,74.9,0,7.94-6.32,14.24-14.28,14.24-19.08.01-38.17,0-57.25,0Zm-19.68-50.41c-.34.42-.65.86-1.01,1.25-10.79,11.32-21.58,22.63-32.37,33.96-.49.52-.94,1.3-1.54,1.43-1.06.25-2.35.43-3.29.04-1.29-.53-1.51-1.95-1.06-3.24.22-.63.76-1.18,1.25-1.69,7.62-8.02,15.26-16.01,22.88-24.02,3.48-3.65,6.96-7.31,10.58-11.12-13.74-9.71-27.36-19.33-41.15-29.07-.05.55-.08.73-.08.91,0,22.48-.02,44.95,0,67.43,0,5.16,3.73,8.83,8.96,8.83,37.75.02,75.51.02,113.26,0,5.4,0,9.05-3.69,9.06-9.1.02-22.18,0-44.36,0-66.53,0-.44-.09-.86-.15-1.47-13.78,9.74-27.38,19.35-41.04,29.01.52.56.84.91,1.16,1.25,9.85,10.33,19.7,20.65,29.54,30.97,1.19,1.25,2.44,2.45,3.52,3.79.96,1.2.9,2.54-.15,3.73-.99,1.11-2.64,1.21-3.87.26-.42-.32-.77-.73-1.14-1.11-8.45-8.87-16.89-17.74-25.34-26.6-2.82-2.96-5.65-5.9-8.44-8.82-13.19,8.68-26.23,8.66-39.6-.08Zm-30.43-57.03c-3.48,2.5-6.69,4.71-9.8,7.05-2.92,2.2-4.54,5.22-5.28,8.8-.27,1.28.1,1.91,1.11,2.61,16.42,11.54,32.79,23.15,49.21,34.68,8.98,6.31,21.07,6.3,30.1,0,9.45-6.59,18.84-13.27,28.27-19.88.92-.64,1.29-1.31,1.28-2.46-.05-11.83-.03-23.66-.03-35.49v-2.04c-1.57,0-2.93.02-4.28,0-1.78-.03-3.6.14-5.33-.2-7.15-1.39-11.53-6.94-11.5-14.36.01-2.71,0-5.42,0-8.19-.62-.04-1.02-.09-1.43-.09-19.38,0-38.75-.02-58.13.01-5,0-8.47,3.52-8.49,8.57-.03,10.82,0,21.64-.01,32.45,0,.59.18,1.3-.07,1.75-.49.87-1.09,2-1.9,2.27-.81.27-2.15-.11-2.85-.69-.59-.49-.83-1.67-.85-2.56-.08-3.95-.04-7.91-.04-12.25Zm100.66,28.25c4.12-2.91,7.94-5.61,11.77-8.32,3.86-2.73,4.1-3.57,1.99-7.86-.54-1.11-1.14-2.33-2.05-3.09-3.72-3.07-7.57-5.97-11.71-9.18v28.45Zm-20.89-53c-1.54,8.39,3.42,13.74,11.13,12.06-3.72-4.03-7.38-7.99-11.13-12.06Z"/>
      <path class="cls-1" d="m77.03,63.25c-2.72,2.25-5.71,3.48-9.11,3.28-5.1-.31-9.14-4.2-10.36-10-1.11-5.24-.43-10.3,2.12-15.03,3.65-6.77,10.35-8.48,16.89-4.4.35.22.7.43,1.26.77.11-1,.22-1.86.3-2.72.18-1.93,1.36-3.1,3.05-2.99,1.61.1,2.74,1.33,2.65,3.17-.24,4.99-.57,9.97-.88,14.95-.18,2.84-.42,5.69-.59,8.53-.04.69.05,1.4.09,2.23,2.58-.06,4.42-1.25,5.9-3.04,5.73-6.94,5.38-16.96-.83-24.22-7.58-8.87-21.49-9.82-31.01-2.13-12.92,10.44-11.07,32.29,3.47,39.95,6.93,3.65,14.22,3.32,21.46.94,2.63-.86,5.13-2.15,7.63-3.36,2.07-1,3.6-.82,4.51.75.88,1.52.27,3.17-1.63,4.25-8.42,4.78-17.38,7.11-27.03,5.14-11.61-2.38-18.98-9.67-21.77-21-3.06-12.41.08-23.34,10.23-31.48,14.57-11.68,38.92-6.86,44.12,14.45,1.91,7.85.15,15.04-5.34,21.01-1.55,1.68-3.73,2.97-5.86,3.87-3.84,1.62-6.69.59-9.25-2.92Zm.05-14.56c-.3-.93-.63-2.77-1.47-4.35-1.23-2.35-3.39-3.65-6.09-3.65-2.62.01-3.98,1.89-4.98,3.98-1.73,3.59-2.17,7.35-1.16,11.24.57,2.16,1.65,4.09,3.91,4.68,2.51.66,4.68-.38,6.4-2.22,2.3-2.46,3.18-5.49,3.38-9.68Z"/>
    </g>
  </g>
</svg>