<?xml version="1.0" encoding="UTF-8"?>
<svg id="Capa_2" data-name="Capa 2" xmlns="http://www.w3.org/2000/svg" viewBox="0 0 146.89 121.58">
  <defs>
    <style>
      .cls-1 {
        fill: #fff;
        fill-rule: evenodd;
      }
    </style>
  </defs>
  <g id="Layer_3" data-name="Layer 3">
    <g>
      <path class="cls-1" d="m146.89,29.83v82.33c-.07.07-.16.13-.19.21-2.03,6.46-5.76,9.2-12.56,9.2-40.65,0-81.31,0-121.96,0-6.16,0-10.26-3.12-11.94-9.07-.04-.12-.16-.23-.24-.34V29.83c.05-.08.14-.15.16-.24,1.96-6.42,5.7-9.22,12.38-9.22,19.35,0,38.71,0,58.06.01.93,0,1.5-.04,1.75-1.24,1.84-8.86,7.07-14.98,15.62-17.83,8.51-2.84,16.32-1.05,23.06,4.87,4.25,3.73,6.61,8.54,7.52,14.19h1.62c5.11,0,10.22-.02,15.34,0,5.32.02,9.76,3.51,11.09,8.67.07.27.2.53.3.78Zm-74.98-5.22H12.07c-5.01,0-7.82,2.8-7.82,7.8,0,25.67.06,51.35-.05,77.03-.02,4.88,3.63,7.98,7.97,7.95,17.31-.1,34.62-.04,51.93-.04h1.43c.11-.23.14-.27.14-.32,0-.24-.04-.48-.02-.71.28-4.07-.99-8.27,1.25-12.23H14.86c-.48,0-.97.05-1.43-.05-1.17-.24-1.92-.99-1.84-2.2.07-1.17.81-1.9,2.05-1.99.43-.03.86,0,1.29,0h56.89v-8.3c-2.48-.84-3.97-2.67-4.21-5.8-.29.42-.37.6-.49.73-1.61,1.69-3.52,2.29-5.72,1.41-2.11-.85-3.21-2.5-3.24-4.78-.03-1.77-.02-3.54.03-5.31.04-1.48.67-2.77,1.9-3.52,1.1-.67,2.4-1,3.44-1.42v-4.27c0-1.48,0-2.97,0-4.45.02-4.26,1.79-6.18,6.04-6.56.13-.02.25-.11.44-.19,0-3.05,0-6.11,0-9.17,0-1.97.77-3.64,2.46-4.56,1.16-.62,2.59-.87,3.93-1.01,1.63-.16,3.29-.04,5.37-.04-6.09-4.76-9.32-10.59-9.86-18.01Zm44.39,92.74h1.41c5.74,0,11.47,0,17.21,0,4.75,0,7.74-2.87,7.74-7.64.03-25.95.02-51.9,0-77.86,0-4.35-2.98-7.23-7.33-7.24-5.06-.02-10.13,0-15.2,0-.42,0-.84.04-1.38.07-.57,7.29-3.79,13.16-9.81,17.92,2.32,0,4.14-.05,5.95.02,3.4.11,5.66,2.3,5.79,5.67.09,2.62.1,5.26,0,7.88-.12,3.22-2.14,5.24-5.39,5.61-.36.04-.71.13-1.11.2,0,3.39-.02,6.69.02,9.98,0,.32.3.79.59.92,2.65,1.19,3.66,3.31,3.64,6.1-.03,2.86-.01,5.71-.01,8.68,2.43.83,3.97,2.57,4.07,5.31.09,2.72.05,5.45,0,8.18-.04,2.68-1.88,4.81-4.52,5.34-.55.11-1.1.19-1.67.29v10.6Zm-1.8-93.83c0-10.54-8.58-19.18-19.1-19.23-10.55-.05-19.26,8.61-19.3,19.2-.04,10.53,8.67,19.2,19.27,19.19,10.53,0,19.13-8.62,19.13-19.17Zm-19.2,23.36c-6.35,0-12.7,0-19.06,0-1.71,0-2.03.32-2.04,2-.02,2.2-.02,4.39,0,6.59.01,1.75.37,2.12,2.09,2.12,12.71.01,25.42.01,38.12,0,1.65,0,2.08-.47,2.09-2.17.01-2.1,0-4.21,0-6.31,0-1.9-.34-2.24-2.27-2.24-6.31-.01-12.61,0-18.92,0Zm-4.19,59.77c-6.35,0-12.71,0-19.06,0-1.92,0-2.21.29-2.22,2.26-.01,2.11-.02,4.21,0,6.31.02,1.72.42,2.12,2.12,2.13h37.98c1.77,0,2.22-.44,2.23-2.17.01-2.11,0-4.21,0-6.31,0-1.91-.32-2.21-2.28-2.21h-18.78Zm-2.33-34.1c6.35,0,12.71,0,19.06,0,1.79,0,2.16-.34,2.17-2.04.02-2.29-.02-4.58.01-6.88.01-1.28-.6-1.79-1.84-1.79-12.85.01-25.7,0-38.55.02-1.53,0-1.9.42-1.91,2.01-.02,2.15,0,4.3,0,6.45,0,1.84.41,2.25,2.29,2.25,6.26,0,12.52,0,18.77,0Zm8.38,19.18c-6.4,0-12.8,0-19.2,0-1.64,0-1.93.3-1.94,1.93-.01,2.24-.01,4.49,0,6.74,0,1.54.44,2.02,1.91,2.02,12.8.01,25.61.01,38.41,0,1.53,0,1.91-.41,1.92-1.99.02-2.1,0-4.21,0-6.31,0-2.26-.14-2.39-2.33-2.39h-18.77Zm-4.2-14.91c-6.31,0-12.61,0-18.92,0-1.89,0-2.13.25-2.14,2.16-.01,2.2.02,4.4-.01,6.6-.02,1.31.52,1.94,1.87,1.94,12.85-.01,25.7-.01,38.55,0,1.32,0,1.91-.64,1.89-1.95-.02-2.2,0-4.39,0-6.59,0-1.85-.32-2.15-2.18-2.16-6.36,0-12.71,0-19.06,0Zm-28.91,3.9h0c0-.81.07-1.63-.04-2.43-.04-.32-.46-.8-.73-.82-.29-.02-.89.4-.9.64-.08,1.71-.08,3.42,0,5.13.01.27.57.71.87.71.26,0,.7-.49.75-.81.11-.8.04-1.62.04-2.43Z"/>
      <path class="cls-1" d="m24.1,58.26c-2.25,0-4.49.03-6.74-.01-3.34-.07-5.71-2.33-5.81-5.65-.09-3.06-.09-6.12,0-9.18.1-3.26,2.46-5.53,5.73-5.56,4.54-.05,9.08-.05,13.62,0,3.26.03,5.62,2.31,5.73,5.57.09,3.05.09,6.12,0,9.18-.09,3.32-2.45,5.58-5.8,5.64-2.25.04-4.5.01-6.75.01Zm0-16.15c-2.1,0-4.2-.01-6.3,0-1.55.01-2,.43-2.01,1.92-.02,2.72,0,5.44,0,8.16,0,1.23.56,1.86,1.81,1.85,4.34,0,8.69,0,13.03,0,1.26,0,1.81-.63,1.81-1.86-.01-2.72-.01-5.44,0-8.16,0-1.28-.54-1.95-1.89-1.92-2.15.04-4.29.02-6.45.01Z"/>
      <path class="cls-1" d="m55.46,80.63c-.12,1.32-.08,2.68-.39,3.95-.59,2.36-3.02,3.96-5.29,3.69-2.56-.3-4.56-2.28-4.68-4.8-.09-1.85-.09-3.72,0-5.57.14-2.72,2.39-4.75,5.11-4.75,2.73,0,4.94,2.04,5.12,4.76.06.9,0,1.81,0,2.72.04,0,.08,0,.12.01Zm-4.38.13c0-.81.09-1.64-.04-2.43-.06-.33-.55-.6-.85-.9-.29.31-.81.6-.82.92-.08,1.57-.08,3.15,0,4.72.02.33.55.63.85.94.29-.32.76-.61.82-.98.13-.74.04-1.52.04-2.28Z"/>
      <path class="cls-1" d="m21.8,80.69c0,.76,0,1.52,0,2.28-.02,2.99-2.18,5.26-5.03,5.32-2.7.06-5.05-2.16-5.21-5.04-.1-1.72-.09-3.44,0-5.15.16-3.04,2.47-5.08,5.5-4.96,2.69.11,4.72,2.35,4.75,5.25,0,.77,0,1.53,0,2.3Zm-4.26.03c0-.81.07-1.63-.04-2.43-.04-.32-.54-.86-.71-.82-.37.09-.93.48-.95.77-.1,1.62-.1,3.24-.01,4.86.02.32.59.61.91.91.27-.34.71-.65.77-1.01.12-.74.04-1.52.03-2.28Z"/>
      <path class="cls-1" d="m34.81,80.72c0,.95.08,1.92-.02,2.86-.3,2.77-2.6,4.81-5.22,4.7-2.76-.11-4.87-2.26-4.94-5.13-.05-1.77-.06-3.54.02-5.31.11-2.5,2.15-4.55,4.55-4.7,2.79-.18,5.07,1.5,5.49,4.14.18,1.12.16,2.28.23,3.42-.04,0-.08,0-.13,0Zm-4.2-.08h0c0-.76.1-1.54-.04-2.27-.06-.35-.54-.64-.83-.96-.29.3-.82.59-.84.9-.09,1.56-.09,3.14,0,4.7.02.34.51.66.79.99.31-.31.82-.59.88-.95.13-.78.04-1.61.04-2.42Z"/>
      <path class="cls-1" d="m125.09,80.68c0-.72,0-1.43,0-2.15.02-3.01,2.02-5.27,4.75-5.38,2.96-.12,5.24,1.83,5.47,4.83.14,1.8.14,3.63,0,5.43-.2,2.86-2.68,5.05-5.35,4.87-2.83-.17-4.85-2.38-4.88-5.32,0-.76,0-1.52,0-2.28Zm4.26-.02h0c0,.81-.07,1.63.04,2.42.04.34.46.62.7.93.33-.29.94-.55.96-.86.09-1.66.07-3.33-.01-5-.02-.26-.57-.68-.87-.68-.27,0-.73.46-.77.76-.11.8-.04,1.62-.04,2.43Z"/>
      <path class="cls-1" d="m129.83,47.53c-.08,3.71-1.09,6.52-3.26,8.88-1.04,1.12-2.33,1.28-3.27.43-.92-.84-.91-2,.05-3.18,3-3.72,3-7.46,0-11.15-.95-1.17-.97-2.35-.06-3.19.96-.89,2.15-.73,3.25.43,2.03,2.12,3.28,5.28,3.28,7.78Z"/>
      <path class="cls-1" d="m95.23,38.19c-8.21-.04-14.65-6.59-14.61-14.84.04-8.08,6.7-14.59,14.81-14.5,8.12.09,14.7,6.76,14.58,14.77-.12,8.16-6.68,14.62-14.78,14.57Zm.12-4.28c5.79-.02,10.49-4.73,10.44-10.47-.05-5.77-4.8-10.46-10.55-10.41-5.82.05-10.39,4.68-10.37,10.51.02,5.82,4.63,10.39,10.48,10.37Z"/>
      <path class="cls-1" d="m94.17,21.35c.6,0,1.2-.02,1.79,0,2.51.08,4.25,1.38,4.75,3.54.51,2.14-.4,3.93-2.56,5.21-.37.21-.55.72-.89,1-.59.48-1.22,1.21-1.86,1.23-.64.02-1.33-.67-1.96-1.09-.35-.23-.59-.68-.96-.85-1.03-.47-1.65-1.2-1.47-2.34.18-1.13.97-1.74,2.1-1.79,1.11-.06,2.23-.02,3.35-.02,0-.18.02-.36.02-.54-.79-.05-1.58-.1-2.37-.14-1.85-.08-3.17-1.02-3.93-2.65-.74-1.6-.52-3.16.51-4.59.22-.3.48-.62.79-.81.92-.56,1.68-1.15,2.24-2.18.67-1.22,2.52-.98,3.38.2.33.45.8.86,1.29,1.14.94.56,1.37,1.32,1.16,2.38-.2,1.02-.87,1.57-1.9,1.61-1.16.04-2.31.01-3.47.01,0,.22-.01.45-.02.67Z"/>
    </g>
  </g>
</svg>