<?xml version="1.0" encoding="UTF-8"?>
<svg id="Capa_2" data-name="Capa 2" xmlns="http://www.w3.org/2000/svg" xmlns:xlink="http://www.w3.org/1999/xlink" viewBox="0 0 97.34 96.43">
  <defs>
    <style>
      .cls-1 {
        fill: #fff;
      }

      .cls-2 {
        filter: url(#outer-glow-1);
      }
    </style>
    <filter id="outer-glow-1" filterUnits="userSpaceOnUse">
      <feOffset dx="0" dy="0"/>
      <feGaussianBlur result="blur" stdDeviation="9"/>
      <feFlood flood-color="#c0c" flood-opacity=".75"/>
      <feComposite in2="blur" operator="in"/>
      <feComposite in="SourceGraphic"/>
    </filter>
  </defs>
  <g id="Layer_4" data-name="Layer 4">
    <g class="cls-2">
      <path class="cls-1" d="m70.52,70.11c1.92,9.73-.4,14.31-8.83,18.08C34.11,100.54,1.55,80.14.06,49.55-1.41,19.19,22.81-3.3,53.95.4c-4.43.82-8.13,1.26-11.69,2.19C18.42,8.85,6.1,34.42,16.63,55.62c7.46,15,22.83,21.54,41.53,17.58,4.05-.86,8.04-2,12.36-3.09Z"/>
      <path class="cls-1" d="m51.91,96.43c1.23-.35,2.46-.7,3.68-1.06,18.66-5.43,24-23.81,11.21-38.64-7.29-8.45-16.97-12.08-27.7-13.48-2.42-.32-4.86-.5-7.45-.77,13.78-10.29,48.09-12.78,65.69-2.38-11.2.79-22.66,6.98-24.45,18.44,1.83-4.98,6.96-12.62,10.89-12.85,15.84,12.46,15.79,30.07.57,41.4-9.62,7.16-20.81,9.4-32.45,9.33Z"/>
      <path class="cls-1" d="m44.65,3.83c11.2-2.37,22.25-1.89,32.72,3.25,5.41,2.66,9.48,6.65,9.7,13.24.24,7.34-4.91,11.89-12.16,11.39-5.43-.37-10.91-.07-16.65-.07,2.27-1.4,4.57-2.58,6.61-4.1,5.57-4.16,6.11-9.76,1.35-14.83-5.8-6.16-13.37-8.13-21.56-8.88Z"/>
    </g>
  </g>
</svg>