<?xml version="1.0" encoding="UTF-8"?>
<svg id="Capa_2" data-name="Capa 2" xmlns="http://www.w3.org/2000/svg" viewBox="0 0 97.35 82.7">
  <defs>
    <style>
      .cls-1 {
        fill: #fff;
        fill-rule: evenodd;
      }
    </style>
  </defs>
  <g id="Layer_4" data-name="Layer 4">
    <g>
      <path class="cls-1" d="m50.29,0c1.34.38,2.69.72,4.02,1.14,4.59,1.46,8.88,3.59,13.1,5.86.61.33,1.23.65,2.02,1.07-.12-.57-.21-.96-.3-1.35-.38-1.79.16-3.13,1.56-3.61.62-.21,1.32-.28,1.99-.29,2.75-.02,5.51,0,8.27.03.44,0,.9.08,1.33.19,1.12.3,1.77,1.02,1.67,2.17-.12,1.41-.46,2.8-.69,4.2-.34,2.12-.68,4.24-.97,6.37-.04.26.17.66.4.84,3.49,2.79,7.04,5.51,10.49,8.36,1.68,1.39,3.03,3.12,3.8,5.22.9,2.46.11,4.73-2.1,6.19-1.83,1.2-3.87,1.76-6,1.9-1.94.12-3.9.02-5.85.02h-.82c.11,1.06.16,2.05.32,3.02.85,4.89,3.11,9.13,6.12,13.02,2.54,3.27,3.8,6.98,3.38,11.13-.35,3.47-1.89,6.45-4.28,8.97-3.45,3.65-7.75,5.71-12.62,6.7-4.44.9-8.84.72-13.24-.23-.22-.05-.48.01-.72.06-2.48.46-4.94.98-7.43,1.36-2.9.44-5.83.45-8.76.17-2.86-.27-5.71-.6-8.47-1.43-.97-.29-1.82,0-2.7.15-7.72,1.27-15.01.33-21.52-4.32-3.79-2.7-6.34-6.32-7.01-11.01-.52-3.62.33-7.01,2.32-10.09,1.43-2.2,3-4.31,4.32-6.57,1.7-2.92,2.66-6.12,3.03-9.49.05-.44,0-.89,0-1.35-.92,0-1.81-.04-2.7,0-3.06.17-6.05-.1-8.84-1.45-1.7-.82-3.12-2.01-3.38-4-.12-.93.01-1.95.3-2.85.71-2.21,2.2-3.95,3.95-5.38,3.38-2.77,6.81-5.49,10.33-8.08,7.16-5.26,14.77-9.79,22.89-13.42,2.82-1.26,5.7-2.4,8.77-2.96.24-.04.46-.17.69-.26h3.31ZM11.45,35.93c4.2-.28,8.56-.58,12.93-.85,3.82-.24,7.64-.45,11.46-.65,1.62-.09,3.25-.14,4.88-.18,3.18-.08,6.36-.25,9.53-.19,4.8.09,9.6.33,14.4.53,1.87.08,3.74.21,5.62.33,2.72.18,5.43.37,8.16.55,2.14.14,4.29.26,6.44.39,2.19.14,4.35,0,6.36-.99,1.79-.88,2.56-2.42,2.06-4.33-.22-.83-.55-1.71-1.09-2.35-1.3-1.55-2.64-3.08-4.15-4.42-5.8-5.14-12.21-9.43-18.92-13.29-4.94-2.84-9.99-5.46-15.49-7.08-1.88-.55-3.78-.99-5.75-.83-2.74.22-5.34,1.05-7.87,2.06-6.22,2.48-12.03,5.74-17.64,9.36-5.4,3.49-10.64,7.19-15.25,11.71-1.2,1.18-2.31,2.44-2.94,4.03-.91,2.28-.17,4.15,2.05,5.22,1.59.77,3.31.9,5.21.96Zm21.79,43.26c.03-.07.05-.15.08-.22-.31-.18-.61-.38-.92-.54-1.72-.9-3.31-1.95-4.51-3.52-1.47-1.92-1.07-3.85,1.04-5.02.26-.15.53-.29.81-.39,2.3-.83,4.59-1.67,6.9-2.47.5-.17.67-.4.58-.93-.74-4.03-.72-8.06.02-12.08.63-3.41,1.75-6.62,3.92-9.38,2.74-3.48,6.94-4.7,10.92-3.1,2.69,1.07,4.42,3.2,5.72,5.7,1.33,2.55,2.06,5.29,2.46,8.13.49,3.5.46,6.98-.15,10.45-.12.69-.02,1.01.69,1.25,2.42.84,4.86,1.68,7.22,2.69,2.51,1.07,2.93,3.22,1.22,5.34-1.27,1.58-2.95,2.59-4.71,3.52-.21.11-.41.27-.61.41,2.37.46,4.66.69,7,.52,3.03-.22,5.92-.91,8.61-2.33,8.32-4.37,11.02-14.48,5.98-22.02-2.12-3.16-3.69-6.6-4.44-10.34-.41-2.02-.59-4.1-.83-6.16-.05-.42-.2-.54-.6-.56-1.5-.07-3-.18-4.49-.27-3.6-.21-7.19-.43-10.79-.61-4.5-.22-9-.54-13.5-.55-5.15-.01-10.31.26-15.46.44-1.82.06-3.65.19-5.47.29-4.02.23-8.04.48-12.06.69-.58.03-.85.16-.89.78-.11,1.44-.2,2.9-.44,4.32-.75,4.4-2.44,8.42-4.9,12.14-1.93,2.92-2.76,6.18-2.34,9.64.71,5.88,3.92,10.03,9.23,12.58,2.51,1.21,5.17,1.76,7.94,1.96,2.29.16,4.53-.05,6.77-.36Zm5.06-18.68c.06,4.53.77,8.72,2.11,12.81.13.4.28.59.79.53,1.66-.21,3.32-.42,4.99-.48,3.28-.12,6.55-.04,9.8.47.54.09.75-.09.9-.58,1.9-6.02,2.68-12.14,1.52-18.4-.62-3.37-1.76-6.53-4.21-9.03-2.34-2.39-5.15-3.12-8.3-1.93-2.26.85-3.74,2.62-4.88,4.68-2.09,3.78-2.63,7.92-2.73,11.93Zm10.31,13.55c-3.48,0-6.95.15-10.33,1.06-1.21.32-2.41.71-3.28,1.69-.59.66-.63,1.53.07,2.05.77.57,1.63,1.08,2.53,1.38,2.4.83,4.9,1.12,7.43,1.27,4.63.27,9.25.19,13.76-1,1.15-.3,2.28-.88,3.27-1.55.93-.63.9-1.74-.05-2.38-.94-.62-2-1.14-3.08-1.45-3.37-.96-6.84-1.08-10.32-1.07Zm31.57-58.94c.48-2.45.93-4.75,1.39-7.05.09-.46.24-.93.28-1.39.09-.93-.26-1.56-1.17-1.59-2.85-.09-5.7-.1-8.54-.03-.87.02-1.25.73-1.08,1.64.12.64.3,1.27.54,1.87.12.32.37.64.65.84,1.71,1.25,3.45,2.47,5.18,3.7.92.66,1.84,1.34,2.76,2.02Z"/>
      <path class="cls-1" d="m25.73,57.39c-1.58,0-3.15,0-4.73,0-1.95-.01-3.14-1.18-3.16-3.11-.01-2.1.05-4.2-.02-6.3-.06-1.82,1.08-3.26,3.1-3.26,3.43-.01,6.85.02,10.28.09,1.38.03,2.53,1.25,2.55,2.65.03,2.33.02,4.65,0,6.98,0,1.71-1.2,2.93-2.92,2.96-1.7.03-3.4,0-5.1,0h0Zm-1.01-11.26c-1.14,0-2.21-.05-3.28.01-1.04.06-2.04.94-2.09,1.93-.08,1.39-.02,2.78-.02,4.17,2.65.24,5.09-2.91,5.39-6.1Zm2.17.05c.18,2.61,2.47,6.36,5.39,6.02,0-1.24,0-2.48,0-3.73,0-1.15-.76-2.15-1.88-2.26-1.16-.11-2.34-.03-3.51-.03Z"/>
      <path class="cls-1" d="m71.46,57.4c-1.6,0-3.2,0-4.81,0-1.94-.02-3.13-1.22-3.13-3.15,0-2.18,0-4.35,0-6.53,0-1.74,1.25-2.99,2.96-3,3.02-.01,6.05-.03,9.07,0,.76,0,1.55.11,2.26.37,1.05.39,1.59,1.28,1.6,2.4.03,2.33.02,4.65,0,6.98-.01,1.71-1.22,2.89-2.95,2.93h-5.03Zm-6.44-5.14c2.85.17,5.13-3.18,5.38-6.08-1.17,0-2.34-.08-3.5.03-1.02.1-1.74.84-1.84,1.81-.15,1.4-.04,2.83-.04,4.24Zm7.53-6.11c.3,2.9,2.57,6.36,5.35,6.09.01-.07.05-.14.05-.21,0-1.2.02-2.4,0-3.59-.01-1.19-.87-2.18-2.06-2.26-1.09-.08-2.19-.02-3.35-.02Z"/>
      <path class="cls-1" d="m54.81,62.65c-.01-.81.57-1.45,1.35-1.48.82-.03,1.48.62,1.47,1.44,0,.78-.64,1.44-1.41,1.45-.78.01-1.4-.61-1.41-1.41Z"/>
    </g>
  </g>
</svg>