<?xml version="1.0" encoding="UTF-8"?>
<svg id="Capa_2" data-name="Capa 2" xmlns="http://www.w3.org/2000/svg" viewBox="0 0 97.34 96.36">
  <defs>
    <style>
      .cls-1 {
        fill: #fff;
      }
    </style>
  </defs>
  <g id="Layer_4" data-name="Layer 4">
    <path class="cls-1" d="m90.99,37.49c-.32-.35-.62-.71-.91-1.05.24-.83.37-1.29.37-1.29,0,0,1.9-4.82.7-8.05-1.2-3.21-9.73-6-9.73-6,0,0-3.17-1.36-7.75-3.33-9.13-10.37-11.57-13.11-12.33-13.83l.04-.03c-.1-.14-2.56-3.47-5.89-3.89-2.98-.4-11.61,3.83-12.91,4.48-1.37-.58-2.18-.92-2.21-.92,0,0-3.55-1.92-6.51-.94-2.87.96-9.29,9.57-9.29,9.57l-2.05,2.87-12,6.33c-.25.13-6.03,3.39-7.79,6.84-3.46,6.76.34,12.14.5,12.37l.5.66C3.31,41.9.03,46.95,0,50.46c-.07,7.35,5.6,10.45,5.6,10.45l21.06,11.07,12.45,16.65c.24.29,6.05,7.26,9.9,7.69.24.03.49.04.73.04,4.66,0,9.18-4.72,10.49-6.21l-.04-.04c.1-.1.25-.25.48-.48,2.71,1.06,7.26,2.56,9.59,1.73,4.92-1.75,6.87-10.08,6.88-10.08,0,0,1.75-6.04,3.97-13.75,3.37-3.64,7.27-7.88,11.81-12.79.16-.15,4.05-3.66,4.41-7.24.36-3.56-5.68-9.4-6.34-10.02Zm-86.6,2.88l-.28-.38c-.15-.21-3.55-5.07-.41-11.22,1.6-3.16,7.29-6.36,7.33-6.38l10.07-5.31L4.4,40.37Zm55.17,48.92l-.17.19c-.9,1.01-5.75,6.27-10.25,5.77-2.83-.32-7.59-5.38-9.16-7.28l-11.06-14.79,29.6,15.55s.42.2,1.12.49c-.03.02-.05.05-.07.08ZM43.9,5.07c2.39-1.15,8.53-3.98,11.12-3.98.12,0,.22.02.31.03,2.82.37,5.06,3.58,5.16,3.7l.16.48h.04c.83.93,5.1,5.62,10.41,11.62-8.9-3.82-21.23-9.31-27.22-11.85Zm48.25,48.91c-.12.13-4.69,5.09-10.37,11.25,2.92-10.16,6.42-22.33,7.93-27.53.16.2.33.38.49.57,1.77,1.68,6.29,6.56,6.04,9.13-.31,3.16-4.01,6.5-4.09,6.58Z"/>
  </g>
</svg>