<?xml version="1.0" encoding="UTF-8"?>
<svg id="Capa_2" data-name="Capa 2" xmlns="http://www.w3.org/2000/svg" viewBox="0 0 97.34 123.59">
  <defs>
    <style>
      .cls-1 {
        fill: #fff;
        fill-rule: evenodd;
      }
    </style>
  </defs>
  <g id="Layer_4" data-name="Layer 4">
    <path class="cls-1" d="m48.66,123.59C32.63,107.55,16.35,91.28.21,75.14c16.15-16.15,32.42-32.42,48.55-48.55,7.21,7.21,14.61,14.62,21.95,21.96-3.44,3.38-7.12,6.99-10.94,10.74-.18-.16-.64-.55-1.06-.97-2.97-2.96-5.95-5.91-8.88-8.9-.76-.77-1.29-.78-2.06,0-8.2,8.24-16.43,16.46-24.66,24.67-.64.64-.93,1.14-.14,1.93,8.4,8.36,16.77,16.75,25.16,25.12.19.19.45.31.76.51,12.57-12.57,25.12-25.13,37.6-37.6,3.81,3.81,7.43,7.43,10.86,10.85-16.2,16.2-32.49,32.49-48.69,48.69ZM11.18,59.46c12.4-12.41,24.95-24.97,37.35-37.37,8.95,8.94,17.75,17.73,26.63,26.61-.15.19-.39.56-.7.87-8.18,8.19-16.37,16.36-24.53,24.57-.93.94-1.51.74-2.32-.09-2.97-3.04-6.02-6-8.99-9.04-.82-.84-1.38-.83-2.19,0-2.89,2.96-5.8,5.9-8.78,8.77-1.06,1.02-1.06,1.66,0,2.7,6.64,6.56,13.22,13.18,19.83,19.78.41.42.88.78.96.85,16.43-16.42,32.68-32.68,48.65-48.65C81.05,32.4,64.79,16.14,48.65,0,32.6,16.04,16.37,32.28,0,48.65c3.66,3.54,7.34,7.09,11.18,10.81Z"/>
  </g>
</svg>