<?xml version="1.0" encoding="UTF-8"?>
<svg id="Capa_2" data-name="Capa 2" xmlns="http://www.w3.org/2000/svg" viewBox="0 0 89.01 97.34">
  <defs>
    <style>
      .cls-1 {
        fill: #fff;
      }
    </style>
  </defs>
  <g id="Layer_4" data-name="Layer 4">
    <g>
      <path class="cls-1" d="m10.35,2.78C6.39,4.72,3.01,7.42,0,10.7l7.74,8.25c2.1-2.47,4.37-4.5,7.2-5.95,2.94-1.51,5.96-1.77,8.96-1.85V0c-6,.07-9.22.66-13.54,2.78Z"/>
      <path class="cls-1" d="m37.89,15.66v4.84c-3-1.97-3.86-3.45-6.14-4.43-2.28-.98-4.64-1.48-7.24-1.48-5.65,0-10.41,2.14-14.37,6.42-3.96,4.28-5.92,9.78-5.92,16.49s2.06,11.86,6.15,16.21c4.09,4.35,8.95,6.52,14.55,6.52,2.49,0,4.63-.44,6.77-1.33,2.14-.89,3.2-2.35,6.2-4.37v6.12h10V15.66h-10Zm-2.52,31.03c-2.25,2.39-5.09,3.58-8.51,3.58s-6.11-1.21-8.37-3.64c-2.27-2.42-3.41-5.51-3.41-9.26s1.11-6.78,3.34-9.15c2.23-2.39,5.02-3.57,8.39-3.57s6.3,1.17,8.55,3.51c2.26,2.33,3.38,5.39,3.38,9.18s-1.13,6.97-3.38,9.35Z"/>
      <path class="cls-1" d="m89.01,31.11l-.17,28.61c-2.59,20.36-20.72,37.62-42.3,37.62-18,0-33.38-11.39-39.49-27.25-1.82-4.72-2.81-9.92-2.81-15.28,0-1.65-.03-3.29-.02-5.16.38,1.45,2.38,4.79,5.53,7.74,1.91,1.79,4.47,3.04,7.12,4.04,1.31,5.08,3.37,10.77,6.84,14.5,5.7,6.12,13.83,10.25,22.83,10.25,15.37,0,29.01-12.64,31.53-26.46l.04-18.94c0-5.18-.26-8.62-.71-10.33-.47-1.7-1.29-3-2.44-3.88-1.16-.88-2.58-1.34-4.28-1.34-2.2,0-4.1.74-5.68,2.21-1.59,1.48-2.84,3.52-3.45,6.12-.32,1.35-.65,4.29-.65,8.81v18.29h-10V15.66h10v5.17c2-2.09,4.88-3.53,6.88-4.35,2-.82,4.14-1.22,6.24-1.22,4.31,0,8.09,1.5,11.09,4.51,2.52,2.56,3.91,6.33,3.91,11.34Z"/>
    </g>
  </g>
</svg>