<?xml version="1.0" encoding="UTF-8"?>
<svg id="Capa_2" data-name="Capa 2" xmlns="http://www.w3.org/2000/svg" xmlns:xlink="http://www.w3.org/1999/xlink" viewBox="0 0 103.7 103.67">
  <defs>
    <style>
      .cls-1 {
        fill: #fff;
      }

      .cls-2 {
        filter: url(#drop-shadow-1);
      }
    </style>
    <filter id="drop-shadow-1" filterUnits="userSpaceOnUse">
      <feOffset dx="3" dy="3"/>
      <feGaussianBlur result="blur" stdDeviation="2"/>
      <feFlood flood-color="#000" flood-opacity=".73"/>
      <feComposite in2="blur" operator="in"/>
      <feComposite in="SourceGraphic"/>
    </filter>
  </defs>
  <g id="Capa_1-2" data-name="Capa 1">
    <g class="cls-2">
      <path class="cls-1" d="m45.38,0c1.86.26,3.74.46,5.59.8,10.4,1.9,18.95,6.97,25.69,15.11.26.31.51.62.9,1.08.91-.96,1.79-1.83,2.59-2.78.17-.21.12-.73-.01-1.04-1.29-3.06-.32-6.55,2.4-8.45,2.67-1.87,6.41-1.57,8.72.79.62.63,1.18,1.43,1.49,2.25.31.8.72.95,1.49.94,2.77-.04,5.54-.02,8.3-.02.36,0,.72,0,1.14,0v3.45c-.39,0-.78,0-1.17,0-2.87,0-5.74-.02-8.61.03-.33,0-.84.28-.96.56-1.78,4.13-5.62,5.62-9.74,3.74-.06-.03-.13-.03-.33-.07-.96.98-2.01,1.98-2.97,3.06-.17.2-.09.8.09,1.09,1.93,3.19,3.5,6.54,4.55,10.12,3.13,10.6,2.39,20.93-2.25,30.95-.65,1.4-1.41,2.76-2.23,4.08-.45.72-.43,1.15.2,1.77,6.83,6.78,13.63,13.58,20.42,20.4,2.76,2.77,3.73,6.01,2.48,9.81-1.87,5.72-9.4,7.92-14.05,4.09-.6-.49-1.17-1.02-1.72-1.57-6.4-6.39-12.8-12.79-19.2-19.19-1.51-1.51-1.52-1.53-3.33-.45-4.22,2.5-8.76,4.2-13.56,5.1-7.58,1.42-15.05.88-22.34-1.67-7.08-2.48-13.11-6.55-18.1-12.17-5.03-5.68-8.35-12.22-9.9-19.64-.35-1.68-.5-3.4-.75-5.1C.15,46.7.07,46.35,0,45.99c0-1.76,0-3.51,0-5.27.06-.26.16-.51.18-.77.44-6.25,2.13-12.16,5.22-17.6C12.05,10.65,22.02,3.45,35.23.79,36.98.44,38.75.26,40.52,0c1.62,0,3.24,0,4.86,0Zm37.61,43.15c-.14-22.18-17.99-40.15-40.64-39.75C20.88,3.78,3.03,21.35,3.42,43.99c.36,21.38,17.82,39.33,40.58,38.93,21.54-.38,38.83-17.77,38.99-39.77Zm-6.05,41.61c4.63,4.65,9.26,9.31,13.91,13.97.14.14.31.26.47.38,2.67,2.09,6.66,1.26,8.28-1.71,1.3-2.39.85-4.9-1.31-7.07-4.26-4.28-8.54-8.54-12.81-12.8-.23-.23-.48-.45-.66-.62-2.64,2.63-5.23,5.22-7.87,7.86Zm-2.63-2.79c2.55-2.55,5.17-5.15,7.71-7.69-1.48-1.47-3.03-3.02-4.57-4.55-1.2,1.3-2.42,2.7-3.72,4-1.3,1.3-2.7,2.51-3.97,3.69,1.56,1.56,3.1,3.1,4.55,4.55Zm12.15-68.16c1.88,0,3.42-1.51,3.45-3.38.03-1.87-1.59-3.51-3.47-3.5-1.91,0-3.45,1.59-3.42,3.52.03,1.9,1.53,3.37,3.44,3.37Z"/>
      <path class="cls-1" d="m43.27,6.92c20.29.26,36.22,16.25,36.23,36.31,0,20.44-16.47,36.31-36.34,36.24-20.31-.07-36.24-16.36-36.17-36.31.07-20.39,16.31-36.08,36.28-36.25ZM10.68,39.75c-1.58,12.54,4.93,27.28,19.58,33.6,13.69,5.9,29.57,2.04,38.94-10.05,9.32-12.03,8.06-27.12,2.6-35.91-1.03,1.06-2.02,2.12-3.06,3.12-.43.42-.48.74-.22,1.3,1.19,2.61.6,5.68-1.41,7.66-2.02,2-5.05,2.57-7.67,1.36-.58-.27-.88-.15-1.28.25-3.33,3.35-6.67,6.7-10.03,10.02-.5.49-.62.86-.31,1.55,1.39,3.12.16,6.85-2.75,8.54-2.73,1.59-5.89,1.27-8.25-.83-2.15-1.92-2.78-5.07-1.6-7.89.12-.28.16-.79,0-.96-2.47-2.53-4.99-5.02-7.47-7.5-4.69,1.93-7.69.76-10.07-3.84-.11-.21-.44-.41-.67-.41-2.09-.03-4.18-.02-6.33-.02Zm45.55-1.63c0-.11.01-.15,0-.17-1.66-2.97-.8-6.2,1.05-8.15,1.84-1.94,5.14-2.84,8.01-1.39.18.09.56.08.7-.05,1.35-1.31,2.67-2.65,3.99-3.96-6.16-9.28-18.81-16.04-32.71-13.44-14.17,2.65-23.76,13.8-26.02,25.33,2,0,3.98.02,5.97-.03.21,0,.48-.4.59-.66,1.48-3.67,5.47-5.41,9.08-3.93,3.56,1.46,5.2,5.62,3.61,9.19-.2.44-.31.73.11,1.13,2.34,2.29,4.63,4.63,6.97,6.92.21.2.74.28,1.01.16,1.97-.86,3.91-.86,5.88,0,.26.12.8,0,1-.2,3.6-3.56,7.17-7.15,10.77-10.76Zm-35.43-.12c-.02,1.93,1.53,3.51,3.44,3.5,1.85,0,3.41-1.56,3.45-3.42.03-1.85-1.5-3.43-3.36-3.47-1.96-.04-3.5,1.44-3.52,3.38Zm20.71,20.76c1.92,0,3.48-1.58,3.45-3.49-.03-1.87-1.58-3.4-3.45-3.4-1.87,0-3.42,1.53-3.44,3.4-.02,1.94,1.51,3.49,3.44,3.49Zm20.78-27.6c-1.93-.02-3.51,1.53-3.5,3.44,0,1.85,1.56,3.42,3.41,3.45,1.9.03,3.47-1.54,3.47-3.46,0-1.91-1.48-3.4-3.38-3.42Z"/>
    </g>
  </g>
</svg>