<?xml version="1.0" encoding="UTF-8"?>
<svg id="Capa_2" data-name="Capa 2" xmlns="http://www.w3.org/2000/svg" xmlns:xlink="http://www.w3.org/1999/xlink" viewBox="0 0 135.47 131.27">
  <defs>
    <style>
      .cls-1 {
        fill: url(#linear-gradient-2);
      }

      .cls-2 {
        fill: #fff;
      }

      .cls-3 {
        fill: url(#linear-gradient);
      }
    </style>
    <linearGradient id="linear-gradient" x1="6.98" y1="1388.9" x2="138.25" y2="1388.9" gradientTransform="translate(-1011.51 -814.08) rotate(-47.77)" gradientUnits="userSpaceOnUse">
      <stop offset="0" stop-color="aqua"/>
      <stop offset=".14" stop-color="#00d9da"/>
      <stop offset=".3" stop-color="#00b0b3"/>
      <stop offset=".47" stop-color="#009194"/>
      <stop offset=".63" stop-color="#007a7e"/>
      <stop offset=".78" stop-color="#006c71"/>
      <stop offset=".92" stop-color="#01686d"/>
    </linearGradient>
    <linearGradient id="linear-gradient-2" x1="-1667.41" y1="2386.74" x2="-1623.48" y2="2386.74" gradientTransform="translate(-2775.26 -132.24) rotate(-119.8)" xlink:href="#linear-gradient"/>
  </defs>
  <g id="Capa_1-2" data-name="Capa 1">
    <g>
      <path class="cls-3" d="m109.75,17.04c26.84,24.36,28.85,65.87,4.48,92.71-24.36,26.84-65.87,28.85-92.71,4.48C-5.32,89.87-7.33,48.36,17.04,21.52,41.4-5.32,82.91-7.33,109.75,17.04Z"/>
      <g>
        <path class="cls-2" d="m72.58,39.8c-.1-1.03-.51-1.65-1.22-1.95-.74-.32-1.54-.51-2.32-.73-.73-.21-1.49-.32-2.19-.59-2.06-.78-3.22-2.4-3.21-4.39.01-1.97,1.2-3.68,3.2-4.42.67-.25,1.09-.46,1.05-1.3-.03-.75.62-1.27,1.3-1.28.73,0,1.35.54,1.31,1.35-.03.72.29.95.9,1.14,1.49.48,2.55,1.49,3.24,2.89.44.89.24,1.65-.51,2.02-.72.35-1.38.08-1.87-.76-.93-1.6-2.67-2.26-4.32-1.64-1.03.39-1.62,1.13-1.61,2.04,0,.87.49,1.51,1.57,1.85.96.3,1.96.46,2.94.72,1.6.42,2.99,1.15,3.81,2.68,1.25,2.29.47,4.9-1.85,6.12-.47.25-.97.49-1.48.58-.63.11-.85.37-.81,1,.04.71-.36,1.27-1.04,1.31-.45.03-.96-.29-1.38-.56-.18-.12-.27-.52-.24-.77.07-.68-.28-.89-.86-1.06-1.8-.55-3.08-1.7-3.71-3.5-.35-.99-.05-1.73.76-2.02.75-.26,1.42.12,1.76,1.09.89,2.6,4.97,2.63,6.35,1.08.26-.29.34-.73.42-.92Z"/>
        <path class="cls-2" d="m92.36,52.88c-.41-.08-.87-.07-1.23-.25-.64-.32-1.03-.12-1.5.35-3.48,3.47-6.99,6.92-10.51,10.36-.38.38-.5.68-.32,1.22.8,2.4-.62,4.9-3.06,5.49-2.45.59-4.89-.97-5.22-3.46-.12-.91-.52-1.25-1.3-1.54-2.73-1.04-5.43-2.14-8.13-3.24-.47-.19-.76-.17-1.17.2-1.38,1.27-2.99,1.5-4.68.73-.52-.24-.82-.2-1.25.13-3.47,2.73-6.95,5.44-10.44,8.13-.41.31-.52.57-.41,1.11.52,2.55-1.24,4.9-3.81,5.16-2.45.25-4.59-1.61-4.71-4.09-.12-2.45,1.97-4.58,4.45-4.48.49.02,1.06.08,1.46.33.74.47,1.19.18,1.76-.28,3.37-2.67,6.76-5.32,10.15-7.96.36-.28.52-.5.41-1.03-.54-2.52,1.03-4.76,3.55-5.2,2.34-.41,4.59,1.28,4.89,3.77.08.66.33.96.92,1.18,2.82,1.1,5.63,2.23,8.44,3.37.45.18.76.21,1.18-.18,1.26-1.18,2.75-1.45,4.37-.84.4.15.64.11.94-.2,3.63-3.61,7.26-7.21,10.92-10.78.39-.38.33-.68.19-1.11-.58-1.79.07-3.69,1.59-4.77,1.54-1.09,3.55-1.08,5.04.03,1.5,1.11,2.12,3.03,1.56,4.8-.57,1.77-2.21,2.97-4.07,3.03Zm-17.69,11.29c-.94.02-1.68.8-1.68,1.75,0,.97.84,1.77,1.79,1.72.93-.05,1.67-.86,1.64-1.79-.03-.93-.84-1.7-1.75-1.68Zm19.37-15.66c0-.94-.77-1.72-1.7-1.72-.95,0-1.76.83-1.74,1.78.02.92.83,1.7,1.75,1.68.93-.02,1.69-.8,1.68-1.74Zm-35.27,10.34c0-.95-.75-1.71-1.69-1.72-.98,0-1.76.79-1.74,1.77.02.93.82,1.69,1.74,1.68.94-.01,1.68-.78,1.68-1.73Zm-19.86,12.38c-.94.01-1.69.78-1.7,1.72,0,.97.79,1.75,1.78,1.72.94-.03,1.69-.82,1.67-1.75-.02-.92-.82-1.7-1.74-1.69Z"/>
        <path class="cls-2" d="m87.65,35.92c.12,9.52-7.83,17.6-17.44,17.72-9.77.12-17.8-7.7-17.94-17.47-.13-9.73,7.64-17.8,17.26-17.94,10.05-.15,17.99,7.6,18.12,17.69Zm-17.71,15.09c8.44-.02,15.11-6.72,15.11-15.19,0-8.3-6.85-15.07-15.21-15.03-8.23.04-15.01,6.86-15,15.09.01,8.39,6.76,15.15,15.1,15.13Z"/>
        <path class="cls-2" d="m98.88,79.3c0,5.71,0,11.41,0,17.12,0,1.42-.38,1.79-1.79,1.79-3.23,0-6.47,0-9.7,0-1.19,0-1.65-.44-1.65-1.62,0-11.53,0-23.05,0-34.58,0-1.18.45-1.62,1.64-1.62,3.26,0,6.52,0,9.78,0,1.31,0,1.71.4,1.72,1.7,0,5.74,0,11.47,0,17.21Zm-10.47,16.3h7.86v-32.6h-7.86v32.6Z"/>
        <path class="cls-2" d="m63.64,84.63c0,3.96,0,7.93,0,11.89,0,1.3-.4,1.7-1.72,1.7-3.23,0-6.47,0-9.7,0-1.29,0-1.71-.42-1.71-1.72,0-7.93,0-15.86,0-23.79,0-1.34.42-1.75,1.78-1.76,3.21,0,6.41,0,9.62,0,1.35,0,1.73.4,1.73,1.78,0,3.96,0,7.93,0,11.89Zm-2.59-11.03h-7.89v21.99h7.89v-21.99Z"/>
        <path class="cls-2" d="m68.13,87.83c0-2.73,0-5.45,0-8.18,0-1.2.43-1.64,1.61-1.64,3.32,0,6.63,0,9.95,0,1.12,0,1.6.48,1.6,1.59,0,5.51,0,11.02,0,16.52,0,1.13-.47,1.58-1.6,1.58-3.34,0-6.69,0-10.03,0-1.08,0-1.53-.45-1.54-1.54-.01-2.78,0-5.56,0-8.35Zm2.64-7.16v14.41h7.86v-14.41h-7.86Z"/>
        <path class="cls-2" d="m38.94,98.22c-1.69,0-3.37,0-5.06,0-1.03,0-1.49-.46-1.49-1.5,0-3.37,0-6.74,0-10.12,0-1.07.47-1.54,1.55-1.54,3.34,0,6.69-.01,10.03,0,1.06,0,1.55.49,1.55,1.56.01,3.34.01,6.69,0,10.03,0,1.12-.47,1.56-1.61,1.56-1.66,0-3.32,0-4.97,0Zm-3.96-2.61h7.87v-7.9h-7.87v7.9Z"/>
      </g>
      <path class="cls-1" d="m102.59,90.24c10.53-6.03,23.95-2.38,29.98,8.14,6.03,10.53,2.38,23.95-8.14,29.98-10.53,6.03-23.95,2.38-29.98-8.14-6.03-10.53-2.38-23.95,8.14-29.98Z"/>
    </g>
  </g>
</svg>