<?xml version="1.0" encoding="UTF-8"?>
<svg id="Capa_2" data-name="Capa 2" xmlns="http://www.w3.org/2000/svg" viewBox="0 0 103.7 105.94">
  <defs>
    <style>
      .cls-1 {
        fill: #fff;
      }
    </style>
  </defs>
  <g id="Capa_1-2" data-name="Capa 1">
    <g>
      <path class="cls-1" d="m9.03,71.6c-.14-3.52.39-6.77,2.2-9.7,3.07-4.97,7.55-7.62,13.38-7.76,4.6-.12,9.2-.07,13.8-.02,8.74.11,15.54,6.96,15.69,15.71.01.7,0,1.4,0,2.31,1.45,0,2.84,0,4.23,0,2.16,0,4.32,0,6.48,0,1.78,0,2.81.84,2.81,2.25,0,1.4-1.03,2.25-2.81,2.25-13.66,0-27.32,0-40.99,0-4.04,0-8.08.01-12.11,0-6.85-.03-11.69-4.87-11.69-11.73-.01-13.24-.02-26.48,0-39.73,0-6.77,4.87-11.64,11.63-11.65,11.69-.02,23.38-.03,35.07.04.85,0,1.97.48,2.5,1.12,1,1.2.06,3.02-1.53,3.29-.46.08-.94.04-1.41.04-11.41,0-22.82,0-34.23,0-4.79,0-7.53,2.72-7.53,7.49,0,13.1,0,26.2,0,39.3,0,3.35,1.53,5.71,4.51,6.77Zm9.01.48c0-1.46-.02-2.78,0-4.09.02-1.63.93-2.64,2.3-2.61,1.32.03,2.17,1.01,2.2,2.57.02,1.35,0,2.7,0,4.1h17.86c.08-.12.13-.15.13-.19.02-1.27.02-2.53.04-3.8.03-1.66.87-2.67,2.23-2.68,1.37-.01,2.25,1,2.27,2.64.02,1.34,0,2.68,0,4h4.48c0-1.04.05-1.98,0-2.92-.35-5.62-5.01-10.31-10.63-10.46-4.92-.13-9.85-.16-14.77,0-6.73.22-11.79,6.81-10.44,13.42h4.32Z"/>
      <path class="cls-1" d="m58.61,31.64c-4.6-.68-6.76-3.17-6.76-7.63,0-5.59,0-11.18,0-16.76,0-4.4,2.83-7.23,7.21-7.24,8.73-.01,17.46-.01,26.2,0,4.31,0,7.14,2.84,7.15,7.15.02,5.78.02,11.55,0,17.33-.02,4.21-2.87,7.05-7.1,7.07-4.51.02-9.01-.02-13.52.03-.69,0-1.47.27-2.03.67-2.41,1.71-4.76,3.51-7.12,5.29-.83.63-1.67,1.05-2.72.54-1.09-.53-1.35-1.46-1.32-2.57.03-1.26,0-2.53,0-3.89Zm4.59-.15c1.66-1.25,3.1-2.45,4.67-3.45.82-.52,1.86-.93,2.81-.95,4.74-.09,9.48-.04,14.22-.05,2.22,0,2.99-.75,2.99-2.93,0-5.59,0-11.18,0-16.76,0-2.04-.78-2.85-2.78-2.85-8.69,0-17.37,0-26.06,0-1.86,0-2.7.81-2.71,2.63-.02,5.78-.02,11.55,0,17.33,0,1.68.85,2.51,2.49,2.58q4.04.17,4.35,4.44Z"/>
      <path class="cls-1" d="m81.23,80.91c3.54.26,7.17.13,10.61.86,6.81,1.45,11.62,7.68,11.82,14.65.06,2.25.03,4.5.02,6.76,0,1.75-.89,2.79-2.3,2.76-1.36-.03-2.17-1.04-2.21-2.71-.06-2.76.14-5.57-.27-8.28-.81-5.42-5.43-9.21-10.94-9.27-4.55-.05-9.1-.05-13.65,0-6.24.07-11.11,4.97-11.2,11.21-.03,2.11,0,4.22-.01,6.34-.01,1.67-.85,2.68-2.2,2.72-1.4.03-2.35-1.02-2.29-2.76.13-3.41-.08-6.91.61-10.21,1.43-6.79,7.7-11.62,14.66-11.8,2.44-.06,4.88-.01,7.32-.01,0-.09.01-.17.02-.26Z"/>
      <path class="cls-1" d="m45.08,36.04c0,7.47-6.02,13.52-13.49,13.55-7.44.03-13.56-6.06-13.55-13.49.01-7.52,6.11-13.58,13.63-13.56,7.36.03,13.4,6.1,13.4,13.49Zm-13.46,9.05c4.91-.02,8.95-4.06,8.96-8.97.01-4.99-4.03-9.05-9-9.06-4.98-.01-9.03,4.05-9.02,9.04,0,4.98,4.08,9.01,9.07,8.99Z"/>
      <path class="cls-1" d="m94.66,63.18c-.02,7.45-6.1,13.47-13.58,13.46-7.42,0-13.51-6.15-13.46-13.58.05-7.45,6.12-13.47,13.58-13.46,7.42,0,13.48,6.12,13.45,13.58Zm-4.5-.11c-.02-4.97-4.11-9.01-9.1-8.96-4.97.04-8.97,4.14-8.93,9.14.04,4.9,4.11,8.91,9.03,8.89,4.98-.01,9.02-4.08,9-9.07Z"/>
      <path class="cls-1" d="m83.4,40.65c0,1.41.03,2.82,0,4.22-.04,1.51-1,2.5-2.31,2.46-1.27-.04-2.16-1-2.17-2.45-.03-2.86-.03-5.73,0-8.59.02-1.51.99-2.5,2.31-2.46,1.27.04,2.14.99,2.18,2.45.03,1.45,0,2.91,0,4.37Z"/>
      <path class="cls-1" d="m72.13,100.43c0,1.03.03,2.07,0,3.1-.05,1.44-.95,2.4-2.22,2.41-1.28.02-2.24-.93-2.27-2.36-.04-2.16-.04-4.32,0-6.48.02-1.45.94-2.39,2.21-2.41,1.28-.02,2.22.92,2.27,2.36.04,1.13,0,2.25,0,3.38Z"/>
      <path class="cls-1" d="m90.17,100.34c0-1.13-.04-2.26.01-3.38.06-1.35.99-2.25,2.22-2.26,1.23-.01,2.22.89,2.25,2.22.06,2.25.05,4.51,0,6.76-.03,1.34-.99,2.25-2.21,2.27-1.28.01-2.18-.93-2.27-2.37,0-.09,0-.19,0-.28,0-.99,0-1.97,0-2.96h0Z"/>
      <path class="cls-1" d="m65.36,15.89c-.06,1.22-1.14,2.2-2.35,2.13-1.22-.06-2.19-1.14-2.13-2.35.06-1.22,1.13-2.19,2.35-2.13,1.22.06,2.19,1.14,2.13,2.35Z"/>
      <path class="cls-1" d="m74.37,15.79c0,1.22-1.03,2.24-2.25,2.24-1.22,0-2.24-1.03-2.23-2.25,0-1.23,1.02-2.24,2.25-2.24,1.22,0,2.24,1.03,2.24,2.25Z"/>
      <path class="cls-1" d="m83.39,15.82c-.02,1.22-1.07,2.23-2.28,2.2-1.22-.02-2.22-1.06-2.2-2.28.02-1.23,1.06-2.22,2.28-2.2,1.22.02,2.22,1.06,2.2,2.28Z"/>
    </g>
  </g>
</svg>