<?xml version="1.0" encoding="UTF-8"?>
<svg id="Capa_2" data-name="Capa 2" xmlns="http://www.w3.org/2000/svg" viewBox="0 0 109.52 103.7">
  <defs>
    <style>
      .cls-1 {
        fill: #fff;
      }
    </style>
  </defs>
  <g id="Capa_1-2" data-name="Capa 1">
    <g>
      <path class="cls-1" d="m32.92,50.56c3.29-3.06,6.16-6.37,8.13-10.36,2.25-4.56,4.49-9.12,6.59-13.75,1.4-3.07,1.98-6.35,1.78-9.76-.15-2.52-.24-5.05-.27-7.57-.07-6.8,6.49-11.05,12.69-8.26,6.38,2.87,10.62,10.47,10.16,17.93-.34,5.59-1.85,10.9-3.65,16.14-.72,2.11-.07,3.55,2.59,3.52,8.92-.1,17.84,0,26.77-.09,4.91-.05,8.54,2,10.63,6.38,2.1,4.39,1.35,8.55-1.72,12.3-.1.12-.18.26-.27.38,5.49,5.87,3.3,13.72-2.78,16.74,1.24,2.57,1.59,5.25.7,8.01-.9,2.79-2.79,4.72-5.4,6.01.39,1.08.9,2.1,1.12,3.19,1.28,6.15-3.66,12.18-10.07,12.27-5.05.07-10.1.02-15.16.02-9.98,0-19.96-.05-29.94.02-4.34.03-8.18-1.15-11.51-3.95-.12-.1-.26-.16-.44-.27-2.07,3.24-5.08,4.29-8.79,4.22-7.13-.12-14.26-.03-21.39-.04-2.07,0-2.67-.6-2.67-2.7,0-17.36,0-34.71,0-52.07,0-2.06.63-2.68,2.71-2.68,7.09,0,14.18.08,21.27-.03,3.78-.06,6.88.97,8.94,4.38Zm33.53,49.2c7.62,0,15.23,0,22.85,0,2.99,0,5.24-1.32,6.43-4.02,1.12-2.53.28-4.86-1.42-6.89-.6-.72-1.15-1.39-.78-2.4.36-.97,1.16-1.25,2.11-1.4,2.52-.41,4.53-2.27,5.02-4.72.44-2.17-.12-4.09-1.66-5.74-1.37-1.46-.83-3.09,1.11-3.53.28-.06.56-.11.83-.19,2.61-.68,4.53-2.9,4.61-5.5.07-2.54-.98-4.59-3.13-6-.9-.6-1.53-1.34-1.16-2.42.19-.56.72-1.06,1.22-1.44,2.65-2.02,3.68-5.16,2.74-8.24-.81-2.64-3.68-5.06-7.03-5.02-9.24.13-18.49.03-27.74.06-2.24,0-4.08-.73-5.35-2.6-1.13-1.66-1.25-3.45-.62-5.36,1.74-5.3,3.37-10.63,3.63-16.26.25-5.4-2.13-9.49-6.22-12.72-.74-.59-1.69-1-2.61-1.26-3.16-.9-6.17,1.38-6.21,4.68-.02,1.51.07,3.01.15,4.52.24,4.45.37,8.89-1.39,13.12-4.16,10.02-8.38,20.01-16.65,27.54-.95.87-1.23,1.84-1.23,3.11.05,12.18.04,24.36,0,36.54,0,.89.25,1.55.86,2.16,2.52,2.55,5.53,3.97,9.15,3.97,7.5,0,14.99,0,22.49,0Zm-62.48,0c.49,0,.89,0,1.29,0,6.56,0,13.11,0,19.67,0,3.39,0,5.14-1.73,5.14-5.09,0-13.16,0-26.31,0-39.47,0-3.27-1.79-5.06-5.06-5.07-6.64,0-13.28,0-19.92,0-.36,0-.71.03-1.12.05v49.57Z"/>
      <path class="cls-1" d="m27.32.02c1.03-.04,2,.76,1.99,1.9-.05,4.42,3.61,8.74,8.79,8.84,1.16.02,1.96.9,1.95,1.94,0,1.04-.8,1.92-1.96,1.93-4.68.04-8.67,3.86-8.77,8.72-.02,1.19-.84,1.98-1.89,2.01-1.08.04-1.9-.79-2.01-2.02-.46-5.19-3.54-8.29-8.64-8.7-1.25-.1-2.08-.88-2.08-1.96,0-1.08.82-1.85,2.08-1.95,5.1-.41,8.17-3.51,8.64-8.7.11-1.19.85-1.98,1.9-2.01Zm3.17,12.7c-.95-.99-2.18-2.26-3.05-3.16-.98.99-2.23,2.24-3.11,3.14.91.9,2.16,2.15,3.07,3.05.9-.88,2.17-2.12,3.09-3.03Z"/>
      <path class="cls-1" d="m81.21,12.61c.05-1,.82-1.83,1.93-1.84,4.85-.05,8.77-4.01,8.81-8.82.01-1.15.93-1.94,1.97-1.92,1.04.02,1.81.81,1.92,1.99.5,5.31,3.43,8.23,8.74,8.73,1.18.11,1.97.88,1.99,1.92.02,1.08-.81,1.88-2.05,1.99-5.15.44-8.23,3.52-8.67,8.67-.11,1.24-.91,2.07-1.99,2.05-1.08-.02-1.83-.84-1.93-2.11-.38-5.01-3.6-8.23-8.61-8.61-1.31-.1-2.17-.94-2.11-2.05Zm9.56.06c.98.98,2.23,2.22,3.13,3.12.93-.92,2.2-2.15,3.07-3.01-.94-.98-2.19-2.27-3.07-3.19-.97.96-2.2,2.18-3.13,3.09Z"/>
    </g>
  </g>
</svg>