<?xml version="1.0" encoding="UTF-8"?>
<svg id="Capa_2" data-name="Capa 2" xmlns="http://www.w3.org/2000/svg" xmlns:xlink="http://www.w3.org/1999/xlink" viewBox="0 0 136.4 131.27">
  <defs>
    <style>
      .cls-1 {
        fill: url(#linear-gradient-2);
      }

      .cls-2 {
        fill: #fff;
      }

      .cls-3 {
        fill: url(#linear-gradient);
      }
    </style>
    <linearGradient id="linear-gradient" x1="-128.63" y1="1328.04" x2="2.65" y2="1328.04" gradientTransform="translate(-875.31 -873.58) rotate(-47.77)" gradientUnits="userSpaceOnUse">
      <stop offset="0" stop-color="aqua"/>
      <stop offset=".14" stop-color="#00d9da"/>
      <stop offset=".3" stop-color="#00b0b3"/>
      <stop offset=".47" stop-color="#009194"/>
      <stop offset=".63" stop-color="#007a7e"/>
      <stop offset=".78" stop-color="#006c71"/>
      <stop offset=".92" stop-color="#01686d"/>
    </linearGradient>
    <linearGradient id="linear-gradient-2" x1="-1825.76" y1="2111.98" x2="-1781.83" y2="2111.98" gradientTransform="translate(-2614.62 -406.2) rotate(-119.8)" xlink:href="#linear-gradient"/>
  </defs>
  <g id="Capa_1-2" data-name="Capa 1">
    <g>
      <path class="cls-3" d="m109.75,17.04c26.84,24.36,28.85,65.87,4.48,92.71-24.36,26.84-65.87,28.85-92.71,4.48C-5.32,89.87-7.33,48.36,17.04,21.52,41.4-5.32,82.91-7.33,109.75,17.04Z"/>
      <g>
        <path class="cls-2" d="m70.61,17.9c.34.38.74.72,1,1.14,1.06,1.68,2.09,3.38,3.11,5.08,1.26,2.1,1.02,4.39-.61,6.16-1.58,1.71-4.12,2.21-6.21,1.21-2.17-1.03-3.39-3.23-2.99-5.53.11-.63.38-1.25.7-1.8,1.03-1.76,2.09-3.5,3.19-5.22.25-.4.66-.69,1-1.03.27,0,.54,0,.82,0Zm-.44,3.92c-.86,1.42-1.66,2.68-2.39,3.97-.57,1.02-.27,2.15.66,2.91,1.03.83,2.43.83,3.46,0,.93-.75,1.23-1.9.66-2.91-.73-1.3-1.53-2.56-2.39-3.97Z"/>
        <path class="cls-2" d="m43.45,91.02c0,1.27,0,2.41,0,3.55-.01,1.28-.46,1.73-1.72,1.73-3.46,0-6.91,0-10.37,0-1.21,0-1.68-.46-1.68-1.69,0-7.21,0-14.42,0-21.64,0-1.21.48-1.67,1.7-1.67,3.43,0,6.86,0,10.29,0,1.32,0,1.76.44,1.78,1.76,0,.37,0,.75,0,1.21,1.71-.2,3.32-.38,4.94-.57,2.89-.34,5.77-.8,8.67-1.01,4.15-.31,7.79,1.04,10.76,3.95.88.86,1.58,1.11,2.8.72,1.26-.4,2.65-.39,4.08-.57,0-.12,0-.38,0-.65.1-2.36.22-4.72.29-7.09.02-.53.02-1.12-.18-1.59-.67-1.54-1.45-3.03-2.17-4.55-.29-.61-.72-.67-1.33-.54-1.98.42-3.98.58-6,.24-2.4-.41-4.4-1.53-5.95-3.41-1.64-1.98-3.48-3.75-5.68-5.11-.88-.54-1.8-1.01-2.7-1.52-.99-.57-1.1-1.67-.2-2.34,4.64-3.44,11.1-4.24,16.19-1.54,4.28,2.28,6.3,6.05,6.9,10.73.05.43.26.86.49,1.24.51.85,1.08,1.66,1.69,2.6.3-1.03.6-1.92.8-2.83.06-.27-.11-.62-.25-.89-1.84-3.52-2.68-7.21-1.47-11.1,1.61-5.13,5.37-8.02,10.38-9.45,2.44-.69,4.94-.72,7.44-.32.64.1,1.25.27,1.48.97.23.68-.07,1.2-.53,1.69-2.72,2.91-3.91,6.45-4.34,10.33-.36,3.26-2.05,5.72-4.88,7.3-1.46.81-3.09,1.32-4.62,2.01-.3.13-.63.42-.74.71-.3.83-.5,1.71-.68,2.61,1.23-1.09,2.61-1.84,4.2-2.2,2.36-.53,4.6-.18,6.71.97,1.1.6,1.18,1.57.3,2.46-1.37,1.4-2.82,2.74-4.03,4.26-1.87,2.36-4.31,3.29-7.2,3.31-.38,0-.75,0-1.14,0,0,1.46-.03,2.87.01,4.28.01.49,1.19.86,1.84.63,1.91-.69,3.86-.87,5.72.01,1.03.49,1.9,1.31,2.86,1.96.32.22.65.5,1.01.57,2.2.42,3.97,1.41,5.1,3.42.13.23.43.39.68.51.59.28,1.22.47,1.8.77,1.32.66,1.97,1.78,1.96,3.23-.01,1.45-.77,2.42-2.1,3.01-6.08,2.65-12.12,5.39-18.22,7.97-8.19,3.45-16.04,2.67-23.43-2.28-1.72-1.15-3.32-2.47-5-3.67-1.63-1.17-3.46-1.94-5.42-2.36-.24-.05-.48-.07-.83-.12Zm0-2.74c4.08.46,7.36,2.43,10.38,4.93.69.57,1.42,1.09,2.17,1.59,3.47,2.35,7.23,3.85,11.46,4,3.4.12,6.65-.51,9.76-1.87,5.92-2.6,11.84-5.19,17.75-7.82.32-.14.75-.52.75-.79,0-.28-.41-.66-.72-.82-1.9-.95-3.93-1.3-6.02-.9-4.32.83-8.63,1.72-12.95,2.6-1.01.21-2.09.29-2.99.73-2.47,1.2-4.52.98-6.48-.92-2.38-2.31-4.76-4.63-7.13-6.95-.08-.08-.16-.15-.23-.23-.61-.65-.66-1.4-.13-1.96.54-.58,1.35-.55,2.03.06.16.15.31.3.47.45,2.34,2.28,4.67,4.57,7.02,6.83,1.05,1.01,2.48,1.03,3.36.11.9-.94.81-2.32-.25-3.34-1.9-1.83-3.8-3.66-5.73-5.47-2.61-2.45-5.73-3.5-9.28-3.12-3.87.42-7.72.91-11.58,1.39-1.65.21-1.65.23-1.65,1.9,0,3.15,0,6.31,0,9.58Zm-2.74-14.21h-8.27v19.5h8.27v-19.5Zm37.54-17.45c.17-.38.29-.61.4-.86,1.35-2.98,2.98-5.8,4.92-8.44.64-.87,1.39-1.09,2.07-.61.71.49.73,1.3.1,2.22-.66.96-1.37,1.9-1.94,2.92-1.09,1.92-2.11,3.89-3.24,5.99,3.56-.8,5.99-3.41,6.38-6.74.41-3.51,1.38-6.81,3.47-9.72.04-.05.03-.14.05-.22-7.74-.51-15.93,6.05-12.2,15.46Zm-7.86-.06c-2.58-7.21-11.38-8.18-15.97-5.28,1.14.84,2.38,1.61,3.43,2.57,1.4,1.28,2.66,2.71,3.99,4.08,1.86,1.92,5.8,2.82,8.24,1.77-1.25-.89-2.35-1.85-3.59-2.52-1.54-.84-3.2-1.45-4.83-2.14-.68-.29-1.09-.74-.99-1.49.09-.67.55-1.07,1.21-1.13.31-.03.64.08.95.18,2.69.84,5.16,2.12,7.55,3.96Zm19.38,27.14c0-.06.01-.13.02-.19-.71-.13-1.44-.2-2.14-.4-.46-.14-.99-.36-1.28-.72-1.79-2.28-4.05-2.87-6.63-1.61-.59.29-1.11.32-1.71.06-.74-.33-1.51-.62-2.29-.85-1.43-.42-2.89-.52-4.48-.1,1.96,1.96,4.44,3.47,3.88,6.74,4.94-.99,9.78-1.96,14.61-2.93Zm-11.88-13.3c1.64,0,3.29.06,4.48-1.03,1.51-1.38,2.79-3.01,4.18-4.54-3.2-1.24-7.16,1.27-8.65,5.57Z"/>
        <path class="cls-2" d="m60.19,40.83c-.19,2.21-1.66,4.23-3.75,4.97-2.14.76-4.5.09-5.96-1.69-1.41-1.71-1.57-3.91-.41-5.85,1.08-1.8,2.17-3.58,3.27-5.37.74-1.2,1.88-1.19,2.63.02,1.1,1.78,2.23,3.55,3.25,5.37.44.78.65,1.69.97,2.54Zm-5.54-4.9c-.82,1.35-1.61,2.59-2.34,3.85-.62,1.08-.38,2.19.58,2.99,1.01.85,2.51.85,3.52,0,.93-.78,1.17-1.94.56-3-.72-1.25-1.49-2.46-2.33-3.84Z"/>
        <path class="cls-2" d="m91.04,35.85c-3.51,0-5.62-3.59-3.86-6.62.83-1.43,1.71-2.84,2.58-4.24.71-1.15,1.85-1.13,2.57.03.86,1.38,1.69,2.79,2.55,4.17,1.87,3.01-.48,6.62-3.84,6.67Zm0-7.78c-.59.96-1.11,1.78-1.59,2.63-.42.74-.25,1.51.41,2.04.67.54,1.67.55,2.34.02.66-.52.86-1.3.44-2.03-.48-.85-1.01-1.67-1.6-2.65Z"/>
        <path class="cls-2" d="m38.21,88.48c-.02.9-.83,1.64-1.73,1.59-.88-.05-1.59-.8-1.57-1.67.02-.91.8-1.62,1.72-1.58.88.04,1.59.79,1.57,1.66Z"/>
      </g>
      <path class="cls-1" d="m103.51,90.24c10.53-6.03,23.95-2.38,29.98,8.14,6.03,10.53,2.38,23.95-8.14,29.98-10.53,6.03-23.95,2.38-29.98-8.14-6.03-10.53-2.38-23.95,8.14-29.98Z"/>
    </g>
  </g>
</svg>