<?xml version="1.0" encoding="UTF-8"?>
<svg id="Capa_2" data-name="Capa 2" xmlns="http://www.w3.org/2000/svg" xmlns:xlink="http://www.w3.org/1999/xlink" viewBox="0 0 138.62 131.27">
  <defs>
    <style>
      .cls-1 {
        fill: url(#linear-gradient-2);
      }

      .cls-2 {
        fill: #fff;
      }

      .cls-3 {
        fill: url(#linear-gradient);
      }
    </style>
    <linearGradient id="linear-gradient" x1="-301.26" y1="1754.22" x2="-169.99" y2="1754.22" gradientTransform="translate(-1074.83 -1287.83) rotate(-47.77)" gradientUnits="userSpaceOnUse">
      <stop offset="0" stop-color="aqua"/>
      <stop offset=".14" stop-color="#00d9da"/>
      <stop offset=".3" stop-color="#00b0b3"/>
      <stop offset=".47" stop-color="#009194"/>
      <stop offset=".63" stop-color="#007a7e"/>
      <stop offset=".78" stop-color="#006c71"/>
      <stop offset=".92" stop-color="#01686d"/>
    </linearGradient>
    <linearGradient id="linear-gradient-2" x1="-2660.74" y1="2633.53" x2="-2616.81" y2="2633.53" gradientTransform="translate(-3479.94 -871.5) rotate(-119.8)" xlink:href="#linear-gradient"/>
  </defs>
  <g id="Capa_1-2" data-name="Capa 1">
    <g>
      <path class="cls-3" d="m109.75,17.04c26.84,24.36,28.85,65.87,4.48,92.71-24.36,26.84-65.87,28.85-92.71,4.48C-5.32,89.87-7.33,48.36,17.04,21.52,41.4-5.32,82.91-7.33,109.75,17.04Z"/>
      <g>
        <path class="cls-2" d="m110.15,67.27c-.68,1.71-2.29,2.32-3.73,3.11-.64.35-.85.77-.85,1.49.03,5.4.02,10.79.02,16.19,0,2.81-1.08,3.87-3.92,3.87-10.52,0-21.04,0-31.56.02-.6,0-1.27.17-1.79.47-8.57,4.91-17.11,9.86-25.66,14.79-2.36,1.36-3.82.96-5.18-1.4-2.53-4.38-5.07-8.76-7.57-13.15-.31-.54-.65-.78-1.28-.75-.94.05-1.88.03-2.82,0-2.02-.06-3.21-1.25-3.22-3.27-.02-2.64.01-5.28-.02-7.91,0-.46-.14-.96-.36-1.36-1.5-2.66-3.05-5.3-4.57-7.96-1.16-2.02-.72-3.62,1.32-4.81,1-.58,1.98-1.18,3-1.71.5-.26.66-.59.65-1.15-.02-5.06-.01-10.13-.01-15.19,0-2.54,1.12-3.67,3.65-3.67,9.82,0,19.65,0,29.47-.02.54,0,1.14-.16,1.61-.43,9.09-5.22,18.16-10.47,27.23-15.71,2.26-1.31,3.77-.91,5.07,1.33,2.71,4.69,5.44,9.38,8.12,14.09.31.54.63.78,1.27.75,1.09-.05,2.18-.02,3.27-.01,2.03.02,3.31,1.27,3.32,3.29.02,2.94-.01,5.88.02,8.82,0,.46.14.96.36,1.36,1.37,2.49,2.78,4.96,4.18,7.44v1.46Zm-84.61,21.67h77.06v-41.07H25.54v41.07Zm37.18-44.24c.02.07.03.13.05.2.44,0,.88-.04,1.32,0,1.48.17,2.74-.28,4.01-1.05,3.79-2.28,7.64-4.45,11.48-6.65,1.07-.62,1.68-.47,2.4.53,1.33,1.85,3.29,2.38,5.36,1.46,1.18-.53,1.73-.35,2.4.78.86,1.46,1.69,2.94,2.56,4.4.13.22.4.48.64.51.56.07,1.13.02,1.88.02-2.75-4.76-5.42-9.38-8.11-14.04-8.07,4.66-16.02,9.25-23.98,13.84Zm-22.28,60.44c7.59-4.38,15.03-8.68,22.48-12.99-1.79-.17-3.45-.38-5.1.66-3.35,2.12-6.84,4.01-10.28,5.98-1.03.59-1.66.45-2.34-.48-1.42-1.95-3.28-2.44-5.5-1.46-1.03.46-1.62.28-2.21-.7-.59-.99-1.16-1.99-1.73-2.98-.79-1.38-1.14-1.52-2.84-1.07,2.5,4.33,4.99,8.64,7.53,13.03Zm39.73-64.92c-2.61,1.51-5.19,3-8,4.63h16.97c-.18-.34-.34-.59-.45-.86-.5-1.2-1.11-1.82-2.68-1.53-2.24.41-4.19-.59-5.84-2.24Zm-26.95,51.94c-.02-.06-.03-.11-.05-.17h-14.7c.27.48.43.92.72,1.24.19.22.59.43.84.38,2.5-.49,4.67.09,6.56,1.79.17.15.58.23.76.13,1.97-1.1,3.92-2.24,5.87-3.38Zm-30.87-18.34s.09-.04.14-.06v-5.83c-.94.54-1.76,1.02-2.65,1.53.87,1.5,1.69,2.93,2.51,4.35Zm83.25-6.3c.63-.38,1.13-.67,1.68-1-.54-.92-1.03-1.76-1.52-2.61-.05.03-.11.06-.16.09v3.52Z"/>
        <path class="cls-2" d="m64.11,49.77c9.61,0,19.22,0,28.84,0,1.73,0,1.99.22,2.22,1.9.28,2.03,1.64,3.38,3.7,3.66,1.6.22,1.86.5,1.86,2.08,0,7.34,0,14.68,0,22.01,0,1.58-.27,1.87-1.86,2.06-1.94.23-3.4,1.65-3.68,3.59-.27,1.81-.51,2.02-2.32,2.02-19.19,0-38.39,0-57.58,0-1.8,0-2.05-.22-2.29-2.03-.26-1.91-1.82-3.39-3.8-3.59-1.4-.14-1.79-.56-1.8-1.96,0-7.4,0-14.8,0-22.2,0-1.41.35-1.79,1.79-1.98,2.28-.31,3.62-1.72,3.83-4.02.1-1.14.59-1.55,1.9-1.55,9.4,0,18.8,0,28.2,0,.33,0,.67,0,1,0Zm33.53,28.72c.04.06.08.11.12.17.02-.09.05-.18.05-.26,0-6.55,0-13.1.02-19.64,0-.49-.19-.66-.63-.8-2.21-.72-3.8-2.16-4.52-4.37-.26-.79-.64-.91-1.36-.91-18.16.02-36.31.01-54.47.01h-1.02c-.09.27-.17.49-.25.72-.77,2.24-2.28,3.77-4.52,4.51-.62.2-.77.48-.76,1.08.02,4.43.01,8.85.01,13.28,0,2.12,0,4.24,0,6.41,2.89.78,4.74,2.61,5.51,5.52h1.12c18.01,0,36.01,0,54.02.02.94,0,1.49-.11,1.82-1.17.27-.88.88-1.77,1.58-2.38.98-.86,2.18-1.46,3.28-2.17Z"/>
        <path class="cls-2" d="m64.08,54.87c7.49,0,13.53,6.03,13.54,13.52.02,7.52-6.06,13.61-13.56,13.61-7.48,0-13.59-6.15-13.57-13.63.03-7.46,6.11-13.5,13.59-13.5Zm10.63,13.59c.02-5.88-4.71-10.66-10.58-10.68-5.87-.02-10.69,4.71-10.73,10.56-.04,5.87,4.79,10.74,10.65,10.75,5.86,0,10.64-4.76,10.66-10.62Z"/>
        <path class="cls-2" d="m45.39,68.42c0,2.44-1.95,4.37-4.39,4.36-2.4-.01-4.33-1.93-4.35-4.32-.02-2.41,1.95-4.42,4.36-4.43,2.41-.02,4.39,1.97,4.39,4.39Zm-4.39-1.47c-.77.02-1.44.7-1.44,1.47,0,.83.69,1.48,1.54,1.44.81-.03,1.41-.68,1.38-1.5-.03-.8-.69-1.44-1.48-1.42Z"/>
        <path class="cls-2" d="m87.09,72.79c-2.42-.01-4.4-2.02-4.36-4.41.04-2.38,2-4.32,4.37-4.34,2.41-.02,4.39,1.97,4.39,4.39,0,2.43-1.96,4.38-4.4,4.36Zm0-2.92c.81,0,1.45-.61,1.47-1.41.02-.8-.61-1.47-1.39-1.51-.8-.04-1.53.67-1.53,1.48,0,.79.65,1.43,1.45,1.44Z"/>
        <path class="cls-2" d="m64.05,58.95c.9.11,1.32.6,1.5,1.41.06.28.33.62.58.73,1.31.56,2.31,1.43,2.9,2.73.39.86.16,1.64-.58,2.03-.74.39-1.49.13-1.99-.7-.88-1.43-2.29-1.94-3.6-1.18-.43.25-.79.81-.92,1.31-.18.66.39,1.05.95,1.25.66.23,1.35.35,2.01.54.64.18,1.29.34,1.9.6,1.88.83,2.85,2.36,2.77,4.29-.07,1.69-1.2,3.06-3.12,3.73-.53.18-.95.3-1.01,1.03-.06.79-.68,1.19-1.5,1.13-.77-.06-1.26-.51-1.29-1.27-.02-.54-.26-.7-.72-.86-1.58-.55-2.7-1.6-3.24-3.2-.33-.96-.01-1.72.8-2.04.79-.31,1.52.07,1.91,1.01.73,1.72,3.47,2.3,4.86,1.03.6-.55.55-1.46-.24-1.92-.64-.37-1.4-.54-2.11-.77-.72-.23-1.49-.33-2.18-.63-1.69-.72-2.76-1.95-2.76-3.89,0-1.95,1-3.26,2.72-4.04.55-.25.95-.43.98-1.17.04-.76.69-1.07,1.36-1.15Z"/>
      </g>
      <path class="cls-1" d="m105.73,90.24c10.53-6.03,23.95-2.38,29.98,8.14,6.03,10.53,2.38,23.95-8.14,29.98-10.53,6.03-23.95,2.38-29.98-8.14-6.03-10.53-2.38-23.95,8.14-29.98Z"/>
    </g>
  </g>
</svg>