<?xml version="1.0" encoding="UTF-8"?>
<svg id="Capa_2" data-name="Capa 2" xmlns="http://www.w3.org/2000/svg" xmlns:xlink="http://www.w3.org/1999/xlink" viewBox="0 0 81.16 97.37">
  <defs>
    <style>
      .cls-1 {
        fill: #fff;
      }

      .cls-2 {
        filter: url(#drop-shadow-1);
      }
    </style>
    <filter id="drop-shadow-1" filterUnits="userSpaceOnUse">
      <feOffset dx="3" dy="3"/>
      <feGaussianBlur result="blur" stdDeviation="2"/>
      <feFlood flood-color="#000" flood-opacity=".73"/>
      <feComposite in2="blur" operator="in"/>
      <feComposite in="SourceGraphic"/>
    </filter>
  </defs>
  <g id="Capa_1-2" data-name="Capa 1">
    <g class="cls-2">
      <path class="cls-1" d="m68.16,48c0,4.49-.01,8.69.02,12.88,0,.34.25.75.5,1.02,1.02,1.08,2.1,2.11,3.14,3.17.89.91.96,1.87.21,2.58-.72.68-1.62.6-2.5-.28-3.64-3.63-7.28-7.26-10.9-10.9-.78-.79-1.68-1.26-2.79-1.19-1.32.09-2.33.72-2.81,1.98-.51,1.32-.24,2.54.76,3.55,2.62,2.64,5.26,5.26,7.88,7.89,1.35,1.35,1.39,1.76.29,3.28-2.25,3.1-2.23,7.13.04,10.21.24.33.5.64.75.96.74.95.72,1.89-.03,2.51-.75.62-1.7.45-2.47-.44-1.41-1.64-2.45-3.47-2.93-5.64h-5.53c-.64,3.43-.04,6.64,1.61,9.67.13.24.24.5.42.69,1.66,1.7,1.44,3.83,1.34,5.91-.04.9-.76,1.52-1.6,1.52-.85,0-1.69-.64-1.57-1.51.28-2.17-.72-3.85-1.7-5.64-1.72-3.13-2.29-6.54-1.86-10.1.02-.16.02-.33.03-.6-.44,0-.84,0-1.23,0-14.94,0-29.88,0-44.83,0-1.94,0-2.39-.45-2.39-2.38C0,52.23,0,27.32,0,2.4,0,.45.44,0,2.36,0,23.53,0,44.69,0,65.85,0c1.85,0,2.31.47,2.31,2.35,0,13.32,0,26.64-.02,39.96,0,.82.24,1.37.82,1.93,2.54,2.48,5.01,5.03,7.55,7.51,3.16,3.1,4.68,6.84,4.65,11.27-.04,7.06-.03,14.13,0,21.2.01,2.58-.61,4.97-2.14,7.05-.84,1.15-1.31,2.33-1.12,3.76.04.27.02.54,0,.81-.08.9-.74,1.55-1.59,1.52-.9-.02-1.53-.53-1.59-1.4-.15-2.03-.23-4.06,1.17-5.8,1.54-1.93,2.07-4.15,2.04-6.62-.07-6.86-.05-13.72-.02-20.59.02-3.51-1.19-6.45-3.7-8.9-1.97-1.93-3.91-3.9-6.05-6.05ZM3.29,76.2h53.53c.58-1.69,1.04-3.28,1.7-4.77.3-.68.28-1.03-.24-1.53-2.3-2.24-4.59-4.5-6.81-6.81-3.54-3.68-1.98-9.55,2.87-10.82,2.45-.64,4.62-.02,6.43,1.75,1.34,1.31,2.63,2.66,4.07,4.12V3.3H3.29v72.91Z"/>
      <path class="cls-1" d="m33.98,19.47c-7.3,0-14.61,0-21.91,0-1.86,0-2.33-.47-2.33-2.33,0-2.87,0-5.75,0-8.62,0-1.46.57-2.02,2.03-2.02,14.88,0,29.75,0,44.63,0,1.46,0,2.02.57,2.03,2.03,0,2.98,0,5.95,0,8.93,0,1.45-.57,2.03-2.03,2.03-7.47,0-14.94,0-22.42,0Zm21.15-9.67H13.06v6.37h42.07v-6.37Z"/>
      <path class="cls-1" d="m22.97,25.18c.41-.45.98-1.11,1.6-1.73.87-.87,1.78-.94,2.49-.25.72.7.68,1.64-.16,2.5-2.73,2.76-5.47,5.51-8.31,8.38.8,0,1.56-.01,2.31,0,1.11.03,1.82.67,1.81,1.62,0,.95-.71,1.61-1.82,1.61-3.11.02-6.22.02-9.33,0-1.2,0-1.81-.62-1.82-1.82-.02-3.11-.02-6.22,0-9.33,0-1.2.62-1.81,1.82-1.82,3.11-.02,6.22-.05,9.33.03.62.01,1.23.46,2.08.8Zm-9.94,8.84h3.96c-1.31-1.33-2.61-2.65-3.96-4.02v4.02Zm7.23-6.38h-4.63c.69.76,1.44,1.59,2.21,2.45.81-.82,1.57-1.59,2.42-2.45Z"/>
      <path class="cls-1" d="m22.97,41.41c.41-.45.98-1.11,1.6-1.73.87-.87,1.78-.94,2.49-.25.72.7.68,1.64-.16,2.5-2.73,2.76-5.47,5.51-8.31,8.38.8,0,1.56-.01,2.31,0,1.11.03,1.82.67,1.81,1.62,0,.95-.71,1.61-1.82,1.61-3.11.02-6.22.02-9.33,0-1.2,0-1.81-.62-1.82-1.82-.02-3.11-.02-6.22,0-9.33,0-1.2.62-1.81,1.82-1.82,3.11-.02,6.22-.05,9.33.03.62.01,1.23.46,2.08.8Zm-9.93,8.85h4.07c-1.37-1.37-2.68-2.69-4.07-4.07v4.07Zm7.25-6.35h-4.44c.58.67,1.31,1.53,2.02,2.36.8-.78,1.57-1.53,2.41-2.36Z"/>
      <path class="cls-1" d="m22.72,57.96c.7-.77,1.3-1.5,1.98-2.16.8-.79,1.74-.79,2.42-.08.65.68.64,1.58-.12,2.35-2.75,2.79-5.52,5.56-8.43,8.48.76,0,1.43,0,2.1,0,1.29,0,2.03.59,2.05,1.59.02,1.01-.73,1.65-1.99,1.65-3.01,0-6.02,0-9.02,0-1.38,0-1.95-.59-1.96-1.99,0-3.01,0-6.02,0-9.02,0-1.38.59-1.96,1.99-1.96,2.94,0,5.88.02,8.82-.01.87,0,1.59.18,2.17,1.17Zm-9.67,4.42v4.1h4.08c-1.37-1.38-2.67-2.68-4.08-4.1Zm4.62.06c.88-.85,1.65-1.61,2.37-2.3h-4.44c.69.77,1.43,1.59,2.07,2.3Z"/>
      <path class="cls-1" d="m43.72,30.84c-4.12,0-8.25.01-12.37-.01-.49,0-1.14-.04-1.41-.34-.38-.42-.74-1.19-.59-1.64.16-.51.85-1.07,1.4-1.18.94-.19,1.95-.06,2.93-.06,7.4,0,14.81,0,22.21,0,.27,0,.54,0,.81,0,1.04.05,1.72.7,1.72,1.62,0,.92-.68,1.6-1.72,1.62-2.06.03-4.12,0-6.19,0-2.27,0-4.53,0-6.8,0Z"/>
      <path class="cls-1" d="m43.87,34.08c4.19,0,8.38,0,12.58,0,1.31,0,1.98.55,1.98,1.62,0,1.07-.67,1.62-1.98,1.62-8.42,0-16.84,0-25.26,0-1.31,0-1.98-.55-1.97-1.62,0-1.07.66-1.62,1.98-1.62,4.23,0,8.45,0,12.68,0Z"/>
      <path class="cls-1" d="m43.93,43.82c4.06,0,8.11,0,12.17,0,.27,0,.54-.02.81.01.89.1,1.51.78,1.5,1.62s-.63,1.54-1.53,1.59c-.94.05-1.89.02-2.84.02-7.47,0-14.94,0-22.41,0-.34,0-.68.03-1.01-.03-.87-.17-1.4-.71-1.39-1.61,0-.9.54-1.43,1.42-1.58.3-.05.61-.02.91-.02,4.12,0,8.25,0,12.37,0Z"/>
      <path class="cls-1" d="m40.49,69.79c-3.08,0-6.15,0-9.23,0-1.29,0-2.03-.59-2.04-1.6-.02-1.01.73-1.64,2-1.64,6.22,0,12.44,0,18.66,0,1.29,0,2.03.59,2.05,1.6.02,1.04-.75,1.64-2.1,1.65-3.11,0-6.22,0-9.33,0Z"/>
      <path class="cls-1" d="m38.14,50.31c2.3,0,4.6,0,6.9,0,1.28,0,2.02.61,2.02,1.62,0,1.01-.75,1.62-2.02,1.62-4.6,0-9.19,0-13.79,0-1.28,0-2.02-.61-2.02-1.62,0-1.01.74-1.61,2.02-1.62,2.3,0,4.6,0,6.9,0Z"/>
      <path class="cls-1" d="m38.21,60.05c2.2,0,4.39,0,6.59,0,1.48,0,2.23.54,2.25,1.6.02,1.09-.76,1.65-2.3,1.65-4.39,0-8.79,0-13.18,0-1.57,0-2.33-.52-2.35-1.6-.02-1.11.76-1.65,2.4-1.65,2.2,0,4.39,0,6.59,0Z"/>
    </g>
  </g>
</svg>