<?xml version="1.0" encoding="UTF-8"?>
<svg id="Capa_2" data-name="Capa 2" xmlns="http://www.w3.org/2000/svg" xmlns:xlink="http://www.w3.org/1999/xlink" viewBox="0 0 138.62 131.27">
  <defs>
    <style>
      .cls-1 {
        fill: url(#linear-gradient-2);
      }

      .cls-2 {
        fill: #fff;
      }

      .cls-3 {
        fill: url(#linear-gradient);
      }
    </style>
    <linearGradient id="linear-gradient" x1="-170.61" y1="1812.07" x2="-39.33" y2="1812.07" gradientTransform="translate(-1205.47 -1229.97) rotate(-47.77)" gradientUnits="userSpaceOnUse">
      <stop offset="0" stop-color="aqua"/>
      <stop offset=".14" stop-color="#00d9da"/>
      <stop offset=".3" stop-color="#00b0b3"/>
      <stop offset=".47" stop-color="#009194"/>
      <stop offset=".63" stop-color="#007a7e"/>
      <stop offset=".78" stop-color="#006c71"/>
      <stop offset=".92" stop-color="#01686d"/>
    </linearGradient>
    <linearGradient id="linear-gradient-2" x1="-2507.62" y1="2897.69" x2="-2463.69" y2="2897.69" gradientTransform="translate(-3633.05 -607.35) rotate(-119.8)" xlink:href="#linear-gradient"/>
  </defs>
  <g id="Capa_1-2" data-name="Capa 1">
    <g>
      <path class="cls-3" d="m109.75,17.04c26.84,24.36,28.85,65.87,4.48,92.71-24.36,26.84-65.87,28.85-92.71,4.48C-5.32,89.87-7.33,48.36,17.04,21.52,41.4-5.32,82.91-7.33,109.75,17.04Z"/>
      <g>
        <path class="cls-2" d="m109.58,80.33c-.48,1.55-1.57,2.43-3.08,2.91-1.14.37-2.23.85-3.35,1.28-2.34.9-4.14.11-5.08-2.23-.08-.19-.16-.38-.28-.67-1.25.52-2.49,1.03-3.75,1.55.22,2.73-.95,4.56-3.58,5.52.41,1.64.23,3.19-.88,4.54-1.11,1.34-2.59,1.84-4.28,1.76-.61,3.79-1.78,4.8-5.88,5.07-.14,2.07-1.06,3.66-3.04,4.49-1.97.82-3.71.16-5.31-.98-2.69,3.2-7.05,2.52-8.72-1.04-2.75.85-4.89.06-6.36-2.43-4.05,1.75-7.58-1.2-7.23-5.08-.27-.04-.54-.09-.81-.13-3.07-.44-4.94-3.58-3.87-6.49.07-.19.12-.42.25-.57,1.59-1.82,1.03-3.81.4-5.76-.15-.45-.6-.89-1.03-1.15-.71-.42-1.51-.69-2.35-1.05-.17.35-.33.69-.49,1.04-.9,1.93-2.8,2.69-4.74,1.86-1.46-.62-2.91-1.26-4.35-1.93-1.93-.89-2.68-2.8-1.82-4.75,3.41-7.73,6.82-15.45,10.25-23.17.88-1.98,2.8-2.7,4.79-1.85,1.43.61,2.86,1.24,4.28,1.89,1.94.89,2.67,2.78,1.84,4.74-.23.55-.48,1.09-.69,1.56,2.82,2.07,5.82,2.43,9.12,1.49,2.2-.63,4.5-.92,6.78-.27.79.23,1.53.64,2.31.91.3.1.72.15.97.01,3.47-2,7.05-2.13,10.74-.71,1.21.47,2.42.94,3.64,1.39,1.3.48,2.54.41,3.73-.35.59-.38,1.52-.56,1.74-1.07.21-.48-.3-1.28-.52-1.93-.61-1.84.2-3.69,2.01-4.43,1.44-.6,2.9-1.14,4.36-1.7,2.15-.82,4.03,0,4.87,2.14,1.94,4.99,3.87,9.98,5.81,14.97,1.19,3.07,2.39,6.14,3.59,9.21v1.41Zm-60.24-18.64c-2.35,5.31-4.67,10.56-7,15.84,1.15.55,2.3.99,3.33,1.61,1.15.69,1.4,1.99,1.76,3.24,1.53-1.29,3.2-1.76,5.06-1.11,1.86.65,2.86,2.06,3.27,3.93,2.79-.22,4.66.95,5.65,3.51,1.35-.36,2.62-.26,3.82.39,1.19.65,1.95,1.67,2.38,2.94,2.09-.48,3.84-.05,5.24,1.52.05.06.11.12.17.16,2.2,1.22,4.39,2.48,6.63,3.65.88.46,1.96.07,2.58-.72.6-.76.67-1.83.08-2.61-.3-.4-.74-.74-1.18-.99-2.75-1.58-5.52-3.12-8.27-4.71-.36-.21-.81-.55-.88-.9-.08-.41.09-.98.37-1.31.39-.47.97-.38,1.5-.08,2.2,1.24,4.4,2.47,6.6,3.71,1.43.8,2.84,1.64,4.29,2.4,1.45.77,3.1,0,3.39-1.56.19-.98-.29-1.92-1.33-2.51-2.6-1.48-5.21-2.94-7.81-4.42-.25-.14-.51-.28-.7-.48-.43-.45-.47-.99-.14-1.5.33-.52.83-.71,1.42-.51.27.09.51.25.76.39,2.54,1.43,5.08,2.85,7.61,4.29.67.38,1.35.55,2.09.28.93-.33,1.46-1.01,1.52-1.98.06-1.03-.46-1.77-1.35-2.28-3.96-2.25-7.89-4.53-11.88-6.73-.71-.39-1.63-.59-2.45-.59-.91,0-1.86.24-2.73.54-2.31.78-4.56,1.77-6.9,2.46-4.02,1.19-7.44.17-10.13-3.12-1-1.23-.85-2.21.49-3.03.67-.41,1.33-.82,1.99-1.24,3.03-1.91,5.64-4.32,8.34-7.01-1.01-.19-1.88-.54-2.71-.47-2.01.17-4.01.5-6.01.85-2.26.4-4.44.41-6.52-.77-.72-.41-1.5-.71-2.36-1.1Zm9.08,11.59c1.14,1.22,2.42,2.05,4.05,2.22,1.73.18,3.35-.29,4.95-.88,1.92-.71,3.83-1.49,5.78-2.13,2.39-.78,4.66-.58,6.89.75,3.64,2.17,7.36,4.21,11.03,6.32.54.31,1.01.73,1.53,1.06.17.11.43.22.59.16,1.2-.47,2.39-.98,3.66-1.51-2.1-5.43-4.19-10.8-6.3-16.25-.7.37-1.34.69-1.97,1.05-1.58.91-3.26,1.06-4.97.51-1.26-.4-2.51-.87-3.73-1.38-3.32-1.39-6.54-1.36-9.59.7-1.09.74-2.1,1.62-3.12,2.46-2.25,1.84-4.48,3.72-6.74,5.55-.62.5-1.33.89-2.06,1.37Zm-9.39-17.25c-.27-.26-.52-.64-.88-.81-1.36-.65-2.74-1.25-4.13-1.84-.8-.34-1.25-.16-1.62.67-3.39,7.65-6.77,15.3-10.15,22.96-.36.81-.18,1.25.64,1.62,1.35.61,2.7,1.21,4.06,1.8.85.37,1.28.19,1.67-.69,3.38-7.63,6.75-15.26,10.12-22.89.09-.21.15-.44.29-.82Zm52.59,26.36c.1-.03.33-.09.54-.17,1.33-.51,2.67-1.02,4-1.55.92-.36,1.1-.77.73-1.7-3-7.75-6.01-15.5-9.02-23.25-.37-.95-.78-1.12-1.76-.74-1.24.47-2.47.95-3.71,1.43-1.24.48-1.38.81-.9,2.06,1.71,4.41,3.42,8.82,5.13,13.22,1.25,3.22,2.5,6.44,3.75,9.66.2.52.41,1.03,1.24,1.03Zm-42.59,7.84c-.01-1.27-.72-2.18-1.78-2.47-1.03-.28-1.9.11-2.46,1.1-1.04,1.83-2.09,3.65-3.12,5.48-.78,1.39-.44,2.81.82,3.5,1.24.68,2.63.18,3.37-1.24.97-1.86,1.94-3.73,2.89-5.6.15-.29.23-.62.28-.77Zm1.42,10.12c.89,0,1.61-.42,2.03-1.21.86-1.63,1.71-3.26,2.55-4.9.54-1.06.04-2.41-1.06-2.97-1.12-.57-2.44-.18-3,.9-.85,1.63-1.69,3.27-2.53,4.91-.82,1.6.21,3.28,2.01,3.27Zm-14.26-10.34c.08,1.14.78,2.07,1.81,2.34,1.11.29,1.91-.06,2.52-1.12.77-1.32,1.54-2.65,2.3-3.97.78-1.37.45-2.81-.81-3.49-1.22-.66-2.6-.18-3.34,1.17-.69,1.28-1.38,2.55-2.05,3.85-.2.38-.29.82-.43,1.23Zm22.8,4.35c-.63.04-1.33.24-1.73,1.01-.83,1.59-1.68,3.17-2.47,4.78-.16.32-.2.76-.13,1.12.22,1.01.89,1.64,1.91,1.82.99.17,1.86-.17,2.36-1.03.85-1.46,1.68-2.94,2.37-4.48.7-1.54-.49-3.22-2.32-3.23Zm3.27,7.03c.44.25.89.55,1.38.78,1.03.5,2.24.14,2.87-.82.61-.93.5-2.18-.37-2.89-.62-.51-1.37-.87-1.94-1.22-.67,1.43-1.29,2.76-1.93,4.15Z"/>
        <path class="cls-2" d="m69.74,25.65c1.06.25,2.14.43,3.17.77,6.44,2.11,10.72,8.44,10.23,15.05-.52,7.03-5.64,12.7-12.51,13.83-8.01,1.32-15.61-4.07-17.1-12.15-1.45-7.85,3.83-15.59,11.72-17.19.51-.1,1.01-.21,1.52-.31.99,0,1.98,0,2.97,0Zm-1.45,2.5c-6.86-.01-12.44,5.53-12.46,12.37-.01,6.87,5.52,12.44,12.36,12.47,6.84.02,12.45-5.54,12.48-12.37.02-6.84-5.55-12.45-12.38-12.47Z"/>
        <path class="cls-2" d="m44.68,58.91c-.83-.02-1.52-.76-1.49-1.58.03-.84.78-1.51,1.6-1.47.81.05,1.46.74,1.45,1.54-.01.83-.74,1.53-1.57,1.51Z"/>
        <path class="cls-2" d="m95.39,60.41c-.85,0-1.53-.7-1.52-1.54.01-.84.73-1.53,1.56-1.5.81.02,1.47.7,1.48,1.51,0,.84-.69,1.54-1.53,1.54Z"/>
        <path class="cls-2" d="m71.36,44.24c-.09-.96-.47-1.53-1.13-1.81-.69-.29-1.42-.47-2.15-.68-.67-.19-1.38-.3-2.03-.54-1.91-.72-2.98-2.22-2.97-4.07.01-1.82,1.12-3.41,2.97-4.09.62-.23,1-.42.97-1.2-.03-.69.57-1.18,1.21-1.18.67,0,1.25.5,1.22,1.25-.03.67.27.88.83,1.06,1.38.44,2.36,1.38,3,2.68.4.82.22,1.53-.48,1.87-.66.33-1.28.08-1.73-.71-.86-1.48-2.47-2.09-4-1.52-.96.36-1.5,1.05-1.49,1.89,0,.8.45,1.39,1.45,1.71.89.28,1.82.43,2.72.66,1.48.39,2.77,1.07,3.53,2.48,1.15,2.12.43,4.54-1.71,5.67-.43.23-.9.45-1.37.53-.58.1-.79.34-.75.92.04.65-.33,1.17-.96,1.21-.42.03-.89-.27-1.27-.52-.17-.11-.25-.48-.22-.71.07-.63-.26-.82-.8-.99-1.67-.51-2.85-1.57-3.44-3.24-.32-.92-.05-1.61.7-1.87.69-.24,1.32.11,1.63,1.01.82,2.41,4.6,2.43,5.88,1,.24-.27.31-.68.39-.85Z"/>
      </g>
      <path class="cls-1" d="m105.73,90.24c10.53-6.03,23.95-2.38,29.98,8.14,6.03,10.53,2.38,23.95-8.14,29.98-10.53,6.03-23.95,2.38-29.98-8.14-6.03-10.53-2.38-23.95,8.14-29.98Z"/>
    </g>
  </g>
</svg>