<?xml version="1.0" encoding="UTF-8"?>
<svg id="Capa_2" data-name="Capa 2" xmlns="http://www.w3.org/2000/svg" viewBox="0 0 35.89 35.89">
  <defs>
    <style>
      .cls-1 {
        fill: #00666c;
      }
    </style>
  </defs>
  <g id="Capa_2-2" data-name="Capa 2">
    <g>
      <path class="cls-1" d="m18.03,14.6c-1.83,0-3.32,1.49-3.32,3.31s1.49,3.32,3.32,3.32,3.32-1.49,3.32-3.32-1.49-3.31-3.32-3.31Z"/>
      <path class="cls-1" d="m22.15,9.38h-8.4c-2.4,0-4.34,1.94-4.34,4.34v8.4c0,2.39,1.95,4.34,4.34,4.34h8.4c2.4,0,4.34-1.95,4.34-4.34v-8.4c0-2.39-1.94-4.34-4.34-4.34Zm-4.11,13.72c-2.86,0-5.18-2.32-5.18-5.19s2.33-5.18,5.18-5.18,5.18,2.33,5.18,5.18-2.33,5.19-5.18,5.19Zm5.48-9.48c-.68,0-1.23-.55-1.23-1.23s.55-1.24,1.23-1.24,1.23.55,1.23,1.24-.55,1.23-1.23,1.23Z"/>
      <path class="cls-1" d="m17.95,0C8.04,0,0,8.03,0,17.94s8.04,17.95,17.95,17.95,17.94-8.04,17.94-17.95S27.86,0,17.95,0Zm10.52,22.12c0,3.48-2.84,6.32-6.32,6.32h-8.4c-3.49,0-6.32-2.83-6.32-6.32v-8.4c0-3.48,2.84-6.32,6.32-6.32h8.4c3.49,0,6.32,2.84,6.32,6.32v8.4Z"/>
    </g>
  </g>
</svg>