<?xml version="1.0" encoding="UTF-8"?>
<svg id="Capa_2" data-name="Capa 2" xmlns="http://www.w3.org/2000/svg" viewBox="0 0 1064.13 1064.12">
  <defs>
    <style>
      .cls-1 {
        fill: #fff;
      }

      .cls-2 {
        fill: #01686d;
      }
    </style>
  </defs>
  <g id="Capa_2-2" data-name="Capa 2">
    <g>
      <g>
        <path class="cls-1" d="m532.06,1044.12c-69.14,0-136.19-13.54-199.31-40.23-60.97-25.79-115.74-62.71-162.77-109.75-47.03-47.03-83.96-101.8-109.75-162.77-26.7-63.12-40.23-130.17-40.23-199.31s13.54-136.2,40.23-199.31c25.79-60.97,62.71-115.74,109.75-162.77,47.03-47.03,101.8-83.96,162.77-109.75,63.12-26.7,130.17-40.23,199.31-40.23s136.2,13.54,199.31,40.23c60.97,25.79,115.74,62.71,162.77,109.75s83.96,101.8,109.75,162.77c26.7,63.12,40.23,130.18,40.23,199.31s-13.54,136.2-40.23,199.31c-25.79,60.97-62.71,115.74-109.75,162.77-47.03,47.03-101.8,83.96-162.77,109.75-63.12,26.7-130.17,40.23-199.31,40.23Z"/>
        <path class="cls-2" d="m532.06,40c66.45,0,130.88,13,191.52,38.65,58.59,24.78,111.22,60.27,156.42,105.47,45.2,45.2,80.69,97.83,105.47,156.42,25.65,60.64,38.65,125.08,38.65,191.52s-13,130.88-38.65,191.52c-24.78,58.59-60.27,111.22-105.47,156.42-45.2,45.2-97.83,80.69-156.42,105.47-60.64,25.65-125.07,38.65-191.52,38.65s-130.88-13-191.52-38.65c-58.59-24.78-111.22-60.27-156.42-105.47-45.2-45.2-80.69-97.83-105.47-156.42-25.65-60.64-38.65-125.08-38.65-191.52s13-130.88,38.65-191.52c24.78-58.59,60.27-111.22,105.47-156.42,45.2-45.2,97.83-80.69,156.42-105.47,60.64-25.65,125.07-38.65,191.52-38.65m0-40C238.21,0,0,238.21,0,532.06s238.21,532.06,532.06,532.06,532.06-238.21,532.06-532.06S825.91,0,532.06,0h0Z"/>
      </g>
      <g>
        <path class="cls-2" d="m283.79,196.11c-28.95,14.21-54.89,33.96-76.94,58.01l56.1,60.37c15.38-18.11,34.04-32.96,54.69-43.54,21.5-11.08,46.47-12.94,67.59-13.53v-81.65c-37.61.53-69.77,4.85-101.44,20.33Z"/>
        <path class="cls-2" d="m487.5,289.92v35.97c-15.83-14.43-30.47-25.24-47.19-32.42-16.72-7.19-35.06-10.8-54.12-10.8-41.4,0-76.78,15.63-105.79,46.99-28.97,31.35-43.6,71.6-43.6,120.68s14.97,86.85,44.87,118.69c29.97,31.83,65.44,47.74,106.48,47.74,18.27,0,36.05-3.24,51.76-9.74,15.64-6.54,26.47-17.19,47.58-31.99v43.45h81.15v-328.57h-81.15Zm-22.88,227.7c-16.5,17.45-37.26,26.18-62.27,26.18s-44.72-8.9-61.27-26.61c-16.61-17.73-24.92-40.3-24.92-67.77s8.15-49.6,24.45-67.01c16.34-17.46,36.77-26.14,61.42-26.14s46.1,8.56,62.6,25.71c16.51,17.09,24.76,39.49,24.76,67.18s-8.25,51.05-24.76,68.46Z"/>
        <path class="cls-2" d="m857.28,403.49l-1.04,171.46c-.49,81.24-31.84,159.52-88.55,217.69-56.75,58.22-135.29,95.7-221.3,95.7-131.79,0-244.37-83.41-289.09-199.45-13.31-34.54-20.59-72.6-20.59-111.83,0-11.94-.24-23.78-.14-37.28,0-.08.11-.1.14-.03,3.07,10.87,17.63,34.87,40.38,56.13,13.99,13.07,32.68,22.26,52.11,29.57.02,0,.04.03.04.05,9.62,37.15,24.69,78.78,50.03,106.07,41.72,44.82,101.23,75.06,167.13,75.06,33.97,0,66.8-8.45,96.58-23.03,82.43-40.35,134.12-124.74,134.3-216.51l.18-92.77c0-22.43-.3-53.24-.3-55.09,0-32.25-27.46-58.72-59.71-58.72s-57.07,24.74-57.07,58.72v199.18s-.03.07-.07.07h-75.73s-.07-.03-.07-.07v-328.43s.03-.07.07-.07h75.73s.07.03.07.07v38.06c0,.07.09.1.13.04,10.59-15.18,31.22-25.71,45.8-31.65,14.63-5.96,28.09-8.93,43.42-8.93,31.52,0,58.11,11.01,80.08,32.99,18.47,18.74,27.49,46.36,27.49,82.99Z"/>
      </g>
    </g>
  </g>
</svg>