<?xml version="1.0" encoding="UTF-8"?>
<svg id="Capa_2" data-name="Capa 2" xmlns="http://www.w3.org/2000/svg" viewBox="0 0 58.52 43.98">
  <defs>
    <style>
      .cls-1 {
        fill: none;
        stroke: #01686d;
        stroke-width: .75px;
      }

      .cls-2 {
        fill: #01686d;
      }
    </style>
  </defs>
  <g id="Capa_2-2" data-name="Capa 2">
    <g>
      <path class="cls-2" d="m58.52,32.73c-.35,1.08-.83,2.07-1.75,2.81-2.02,1.62-4.82,1.5-6.62-.37-.4-.41-.59-.43-1.03-.04-1.74,1.54-3.78,1.95-5.96,1.2-2.22-.76-3.63-2.36-4.07-4.68-.71-3.75,2.23-7.31,5.97-7.28,1.33.01,2.56.38,3.62,1.19.28.21.51.29.88.14.86-.34,1.67.24,1.69,1.19.02,1.47,0,2.93.01,4.4,0,.56.06,1.1.34,1.6.51.93,1.57,1.39,2.63,1.14.97-.22,1.7-1.12,1.76-2.13.18-2.9-.4-5.59-2.19-7.96-4-5.3-11.91-5.78-16.5-.98-4.13,4.31-4.08,11.03.1,15.25,3.26,3.29,8.34,4.14,12.5,2.09.24-.12.48-.23.73-.33.72-.29,1.41-.07,1.72.53.33.64.1,1.34-.6,1.75-1.04.61-2.16,1.05-3.33,1.34-6.9,1.67-13.69-2.05-16.02-8.78-.17-.5-.45-.56-.89-.56-8.76,0-17.51,0-26.27,0-2.07,0-3.68-.84-4.69-2.69C.15,30.82,0,30.02,0,29.19c0-5.2,0-10.39,0-15.59,0-2.82,0-5.63,0-8.45C.01,2.09,2.08.03,5.14.03,17.14.02,29.13.06,41.12,0c2.68-.01,5.31,1.85,5.31,5.31,0,3.67.01,7.35-.01,11.02,0,.58.13.81.75.92,4.35.72,7.61,3.03,9.78,6.86.78,1.37,1.25,2.85,1.49,4.41.02.15.06.3.09.44v3.77Zm-40.56-1.06c4.26,0,8.53,0,12.79,0,.91,0,.92,0,.9-.89-.03-1.46.15-2.9.63-4.27,1.82-5.22,5.47-8.33,10.92-9.28.53-.09.67-.26.67-.79-.02-3.65-.01-7.31-.01-10.96,0-.26-.02-.53-.06-.79-.1-.61-.11-.62-.58-.23-2.05,1.67-4.09,3.35-6.14,5.03-3.74,3.07-7.47,6.14-11.22,9.19-1.58,1.29-3.81,1.26-5.33.02C14.87,14.04,9.2,9.4,3.53,4.76c-.24-.2-.5-.63-.76-.51-.35.16-.19.65-.19.99,0,7.92,0,15.84,0,23.75,0,1.79.91,2.68,2.72,2.68,4.23,0,8.45,0,12.68,0ZM5.01,2.62c.21.18.3.26.41.35,5.49,4.5,10.97,9.01,16.46,13.51.93.76,1.74.75,2.67,0,5.47-4.49,10.94-8.98,16.41-13.48.11-.09.28-.14.26-.37H5.01Zm43.68,27.93c0-2.01-1.57-3.6-3.56-3.61-1.94,0-3.57,1.62-3.58,3.56,0,2,1.58,3.58,3.59,3.58,1.99,0,3.55-1.55,3.56-3.54Z"/>
      <path class="cls-1" d="m58.52,32.73c-.35,1.08-.83,2.07-1.75,2.81-2.02,1.62-4.82,1.5-6.62-.37-.4-.41-.59-.43-1.03-.04-1.74,1.54-3.78,1.95-5.96,1.2-2.22-.76-3.63-2.36-4.07-4.68-.71-3.75,2.23-7.31,5.97-7.28,1.33.01,2.56.38,3.62,1.19.28.21.51.29.88.14.86-.34,1.67.24,1.69,1.19.02,1.47,0,2.93.01,4.4,0,.56.06,1.1.34,1.6.51.93,1.57,1.39,2.63,1.14.97-.22,1.7-1.12,1.76-2.13.18-2.9-.4-5.59-2.19-7.96-4-5.3-11.91-5.78-16.5-.98-4.13,4.31-4.08,11.03.1,15.25,3.26,3.29,8.34,4.14,12.5,2.09.24-.12.48-.23.73-.33.72-.29,1.41-.07,1.72.53.33.64.1,1.34-.6,1.75-1.04.61-2.16,1.05-3.33,1.34-6.9,1.67-13.69-2.05-16.02-8.78-.17-.5-.45-.56-.89-.56-8.76,0-17.51,0-26.27,0-2.07,0-3.68-.84-4.69-2.69C.15,30.82,0,30.02,0,29.19c0-5.2,0-10.39,0-15.59,0-2.82,0-5.63,0-8.45C.01,2.09,2.08.03,5.14.03,17.14.02,29.13.06,41.12,0c2.68-.01,5.31,1.85,5.31,5.31,0,3.67.01,7.35-.01,11.02,0,.58.13.81.75.92,4.35.72,7.61,3.03,9.78,6.86.78,1.37,1.25,2.85,1.49,4.41.02.15.06.3.09.44v3.77Zm-40.56-1.06c4.26,0,8.53,0,12.79,0,.91,0,.92,0,.9-.89-.03-1.46.15-2.9.63-4.27,1.82-5.22,5.47-8.33,10.92-9.28.53-.09.67-.26.67-.79-.02-3.65-.01-7.31-.01-10.96,0-.26-.02-.53-.06-.79-.1-.61-.11-.62-.58-.23-2.05,1.67-4.09,3.35-6.14,5.03-3.74,3.07-7.47,6.14-11.22,9.19-1.58,1.29-3.81,1.26-5.33.02C14.87,14.04,9.2,9.4,3.53,4.76c-.24-.2-.5-.63-.76-.51-.35.16-.19.65-.19.99,0,7.92,0,15.84,0,23.75,0,1.79.91,2.68,2.72,2.68,4.23,0,8.45,0,12.68,0ZM5.01,2.62c.21.18.3.26.41.35,5.49,4.5,10.97,9.01,16.46,13.51.93.76,1.74.75,2.67,0,5.47-4.49,10.94-8.98,16.41-13.48.11-.09.28-.14.26-.37H5.01Zm43.68,27.93c0-2.01-1.57-3.6-3.56-3.61-1.94,0-3.57,1.62-3.58,3.56,0,2,1.58,3.58,3.59,3.58,1.99,0,3.55-1.55,3.56-3.54Z"/>
    </g>
  </g>
</svg>