<?xml version="1.0" encoding="UTF-8"?>
<svg id="Capa_2" data-name="Capa 2" xmlns="http://www.w3.org/2000/svg" viewBox="0 0 51.45 51.4">
  <defs>
    <style>
      .cls-1 {
        fill: #00666c;
        fill-rule: evenodd;
      }
    </style>
  </defs>
  <g id="Capa_2-2" data-name="Capa 2">
    <g>
      <path class="cls-1" d="m37.04,51.4c-3.69-.02-6.49-.9-8.98-2.67-8.23-5.81-15.45-12.68-21.75-20.53-1.52-1.89-3.08-3.73-4.23-5.89C.87,20,.08,17.6,0,15.01c-.09-3.44,1.14-6.42,3.29-9.06,1.08-1.29,2.17-2.59,3.31-3.87,2.38-2.78,6.73-2.69,9.09.22,2.01,2.44,3.99,4.94,5.95,7.44,1.99,2.55,1.66,5.94-.74,8.1-.38.36-.81.68-1.22,1.03-1.05.92-1.22,2.44-.31,3.49,3.02,3.5,6.26,6.73,9.73,9.73,1.15,1.01,2.73.76,3.66-.5,1.17-1.61,2.65-2.72,4.67-3,1.63-.24,3.06.24,4.32,1.23,2.46,1.96,4.95,3.95,7.43,5.95,2.97,2.43,3,6.79.08,9.25-1.47,1.26-2.96,2.56-4.52,3.72-2.38,1.78-5.35,2.65-7.69,2.65Zm-.63-3.36c1.59-.03,3.11-.33,4.53-1,2.52-1.24,4.47-3.24,6.52-5.1.96-.86.76-2.49-.23-3.31-2.55-2.08-5.13-4.13-7.71-6.16-1.03-.79-2.4-.6-3.27.38-.33.35-.61.75-.93,1.11-2.26,2.62-5.96,2.92-8.55.68-3.52-3.07-6.82-6.35-9.87-9.9-1.48-1.69-1.84-3.68-1.19-5.84.46-1.53,1.57-2.54,2.75-3.47,1.25-1.02,1.41-2.42.42-3.68-1.91-2.37-3.8-4.74-5.71-7.1-1.26-1.58-2.89-1.58-4.19-.05-.98,1.13-1.94,2.27-2.88,3.39-3.26,3.85-3.51,9.22-.6,13.34.94,1.34,1.93,2.66,2.93,3.95,6.21,7.98,13.45,14.87,21.71,20.7,1.89,1.35,3.98,2.02,6.27,2.06Z"/>
      <path class="cls-1" d="m51.45,21.87c-.02.18,0,.54-.1.89-.19.82-.98,1.33-1.86,1.24-.82-.09-1.47-.82-1.49-1.7-.03-3.39-.82-6.58-2.57-9.49-3.15-5.2-7.74-8.3-13.75-9.18-.86-.14-1.7-.16-2.55-.21-1-.05-1.73-.78-1.7-1.77,0-.93.76-1.67,1.73-1.66,9.29.3,16.02,4.64,20.19,12.92,1.41,2.73,1.99,5.7,2.1,8.95Z"/>
      <path class="cls-1" d="m29.62,8.57c6.01.08,11.61,4.68,12.89,10.7.21.94.28,1.94.34,2.91.04,1.05-.7,1.81-1.68,1.81-.99.01-1.71-.71-1.73-1.77-.13-4.71-3.08-8.57-7.57-9.83-.82-.24-1.7-.32-2.58-.37-1.12-.09-1.89-.75-1.86-1.79,0-1,.77-1.67,1.91-1.67h.28Z"/>
    </g>
  </g>
</svg>