<?xml version="1.0" encoding="UTF-8"?>
<svg id="Capa_2" data-name="Capa 2" xmlns="http://www.w3.org/2000/svg" viewBox="0 0 35.89 35.89">
  <defs>
    <style>
      .cls-1 {
        fill: #00666c;
      }
    </style>
  </defs>
  <g id="Capa_2-2" data-name="Capa 2">
    <path class="cls-1" d="m35.89,17.94c0,9.91-8.03,17.95-17.94,17.95S0,27.86,0,17.94,8.04,0,17.95,0s17.94,8.03,17.94,17.94Zm-8.62-2.07v-3.74c-2.89-.21-5.22-2.46-5.52-5.35h-3.22l-.03,15.68c0,1.92-1.7,3.44-3.62,3.44s-3.49-1.56-3.49-3.48,1.56-3.48,3.49-3.48c.14,0,.28.03.42.05v-3.37c-.14-.01-.28-.02-.42-.02h0c-3.77,0-6.83,3.05-6.83,6.82s3.05,6.82,6.83,6.82,6.82-3.05,6.82-6.82v-9.23c1.11,1.69,2.99,2.71,5.02,2.71.19,0,.37,0,.55-.03"/>
  </g>
</svg>