<?xml version="1.0" encoding="UTF-8"?>
<svg id="Capa_2" data-name="Capa 2" xmlns="http://www.w3.org/2000/svg" viewBox="0 0 43.61 59.46">
  <defs>
    <style>
      .cls-1 {
        fill: #00666c;
        fill-rule: evenodd;
      }
    </style>
  </defs>
  <g id="Capa_2-2" data-name="Capa 2">
    <g>
      <path class="cls-1" d="m0,22.08C-.03,12.72,5.59,4.6,14.24,1.35c12.35-4.58,26.07,2.91,28.82,15.78,1.03,4.68.53,9.3-.8,13.87-1.52,5.34-4.24,10.04-7.69,14.33-3.02,3.76-6.22,7.39-9.31,11.08-.64.76-1.25,1.54-1.91,2.27-.88,1.03-2.26,1.03-3.12,0-3.74-4.46-7.59-8.84-11.2-13.36-3.63-4.53-6.46-9.52-7.96-15.18C.38,27.52,0,24.82,0,22.08Zm21.8,32.23c.57-.68,1.09-1.29,1.63-1.9,2.89-3.46,5.88-6.86,8.65-10.42,2.86-3.61,5.08-7.63,6.38-12.12,1.04-3.63,1.54-7.36.89-11.1-1.65-9.21-9.81-15.51-19.07-14.67-6.78.62-11.66,4.16-14.66,10.23-2.06,4.17-1.95,8.6-1.1,13.07.87,4.41,2.76,8.43,5.23,12.15,2.61,3.95,5.72,7.48,8.81,11.02,1.06,1.22,2.11,2.46,3.24,3.74Z"/>
      <path class="cls-1" d="m33.66,21.79c0,6.6-5.3,11.91-11.89,11.9-6.62,0-11.86-5.32-11.86-12,.04-6.51,5.38-11.76,12.01-11.74,6.45,0,11.75,5.35,11.75,11.85Zm-11.89,7.95c4.29.02,7.91-3.55,7.95-7.85.05-4.35-3.52-8-7.91-8-4.33,0-7.92,3.54-7.92,7.87-.07,4.35,3.52,7.94,7.88,7.98Z"/>
    </g>
  </g>
</svg>