<?xml version="1.0" encoding="UTF-8"?>
<svg id="Capa_2" data-name="Capa 2" xmlns="http://www.w3.org/2000/svg" viewBox="0 0 51.44 51.44">
  <defs>
    <style>
      .cls-1 {
        fill: #00666c;
        fill-rule: evenodd;
      }
    </style>
  </defs>
  <g id="Capa_2-2" data-name="Capa 2">
    <path class="cls-1" d="m0,27.53v-3.42c.07-.61.14-1.23.23-1.84.82-5.53,3.11-10.33,6.97-14.37C11.2,3.73,16.07,1.18,21.8.29c.7-.11,1.4-.19,2.11-.29h3.33c.08.02.18.05.29.06,1.49.25,3.02.39,4.47.77,5.59,1.44,10.18,4.47,13.78,8.96,2.76,3.43,4.54,7.32,5.28,11.65.15.88.26,1.77.38,2.67v3.42c-.05.33-.1.65-.13.98-.43,3.76-1.57,7.3-3.59,10.52-4.27,6.74-10.35,10.79-18.23,12.11-.72.12-1.46.2-2.18.3h-3.43c-.12-.03-.24-.08-.38-.1-2.48-.16-4.9-.69-7.19-1.64C7.36,45.94,1.99,39.26.3,29.66c-.14-.71-.2-1.41-.3-2.12Zm27.16-3.21c2.08,0,4.12,0,6.18-.02.12,0,.31-.11.35-.22.48-1.04,1.23-1.82,2.24-2.35.1-.06.23-.27.2-.37-.25-1.63-.5-3.27-.79-4.9-.02-.15-.26-.34-.42-.37-.82-.18-1.64-.36-2.46-.48-1.75-.21-3.51-.38-5.31-.57v9.28Zm-3.07-.02v-9.22c-1.59.14-3.12.27-4.66.43-.15.01-.34.15-.43.3-.68,1.15-1.67,1.87-2.98,2.19-.14.02-.32.23-.34.37-.15.96-.3,1.92-.38,2.89-.1,1-.14,2.01-.2,3.04h8.98Zm.03,3.07h-9c.08,2.71.39,5.36,1,8.04,1.66.25,3.33.5,5,.73.13.01.36-.11.41-.23.53-.99,1.3-1.73,2.33-2.2.1-.05.24-.21.24-.31.02-2.01.02-4.02.02-6.04Zm3.01-.04c0,2.05,0,4.04.01,6.03,0,.12.12.3.24.35,1.03.48,1.78,1.2,2.32,2.2.06.12.28.24.4.23,1.64-.24,3.26-.51,4.9-.78.15-.02.35-.22.36-.34.29-1.58.54-3.17.77-4.75.02-.12-.11-.31-.23-.37-.99-.53-1.74-1.28-2.2-2.32-.06-.11-.22-.24-.35-.24-2.04-.03-4.1-.02-6.23-.02Zm6.3-22.83c.26.37.54.72.78,1.1,1.52,2.28,2.59,4.78,3.36,7.4.15.48.37.74.86.88,3.04.9,5.91,2.18,8.47,4.1.03.02.06-.01.13-.03-2.56-6.48-7.05-10.98-13.6-13.45Zm-.02,42.53c6.83-2.38,11.93-8.26,13.55-13.48-.39.27-.75.52-1.14.78-2.32,1.51-4.87,2.55-7.53,3.31-.35.12-.53.3-.64.66-.36,1.1-.73,2.22-1.15,3.3-.78,1.92-1.78,3.71-3.1,5.43Zm-28.94-13.39c1.11,3.12,2.86,5.83,5.19,8.16,2.33,2.32,5.03,4.07,8.24,5.24-.31-.45-.56-.78-.8-1.13-1.54-2.33-2.6-4.89-3.38-7.56-.1-.35-.25-.55-.63-.67-3.09-.87-6-2.12-8.63-4.04Zm7.49-9.35c.24-2.2.47-4.33.71-6.47.05-.52-.2-.72-.67-.52-.92.39-1.88.76-2.79,1.23-1.79.9-3.42,2.02-4.7,3.61-.52.64-.99,1.32-1.22,2.16h8.67Zm15.19-12.31c2.39.26,4.75.51,7.12.77,0-.01,0-.08-.02-.14-.73-1.59-1.39-3.22-2.22-4.74-.79-1.45-1.86-2.71-3.2-3.68-.5-.37-1.08-.63-1.67-.97v8.76ZM3.29,27.34c.43,1.34,1.28,2.31,2.26,3.19,1.65,1.49,3.58,2.49,5.62,3.31.5.21,1.03.37,1.53.55-.25-2.39-.49-4.73-.73-7.05H3.29ZM17.68,4.48c-3.02,1.14-5.72,2.89-8.02,5.21-2.32,2.35-4.06,5.05-5.2,8.16,1.04-.65,2.01-1.31,3.03-1.87,1.01-.54,2.09-1.01,3.14-1.49-.49-2.88,1.37-5.24,4.27-5.47.15,0,.33-.13.41-.25.8-1.42,1.58-2.86,2.37-4.29Zm6.42-1.29c-.65.4-1.24.67-1.76,1.05-1.95,1.48-3.19,3.49-4.19,5.67-.05.12.07.34.16.51.32.55.7,1.07.99,1.64.15.28.24.35.55.33,1.07-.11,2.14-.18,3.21-.26.34-.03.68-.07,1.03-.1V3.19Zm3.03,44.95c1.07-.33,1.89-.91,2.63-1.6,1.6-1.52,2.7-3.36,3.6-5.32.38-.83.7-1.68,1.06-2.59-1.49.19-2.89.37-4.29.56-.1.01-.22.14-.26.24-.47,1.22-1.3,2.07-2.49,2.61-.12.06-.24.24-.24.36-.02,1.89-.01,3.77-.01,5.74Zm21.11-23.83c-2-4.13-5.76-5.69-9.6-7.26.19,1.49.37,2.86.55,4.22.02.13.15.26.28.3,1.19.49,2.04,1.29,2.58,2.46.06.12.27.27.39.27,1.88.02,3.75.02,5.8.02Zm-24.11,23.82c0-1.96,0-3.85-.02-5.74,0-.14-.2-.33-.35-.39-.76-.37-1.54-.83-1.84-1.61-.42-1.12-1.21-1.34-2.24-1.39-.86-.04-1.71-.22-2.66-.36.13.41.24.73.36,1.06.89,2.29,1.99,4.49,3.66,6.33.85.93,1.81,1.68,3.08,2.1Zm14.54-13.85s.08.1.11.15c1.37-.63,2.78-1.21,4.12-1.9,1.57-.83,3.03-1.84,4.14-3.26.47-.58.88-1.18,1.09-1.96-1.94,0-3.8,0-5.67.01-.14,0-.36.17-.42.3-.37.79-.85,1.59-1.63,1.9-1.1.43-1.34,1.2-1.39,2.24-.03.84-.23,1.67-.34,2.51ZM15.08,15.07c.8-.02,1.51-.72,1.49-1.52-.01-.81-.71-1.51-1.52-1.5-.8,0-1.5.72-1.49,1.51.01.81.72,1.5,1.51,1.5Zm10.53,24.31c.8,0,1.52-.71,1.52-1.51,0-.79-.68-1.47-1.47-1.51-.8-.03-1.52.67-1.54,1.48-.03.79.68,1.52,1.49,1.54Zm12.28-15.07c-.8,0-1.51.7-1.51,1.51,0,.81.72,1.5,1.52,1.49.79,0,1.47-.68,1.49-1.48.01-.8-.7-1.52-1.5-1.52Z"/>
  </g>
</svg>