<?xml version="1.0" encoding="UTF-8"?>
<svg id="Capa_2" data-name="Capa 2" xmlns="http://www.w3.org/2000/svg" xmlns:xlink="http://www.w3.org/1999/xlink" viewBox="0 0 1281 307.24">
  <defs>
    <style>
      .cls-1 {
        fill: #fff;
      }

      .cls-2 {
        fill: url(#linear-gradient);
      }
    </style>
    <linearGradient id="linear-gradient" x1="0" y1="153.62" x2="1281" y2="153.62" gradientUnits="userSpaceOnUse">
      <stop offset="0" stop-color="#0a626c"/>
      <stop offset=".07" stop-color="#096770"/>
      <stop offset=".15" stop-color="#08767f"/>
      <stop offset=".25" stop-color="#078f96"/>
      <stop offset=".34" stop-color="#04b2b7"/>
      <stop offset=".45" stop-color="#02dee0"/>
      <stop offset=".51" stop-color="aqua"/>
      <stop offset=".68" stop-color="#04c0c4"/>
      <stop offset=".82" stop-color="#078d94"/>
      <stop offset=".94" stop-color="#096d77"/>
      <stop offset="1" stop-color="#0a626c"/>
    </linearGradient>
  </defs>
  <g id="Layer_3" data-name="Layer 3">
    <g>
      <path class="cls-1" d="m826.74,195.11c-9.71-.29-19.15,2.88-28.49,5.18-28.09,7.8-55.9,16.43-84.49,22.51-28.6,6.13-58.1,10.34-87.53,8.65-39.54-2.61-78.1-15.21-112.43-34.81-42.28-24.62-82.59-53.81-118.71-86.52-28.4-26.3-56.63-46.95-95.4-52.28-17.62-3.01-35.91-3.41-53.33.65-17.53,3.97-33.62,11.94-48.77,21.85-18.52,11.89-35.21,26.77-55.18,37.56-43.73,21.97-94.85,34.31-142.41,17.71v-37.2c7.18,4.11,15.39,7.08,23.48,9.19,28.16,7.57,59.32,2.06,87.02-7.89,8.34-3.07,16.69-6.24,24.49-10.62,16.24-9.2,31.9-21.48,48.53-31.32,37.49-23.09,76.85-31.42,120.22-21.91,20.14,3.99,40.11,11.4,57.45,22.61,16.91,10.7,31.74,24.89,45.98,38.58,13.96,13.5,27.81,26.53,42.74,38.38,44.74,35.41,91.91,71.17,148.78,83.35,56.75,13.59,115.34.65,170.98-12.73,9.43-2.3,18.84-4.68,28.31-6.86,9.46-1.94,19.03-4.75,28.76-4.08Z"/>
      <path class="cls-2" d="m1281,123.82v11.14c-13.8,6.87-26.44,15.88-38.15,26-1.52,1.3-3.01,2.64-4.51,3.97-1.46,1.34-3.01,2.71-4.36,4.03-2.78,2.67-5.45,5.5-8.05,8.43-5.18,5.88-10.09,12.13-14.8,18.64-4.71,6.51-9.31,13.19-13.87,19.99-4.57,6.8-9.1,13.71-13.82,20.61-9.43,13.79-19.24,27.79-31.71,40.81-6.25,6.48-13.23,12.75-21.56,18.02-4.16,2.63-8.65,5-13.47,6.92-4.81,1.92-9.99,3.34-15.3,4.13-5.3.79-10.75.94-16.05.44-1.32-.11-2.63-.31-3.94-.47-1.31-.2-2.59-.45-3.88-.69-1.24-.25-2.42-.53-3.63-.81l-3.58-.94c-9.48-2.68-18.38-6.77-26.47-11.54-8.11-4.8-15.43-10.28-22.27-15.94-6.83-5.66-13.18-11.53-19.31-17.36-12.18-11.72-23.55-23.3-35.24-33.73-5.86-5.18-11.74-10.13-17.82-14.62-6.08-4.46-12.26-8.6-18.67-12.13-6.42-3.53-12.98-6.61-19.78-9.03-3.39-1.23-6.83-2.3-10.31-3.24-1.69-.49-3.62-.92-5.47-1.38-1.86-.48-3.73-.83-5.6-1.26-14.94-3.19-29.97-4.82-45.02-4.42-15.05.27-30.12,2.57-45.42,6.24-15.29,3.64-30.85,8.55-47,13.2-16.13,4.68-32.94,8.9-50.17,11.52-17.22,2.69-34.82,3.67-52.2,2.88-8.7-.38-17.35-1.17-25.92-2.32-2.15-.27-4.28-.6-6.41-.93-2.14-.32-4.26-.69-6.38-1.07-2.12-.35-4.23-.76-6.34-1.18l-3.17-.62-3.27-.72c-17.42-3.93-33.95-10.4-49.41-18.34-15.47-7.95-29.93-17.36-43.59-27.53-13.67-10.18-26.57-21.14-38.96-32.45-12.38-11.33-24.25-23.06-36-34.56-5.88-5.73-11.73-11.41-17.64-16.7-1.49-1.33-2.91-2.59-4.47-3.88l-4.62-3.86c-3.12-2.52-6.24-5.04-9.43-7.45-12.73-9.68-26.13-18.42-40.25-25.56-14.12-7.13-28.95-12.68-44.29-15.96-15.32-3.32-31.1-4.39-46.86-3.18-3.93.31-7.92.69-11.78,1.28l-2.91.42-2.9.53c-1.93.32-3.85.75-5.76,1.18-7.68,1.71-15.24,4.06-22.66,6.93-7.43,2.85-14.74,6.18-21.96,9.82-7.21,3.65-14.34,7.6-21.46,11.67-14.22,8.16-28.46,16.75-43.27,24.52-7.4,3.89-14.93,7.59-22.63,10.95-1.92.85-3.87,1.65-5.8,2.47l-5.86,2.33c-4.07,1.58-8.28,2.83-12.51,3.78-8.47,1.89-17.06,2.62-25.57,2.61-8.5-.03-16.94-.8-25.25-2.07-10.95-1.71-21.69-4.23-32.24-7.35v-6.32c10.97,2.83,22.07,5.03,33.23,6.31,8.05.93,16.13,1.38,24.14,1.11,8-.27,15.93-1.25,23.52-3.24,3.8-.99,7.48-2.24,11.06-3.77l5.56-2.45c1.84-.86,3.69-1.7,5.51-2.58,7.32-3.52,14.49-7.36,21.56-11.41,14.16-8.1,27.91-17.07,42.07-25.8,7.08-4.36,14.26-8.66,21.65-12.71,7.4-4.04,15.02-7.82,22.9-11.15,7.88-3.34,16.04-6.18,24.42-8.34,2.1-.54,4.19-1.08,6.32-1.51l3.18-.69,3.2-.57c4.28-.79,8.5-1.33,12.79-1.81,17.12-1.87,34.66-1.28,51.73,1.86,17.08,3.13,33.6,8.8,49.16,16.1,15.59,7.32,30.23,16.3,44.06,26.21,3.48,2.46,6.86,5.03,10.24,7.6l5,3.94c1.66,1.3,3.37,2.73,5.01,4.1,6.55,5.54,12.71,11.19,18.82,16.81,12.19,11.25,24.16,22.4,36.46,33.02,12.26,10.65,24.81,20.81,37.86,30.05,13.04,9.23,26.58,17.56,40.66,24.37,14.07,6.81,28.69,12.08,43.59,15.06l2.79.54,2.92.5c1.95.34,3.9.67,5.86.95,1.95.3,3.9.6,5.86.83,1.95.26,3.91.52,5.86.71,7.82.87,15.65,1.39,23.45,1.54,7.81.15,15.6-.1,23.35-.75,7.75-.62,15.46-1.66,23.13-3.06,15.37-2.8,30.52-7.2,45.94-12.24,15.42-5.01,31.18-10.69,47.86-15.33,16.65-4.66,34.3-8.1,52.27-9.09,8.97-.47,17.99-.38,26.94.3,8.94.66,17.82,1.8,26.53,3.5,2.17.45,4.36.84,6.51,1.35,2.17.49,4.27.93,6.57,1.53,4.51,1.12,8.97,2.45,13.35,4.01,8.79,3.06,17.28,6.89,25.32,11.35,8.04,4.45,15.65,9.47,22.81,14.87,7.14,5.41,13.9,11.11,20.28,17.01,6.38,5.89,12.46,11.89,18.33,17.88l17.22,17.69c11.25,11.51,22.46,22.2,34.42,29.94,5.95,3.88,12.07,6.99,18.39,9.11l2.39.74,2.39.65c.73.16,1.46.36,2.19.5.73.11,1.46.28,2.19.37,2.9.4,5.77.5,8.65.25,5.75-.48,11.61-2.48,17.45-5.74,5.83-3.26,11.6-7.66,17.13-12.73,5.55-5.07,10.86-10.77,16.07-16.74,5.22-5.97,10.31-12.25,15.39-18.64l15.35-19.44c5.18-6.52,10.48-13.06,16.08-19.46,5.59-6.39,11.44-12.69,17.81-18.62,3.18-2.96,6.49-5.83,9.96-8.55,1.76-1.4,3.44-2.61,5.15-3.9,1.73-1.25,3.44-2.51,5.21-3.72,7-4.86,14.28-9.39,21.85-13.4,7.59-3.99,15.44-7.51,23.57-10.25.83-.28,1.67-.56,2.51-.82Z"/>
      <path class="cls-1" d="m1281,70.78v35.3c-25.06,6.01-55.3,18.59-74.28,37.98-17.59,18.07-30.91,38.49-47.3,58.47-17.67,21.72-41.19,45.74-71.72,44.93-16.36-.31-31.58-9.82-43.55-19.23-30.48-24.75-56.28-54.58-89.68-75.08-40.23-25.79-84.81-32-131.57-24.91-30.9,4.57-60.14,16.28-89.79,26.14-22.4,7.39-46.15,12.97-69.91,10.71-7.85-.69-15.62-2.18-23.2-4.29,7.65,1.74,15.44,2.85,23.28,3.16,39.9,1.81,75.72-17.75,112.24-31.13,61.44-23.61,128.58-27.26,186.98,6.75,28,15.59,52.35,37.22,76.49,57.51,11.16,9.15,23.21,19.13,36.12,24.43,26.98,11.01,48.59-15.97,63.43-35.37,13.86-18.5,26.9-39.48,42.34-57.71,5.61-6.67,11.87-12.94,18.6-18.48,23.63-19.23,51.05-31.24,80.08-38.83.48-.12.96-.23,1.44-.35Z"/>
    </g>
  </g>
</svg>