<?xml version="1.0" encoding="UTF-8"?>
<svg id="Capa_2" data-name="Capa 2" xmlns="http://www.w3.org/2000/svg" xmlns:xlink="http://www.w3.org/1999/xlink" viewBox="0 0 479.99 472.14">
  <defs>
    <style>
      .cls-1 {
        fill: url(#linear-gradient-2);
      }

      .cls-2 {
        fill: #fff;
        fill-rule: evenodd;
      }

      .cls-3 {
        filter: url(#outer-glow-1);
      }

      .cls-4 {
        fill: url(#linear-gradient);
      }
    </style>
    <linearGradient id="linear-gradient" x1="246.51" y1="1773.52" x2="699.27" y2="1773.52" gradientTransform="translate(-1377.32 -615.48) rotate(-47.77)" gradientUnits="userSpaceOnUse">
      <stop offset="0" stop-color="#93278f"/>
      <stop offset=".12" stop-color="#723587"/>
      <stop offset=".29" stop-color="#49477d"/>
      <stop offset=".46" stop-color="#2a5576"/>
      <stop offset=".63" stop-color="#135f71"/>
      <stop offset=".78" stop-color="#05656e"/>
      <stop offset=".92" stop-color="#01686d"/>
    </linearGradient>
    <linearGradient id="linear-gradient-2" x1="-1445.08" y1="2942.5" x2="-1293.57" y2="2942.5" gradientTransform="translate(-3158 670.64) rotate(-119.8)" gradientUnits="userSpaceOnUse">
      <stop offset="0" stop-color="#93278f"/>
      <stop offset=".6" stop-color="#3c4d7a"/>
      <stop offset="1" stop-color="#01686d"/>
    </linearGradient>
    <filter id="outer-glow-1" filterUnits="userSpaceOnUse">
      <feOffset dx="0" dy="0"/>
      <feGaussianBlur result="blur" stdDeviation="5"/>
      <feFlood flood-color="#f0f" flood-opacity=".75"/>
      <feComposite in2="blur" operator="in"/>
      <feComposite in="SourceGraphic"/>
    </filter>
  </defs>
  <g id="Layer_2" data-name="Layer 2">
    <g>
      <path class="cls-4" d="m405.77,58.76c92.57,84.03,99.5,227.19,15.47,319.77-84.03,92.57-227.19,99.49-319.76,15.46C8.9,309.95,1.98,166.8,86.01,74.22c84.03-92.57,227.19-99.49,319.76-15.47Z"/>
      <path class="cls-1" d="m38.12,330.64c36.3-20.8,82.59-8.22,103.38,28.08,20.79,36.3,8.22,82.59-28.08,103.38-36.31,20.79-82.59,8.22-103.38-28.08-20.8-36.31-8.22-82.59,28.08-103.38Z"/>
      <g class="cls-3">
        <path class="cls-2" d="m291.39,340.34h-122.56c-.61-.17-1.22-.36-1.84-.52-7.6-2-12.72-6.67-15.26-14.13-.33-.97-.64-1.95-.96-2.93V107.91c1.36-4.8,3.12-9.52,7.34-12.43,3.11-2.15,6.8-3.46,10.23-5.14h123.05c.2.13.39.31.61.37,11.14,2.76,17.03,10.26,17.06,21.76.02,7.32,0,14.64,0,21.96v5.87h3.11c21.88,0,43.77,0,65.65,0,12.37,0,19.57,5.57,22.68,17.51.04.14.18.26.28.39v130.86c-.08.14-.21.27-.25.42-3.28,12.12-10.37,17.56-22.91,17.56-21.8,0-43.6,0-65.4,0h-3.2c0,4.62.1,8.99-.02,13.36-.25,8.78-6.23,16.45-14.64,18.99-.99.3-1.98.63-2.97.94Zm-7.45-33.29h-2.79c-8.22,0-16.44,0-24.66,0-13.57-.02-22.34-8.72-22.35-22.23-.02-40.77-.02-81.53,0-122.3,0-13.44,8.71-22.15,22.13-22.2,8.38-.03,16.76,0,25.14-.01.85,0,1.7-.08,2.54-.12v-24.88h-12.42c0,1.8.07,3.25-.01,4.7-.41,6.91-5.41,11.89-12.35,11.92-19.53.09-39.06.09-58.59,0-7.08-.04-12.15-5.38-12.28-12.49-.02-1.34,0-2.67,0-3.97h-12.42v199.8h108.06v-8.2Zm-41.47-124.9v2.84c0,33.19.14,66.38-.1,99.56-.06,8.37,5.63,14.27,14.24,14.23,40.59-.16,81.18-.07,121.77-.07,8.99,0,14.05-5.08,14.06-14.06,0-33.27,0-66.54,0-99.81v-2.7h-149.97Zm49.93,125.01c0,2.32,0,4.34,0,6.37,0,7.22-2.99,10.18-10.25,10.18-34.74,0-69.49,0-104.23,0-7.55,0-10.52-2.95-10.52-10.45,0-65.26,0-130.51,0-195.77,0-.73-.02-1.47.01-2.2.21-4.69,3.57-8.14,8.26-8.27,4.23-.11,8.46-.12,12.69,0,4.68.13,8.03,3.58,8.25,8.28.04.89.01,1.79.01,2.69.01,4.42,1.22,5.65,5.63,5.65,17.58,0,35.15-.05,52.73.03,6.28.03,8.59.3,8.33-7.96-.17-5.39,3.52-8.67,9-8.72,3.66-.03,7.32-.02,10.98,0,5.73.04,9.09,3.39,9.11,9.11.02,7.16,0,14.32,0,21.48v2.58h8.32v-2.78c0-8.22,0-16.44,0-24.65,0-9.1-4.93-14.06-13.98-14.07-37.84,0-75.67,0-113.51,0-9.18,0-14.16,4.98-14.16,14.17,0,68.35,0,136.7,0,205.05,0,9.17,5,14.14,14.19,14.14,37.75,0,75.51,0,113.26,0,.73,0,1.47.01,2.2-.02,5.77-.28,10.96-4.29,11.65-9.97.59-4.86.12-9.84.12-14.88h-8.11Zm100-133.56c0-4.66.22-9.06-.05-13.43-.43-6.92-5.94-11.49-13.57-11.5-40.92-.02-81.84,0-122.76,0-.81,0-1.63.04-2.43.13-5.19.57-9.8,3.93-10.51,9.05-.72,5.13-.16,10.44-.16,15.75h149.48Z"/>
        <path class="cls-2" d="m226.25,144.34c-.92,1.52-1.35,2.7-2.16,3.52-10.78,10.86-21.6,21.67-32.44,32.47-2.12,2.12-4.47,2.22-6.27.47-1.86-1.82-1.74-4.21.48-6.44,10.74-10.78,21.52-21.52,32.27-32.3,1.47-1.48,3.26-2.24,5.05-1.21,1.24.71,2,2.23,3.07,3.49Z"/>
        <path class="cls-2" d="m197,140.1c1.02.8,2.6,1.45,3.05,2.56.49,1.22.51,3.34-.25,4.24-2.78,3.26-5.89,6.25-9.03,9.18-1.5,1.41-3.88,1.13-5.33-.24-1.56-1.47-1.92-3.85-.41-5.48,2.91-3.15,6-6.14,9.11-9.1.58-.56,1.6-.66,2.86-1.15Z"/>
        <path class="cls-2" d="m317.1,256.96c-18.79,0-37.58,0-56.37,0-6.97,0-9.93-2.96-9.93-9.93,0-3.5-.03-7,0-10.49.06-5.21,3.31-8.58,8.51-8.64,6.99-.08,13.99-.03,20.98-.03,31.15,0,62.3,0,93.46,0,7.43,0,10.36,2.91,10.36,10.3,0,3.09,0,6.18,0,9.27-.02,6.25-3.22,9.5-9.43,9.51-19.2.02-38.39,0-57.59,0Zm58.56-20.59h-116.42v12.1h116.42v-12.1Z"/>
        <path class="cls-2" d="m352.9,190.37c7.4,0,14.79-.02,22.19,0,5.59.02,8.97,3.37,9.03,8.92.04,3.82.05,7.64,0,11.46-.07,5.14-3.36,8.67-8.52,8.71-15.2.1-30.4.11-45.6,0-5.08-.04-8.3-3.54-8.36-8.56-.04-3.98-.04-7.97,0-11.95.06-5.15,3.42-8.53,8.59-8.56,7.56-.05,15.12-.01,22.68-.01Zm22.77,8.48h-45.52v12.11h45.52v-12.11Z"/>
        <path class="cls-2" d="m282.05,190.37c7.31,0,14.63-.02,21.94,0,6.04.02,9.28,3.3,9.31,9.39.02,3.66.05,7.32-.01,10.97-.09,5.17-3.35,8.69-8.5,8.73-15.2.11-30.4.11-45.59,0-5.17-.04-8.33-3.56-8.38-8.79-.03-3.9-.04-7.8,0-11.7.06-5.18,3.4-8.55,8.56-8.58,7.56-.05,15.12-.01,22.68-.01Zm-22.78,8.43v12.13h45.55v-12.13h-45.55Z"/>
        <path class="cls-2" d="m355.12,265.32c4.15,0,8.3-.13,12.43.03,6.39.25,11.44,4.7,12.21,10.54.83,6.23-2.58,11.83-8.4,13.77-.69.23-1.42.47-2.13.47-9.5.04-19.03.47-28.5-.09-8.02-.48-12.82-9.09-9.98-16.61,1.89-4.99,6.34-8,12.17-8.1,4.06-.07,8.13-.01,12.19-.01v.02Zm-.12,8.34c-3.9,0-7.79-.04-11.69,0-3.15.04-4.98,1.57-5.02,4.1-.04,2.52,1.81,4.21,4.88,4.23,7.87.05,15.75.05,23.62,0,3.02-.02,4.7-1.58,4.74-4.09.04-2.61-1.7-4.18-4.84-4.23-3.9-.06-7.79-.01-11.69-.01Z"/>
        <path class="cls-2" d="m240.33,115.29c-2.03,0-4.07.05-6.1-.01-2.52-.08-4.27-1.79-4.29-4.07-.02-2.24,1.73-4.13,4.21-4.19,4.15-.1,8.3-.11,12.45,0,2.47.07,4.23,1.99,4.18,4.22-.05,2.27-1.81,3.96-4.34,4.04-2.03.06-4.07.01-6.1.01Z"/>
        <path class="cls-2" d="m215.26,115.28c-4.2.01-6.14-1.3-6.12-4.15.02-2.83,1.99-4.16,6.18-4.16.81,0,1.63-.05,2.43.05,2.32.29,3.89,2.09,3.81,4.29-.08,2.23-1.7,3.81-4.11,3.96-.73.05-1.46,0-2.19,0Z"/>
        <path class="cls-2" d="m298.67,157.02c4.23,0,6.21,1.29,6.27,4.08.05,2.86-2.05,4.28-6.36,4.27-.16,0-.32,0-.49,0-3.66-.03-5.68-1.55-5.65-4.24.03-2.69,1.99-4.08,5.75-4.1.16,0,.32,0,.49,0Z"/>
        <path class="cls-2" d="m277.74,156.98c.97.05,1.96.02,2.91.18,2.12.36,3.29,1.74,3.39,3.84.1,2.11-.96,3.69-3.05,4.09-1.73.33-3.55.33-5.32.21-2.54-.17-4.1-1.98-4.01-4.3.09-2.21,1.68-3.74,4.14-3.93.64-.05,1.3,0,1.95,0,0-.02,0-.05,0-.07Z"/>
        <path class="cls-2" d="m256.93,165.34c-.65,0-1.3.05-1.94,0-2.59-.25-4.17-1.85-4.16-4.18,0-2.35,1.59-3.93,4.2-4.1,1.29-.08,2.6-.08,3.89,0,2.65.15,4.23,1.67,4.27,4.02.05,2.35-1.5,3.99-4.07,4.26-.72.07-1.46.01-2.19.01Z"/>
      </g>
    </g>
  </g>
</svg>