<?xml version="1.0" encoding="UTF-8"?>
<svg id="Capa_2" data-name="Capa 2" xmlns="http://www.w3.org/2000/svg" xmlns:xlink="http://www.w3.org/1999/xlink" viewBox="0 0 484.98 452.74">
  <defs>
    <style>
      .cls-1 {
        fill: url(#linear-gradient-2);
      }

      .cls-2 {
        fill: #fff;
        fill-rule: evenodd;
      }

      .cls-3 {
        filter: url(#outer-glow-1);
      }

      .cls-4 {
        fill: url(#linear-gradient);
      }
    </style>
    <linearGradient id="linear-gradient" x1="-67.29" y1="914.11" x2="385.47" y2="914.11" gradientTransform="translate(-525.12 -270.21) rotate(-47.77)" gradientUnits="userSpaceOnUse">
      <stop offset="0" stop-color="#93278f"/>
      <stop offset=".12" stop-color="#723587"/>
      <stop offset=".29" stop-color="#49477d"/>
      <stop offset=".46" stop-color="#2a5576"/>
      <stop offset=".63" stop-color="#135f71"/>
      <stop offset=".78" stop-color="#05656e"/>
      <stop offset=".92" stop-color="#01686d"/>
    </linearGradient>
    <filter id="outer-glow-1" filterUnits="userSpaceOnUse">
      <feOffset dx="0" dy="0"/>
      <feGaussianBlur result="blur" stdDeviation="5"/>
      <feFlood flood-color="#ff00e7" flood-opacity=".75"/>
      <feComposite in2="blur" operator="in"/>
      <feComposite in="SourceGraphic"/>
    </filter>
    <linearGradient id="linear-gradient-2" x1="-891.82" y1="1061.94" x2="-740.31" y2="1061.94" gradientTransform="translate(-1251.26 196.66) rotate(-119.8)" gradientUnits="userSpaceOnUse">
      <stop offset="0" stop-color="#93278f"/>
      <stop offset=".6" stop-color="#3c4d7a"/>
      <stop offset="1" stop-color="#01686d"/>
    </linearGradient>
  </defs>
  <g id="Capa_1-2" data-name="Capa 1">
    <g>
      <g>
        <path class="cls-4" d="m410.75,58.76c92.57,84.03,99.5,227.19,15.47,319.77-84.03,92.57-227.19,99.49-319.76,15.46C13.89,309.95,6.96,166.8,91,74.22c84.03-92.57,227.19-99.49,319.76-15.47Z"/>
        <g class="cls-3">
          <path class="cls-2" d="m331.85,351.37h-198.24v-21.97h29.59c.12-.49.19-.64.19-.8.01-26.61.03-53.22-.02-79.83,0-.69-.62-1.63-1.23-2.02-7.94-5.05-11.38-13.17-8.99-21.5,2.32-8.09,9.39-13.02,18.73-13.03,15.79,0,31.57,0,47.36,0h2.79v-33.74h7.31v33.58h7.11v-66.63h-14.31v7.3h7.03v18.04h-7.25v-10.87h-7.06v-22.04h10.79c0-1.98-.08-3.77.02-5.54.09-1.48-.35-2.32-1.79-2.99-3.27-1.52-5.37-4.17-6.28-7.67-1.19-4.57.06-8.49,3.28-11.87,2.66-2.8,5.3-5.63,7.94-8.44h.98c2.48,2.64,4.91,5.33,7.44,7.92,6.63,6.78,5.35,15.83-2.9,20.36-.55.3-1.26.95-1.29,1.48-.14,2.23-.06,4.47-.06,6.91h11v74h14.73c-4.8-5.23-7.38-11.07-7.42-17.86-.06-10.33-.18-20.66.04-30.99.2-9.39,4.48-16.71,12.57-21.5,2.81-1.66,6.05-2.59,9.34-3.95,0-1.88.09-4.07-.05-6.25-.04-.62-.61-1.45-1.17-1.76-8.41-4.64-9.74-13.66-2.97-20.5,2.56-2.59,5.08-5.23,7.61-7.85h.49c2.65,2.73,5.3,5.47,7.96,8.2,6.32,6.51,4.86,15.84-3.11,20.05-.56.3-1.33.89-1.36,1.38-.14,2.41-.06,4.83-.06,7.17,14.47,3.38,21.96,12.85,21.96,27.47,0,8.46-.17,16.92.05,25.38.2,7.83-1.78,14.77-7.1,20.64-.06.07.02.28.05.57h2.62c16.11,0,32.21-.04,48.32.02,8.48.03,15.43,5.32,17.61,13.17,2.22,7.98-1.12,16.54-8.37,20.83-1.51.9-1.91,1.84-1.9,3.46.04,25.7.03,51.41.03,77.11,0,.79.07,1.58.12,2.58h29.62v21.97h-44.43v-7.38h36.96v-7.09h-235.08v7.18h190.8v7.29Zm-91.56-74.63c9.39-12.64,27.25-12.8,36.71.01,4.6-6.09,10.58-9.56,18.32-9.54,7.69.02,13.62,3.55,18.2,9.55,9.93-11.18,19-12.39,32.87-4.45v-23.38c-5.97-.22-10.73-2.7-14.55-7.27-3.94,4.64-8.66,7.17-14.57,7.2-6,.03-10.76-2.59-14.74-7.19-3.95,4.67-8.75,7.2-14.75,7.19-5.98,0-10.68-2.76-14.57-7.15-4.01,4.65-8.75,7.15-14.67,7.15-5.99,0-10.71-2.71-14.63-7.16-3.96,4.65-8.69,7.15-14.61,7.16-6,.02-10.73-2.66-14.66-7.16-3.96,4.58-8.67,7.14-14.59,7.16-6,.02-10.75-2.61-14.7-7.17-3.83,4.71-8.7,6.95-14.45,7.29v23.3c13.81-7.96,22.18-6.81,32.73,4.35,9.85-13.12,27.72-12.1,36.65.1Zm73.11,24.8c-4.51,6.19-10.61,9.57-18.28,9.56-7.63-.02-13.64-3.53-18.19-9.62-9.2,12.51-26.99,13.1-36.74.01-4.52,6.21-10.6,9.62-18.27,9.61-7.64,0-13.67-3.49-18.19-9.6-10.03,11.15-17.74,12.22-32.85,4.6v23.16h175.51v-23.22c-15.13,7.85-21.23,7.01-33-4.49Zm-66.09-70.77c.15.27.27.4.31.55,1.4,6.53,5.06,10.06,10.58,10.2,5.8.14,9.47-3.02,11.3-9.65.13-.48.74-1.15,1.16-1.17,2-.12,4.02-.06,5.88-.06.22.41.34.54.37.69,1.37,6.5,5.07,10.06,10.59,10.19,5.8.14,9.43-3.01,11.3-9.66.14-.5.9-1.14,1.4-1.17,1.92-.14,3.85-.06,5.85-.06.15.81.26,1.36.36,1.91.98,5.23,5.37,8.94,10.64,8.98,5.42.04,9.94-3.6,10.85-8.97.27-1.56.83-2.11,2.34-1.95.88.09,1.8.12,2.68,0,1.91-.26,2.58.45,2.93,2.42.89,5.1,5.66,8.63,10.99,8.5,5.02-.12,9.52-4.04,10.39-9.04.94-5.39-1.71-10.43-6.69-12.14-1.79-.62-3.82-.77-5.74-.77-57.45-.04-114.9-.03-172.35-.03-.9,0-1.79-.03-2.68.04-5.7.43-9.98,5-10.02,10.65-.04,5.75,4.33,10.77,9.79,11.26,5.81.52,10.87-3.24,11.93-8.86.12-.62.26-1.24.4-1.87h6.86c2.22,7.53,5.37,10.62,10.85,10.76,5.88.16,8.79-2.5,11.76-10.76h6.69c2.15,7.39,5.27,10.52,10.61,10.75,5.98.25,8.92-2.37,12-10.75h6.66Zm47.91-52.09c0-4.96.04-9.92,0-14.88-.11-10.4-8.22-18.52-18.4-18.48-10.05.04-18.13,8.17-18.2,18.43-.07,10-.07,20,0,30,.07,10.32,8.07,18.41,18.15,18.46,10.23.05,18.33-8,18.45-18.41.06-5.04,0-10.08,0-15.12Zm-123.79,114.2c1.21,6.25,7.46,11.05,14.1,10.92,6.7-.13,12.92-5.09,13.67-10.92h-27.78Zm36.63-.01c1.12,6.18,7.41,11.04,14.06,10.94,6.69-.11,12.83-4.98,13.73-10.94h-27.79Zm64.44.09h-27.89c1.75,6.58,7.77,11.07,14.33,10.84,6.65-.24,12.47-4.89,13.56-10.84Zm8.79-.08c1.21,6.25,7.46,11.05,14.1,10.92,6.7-.13,12.92-5.09,13.68-10.92h-27.78Zm36.53-.01c1.78,6.68,7.79,11.17,14.36,10.93,6.66-.24,12.48-4.9,13.58-10.93h-27.94Zm-146.49-7.47h27.92c-1-5.83-6.66-10.49-13.05-10.83-6.99-.36-12.97,3.89-14.87,10.83Zm64.58-.04c-1.46-6.73-7.89-11.26-15.13-10.76-6.26.43-12.15,5.47-12.59,10.76h27.72Zm36.64,0c-1.54-6.49-7.42-10.91-14.21-10.8-6.6.11-12.32,4.58-13.68,10.8h27.89Zm8.72,0h27.89c-1.46-6.36-7.23-10.79-13.94-10.8-6.7,0-12.5,4.45-13.94,10.8Zm64.5.01c-1.46-6.73-7.89-11.26-15.13-10.76-6.26.44-12.15,5.47-12.59,10.76h27.72Zm-68.71-173.5c-1.44,1.36-2.73,2.37-3.78,3.6-1.72,2.01-1.49,4.88.35,6.61,1.81,1.69,4.58,1.73,6.44.09,1.88-1.66,2.18-4.55.53-6.6-1.06-1.32-2.34-2.46-3.54-3.7Zm-47.74-.27c-1.44,1.52-2.62,2.64-3.66,3.88-1.73,2.08-1.54,4.8.35,6.59,1.8,1.69,4.58,1.74,6.43.12,1.95-1.71,2.26-4.48.59-6.57-1.05-1.32-2.29-2.49-3.72-4.02Z"/>
          <path class="cls-2" d="m200.17,256.26h7.05v7.02h-7.05v-7.02Z"/>
          <path class="cls-2" d="m236.83,256.23h6.98v7.11h-6.98v-7.11Z"/>
          <path class="cls-2" d="m280.46,263.36h-7.04v-7.09h7.04v7.09Z"/>
          <path class="cls-2" d="m317.09,256.31v7.02h-7.02v-7.02h7.02Z"/>
          <path class="cls-2" d="m207.21,314.99v7.05h-7.01v-7.05h7.01Z"/>
          <path class="cls-2" d="m236.76,314.93h7.02v7.06h-7.02v-7.06Z"/>
          <path class="cls-2" d="m280.45,322.04h-7.02v-7.07h7.02v7.07Z"/>
          <path class="cls-2" d="m317.1,315.03v6.97h-7.09v-6.97h7.09Z"/>
          <path class="cls-2" d="m287.9,178.96c0,4.88.04,9.76,0,14.64-.06,6.45-4.8,11.3-10.96,11.3-6.16,0-10.96-4.85-10.99-11.27-.04-9.92-.05-19.85,0-29.77.03-6.37,4.93-11.25,11.08-11.19,6.04.05,10.8,4.89,10.87,11.16.06,5.04.01,10.09.01,15.13Zm-7.32-.19c0-4.8.02-9.6,0-14.39-.02-2.66-1.39-4.31-3.56-4.37-2.26-.07-3.75,1.63-3.75,4.42-.02,9.6-.02,19.19,0,28.79,0,2.69,1.37,4.3,3.55,4.36,2.28.06,3.74-1.6,3.76-4.4.03-4.8,0-9.6,0-14.39Z"/>
        </g>
      </g>
      <path class="cls-1" d="m38.12,311.25c36.3-20.8,82.59-8.22,103.38,28.08,20.79,36.3,8.22,82.59-28.08,103.38-36.3,20.79-82.59,8.22-103.38-28.08-20.8-36.31-8.22-82.59,28.08-103.38Z"/>
    </g>
  </g>
</svg>