<?xml version="1.0" encoding="UTF-8"?>
<svg id="Capa_2" data-name="Capa 2" xmlns="http://www.w3.org/2000/svg" xmlns:xlink="http://www.w3.org/1999/xlink" viewBox="0 0 471.23 446.43">
  <defs>
    <style>
      .cls-1 {
        fill: url(#linear-gradient-2);
      }

      .cls-2 {
        fill: #fff;
        fill-rule: evenodd;
      }

      .cls-3 {
        filter: url(#outer-glow-1);
      }

      .cls-4 {
        fill: url(#linear-gradient);
      }
    </style>
    <linearGradient id="linear-gradient" x1="-113.91" y1="124.24" x2="332.54" y2="124.24" gradientTransform="translate(57.75 220.65) rotate(-47.77)" gradientUnits="userSpaceOnUse">
      <stop offset="0" stop-color="aqua"/>
      <stop offset=".14" stop-color="#00d9da"/>
      <stop offset=".3" stop-color="#00b0b3"/>
      <stop offset=".47" stop-color="#009194"/>
      <stop offset=".63" stop-color="#007a7e"/>
      <stop offset=".78" stop-color="#006c71"/>
      <stop offset=".92" stop-color="#01686d"/>
    </linearGradient>
    <filter id="outer-glow-1" filterUnits="userSpaceOnUse">
      <feOffset dx="0" dy="0"/>
      <feGaussianBlur result="blur" stdDeviation="5"/>
      <feFlood flood-color="#00f3ff" flood-opacity=".75"/>
      <feComposite in2="blur" operator="in"/>
      <feComposite in="SourceGraphic"/>
    </filter>
    <linearGradient id="linear-gradient-2" x1="-137.66" y1="-8.84" x2="11.74" y2="-8.84" gradientTransform="translate(372.9 312.7) rotate(-119.8)" gradientUnits="userSpaceOnUse">
      <stop offset="0" stop-color="aqua"/>
      <stop offset=".02" stop-color="#00f5f6"/>
      <stop offset=".11" stop-color="#00d0d1"/>
      <stop offset=".21" stop-color="#00afb2"/>
      <stop offset=".32" stop-color="#009599"/>
      <stop offset=".44" stop-color="#008185"/>
      <stop offset=".57" stop-color="#007277"/>
      <stop offset=".73" stop-color="#006a6f"/>
      <stop offset="1" stop-color="#01686d"/>
    </linearGradient>
  </defs>
  <g id="Capa_1-2" data-name="Capa 1">
    <g>
      <g>
        <path class="cls-4" d="m373.24,57.94c91.28,82.86,98.11,224.02,15.25,315.31-82.86,91.28-224.03,98.1-315.3,15.25C-18.09,305.63-24.92,164.47,57.94,73.19c82.86-91.28,224.02-98.11,315.3-15.25Z"/>
        <g class="cls-3">
          <path class="cls-2" d="m296.65,83.65c1.47.42,2.97.78,4.42,1.28,9.25,3.16,15.58,11.87,15.77,21.72.06,3.26,0,6.53,0,9.98,8.84,1.63,14.78,6.38,16.36,15.47,1.59,9.11-3.77,15.03-10.03,20.39,10.04,8.31,11.07,22.48-1.97,32.35,5.56,3.96,8.55,9.25,8.39,16.16-.16,6.87-4.29,11.51-9.06,15.77,9.03,7.06,11.67,16.1,6.87,24.43-1.69,2.92-4.1,5.61-6.71,7.78-3,2.49-4.01,5.15-3.98,9.03.1,10.38-6.94,19.35-17.01,22-2.93.77-6.11.59-9.14,1.05-1.01.15-2.27.68-2.83,1.45-13.75,19.1-32.56,28.56-55.88,29.53-2.08.09-4.17.4-6.25.39-5.47-.02-9.1,3.18-12.36,6.97-.41.48-.31,1.65-.07,2.38,1.71,5.13.89,9.71-2.93,13.57-8.5,8.58-17.07,17.1-25.62,25.63-.62.62-1.3,1.2-1.95,1.8h-2.73c-3.71-2.78-3.85-4.82-.51-8.16,3.18-3.18,6.38-6.34,9.39-9.33-20.65-20.65-40.99-40.99-61.46-61.46-.55.53-1.28,1.19-1.96,1.88-11.2,11.41-22.4,22.82-33.6,34.24-3.42,3.48-4.97,3.54-8.35.3v-3.27c9.76-10.01,19.5-20.03,29.27-30.02,7.75-7.93,15.58-15.77,23.26-23.76,4.29-4.47,9.12-5.99,15.04-3.8.58.21,1.72-.19,2.17-.69,4.55-5.03,7.19-10.71,6.73-17.78-.37-5.7-.28-11.45,0-17.16.17-3.59.61-7.29,1.71-10.68,6.18-19.07,12.59-38.06,18.94-57.07,1.72-5.16,4.54-6.91,9.91-6.22,15.61,2.02,25.44,15.76,22.25,31.19-1.67,8.08-3.45,16.15-5.31,24.19-.84,3.66-.34,6.91,1.54,10.18,3.16,5.5,6.51,10.96,8.96,16.79,5.02,11.93,4.82,24.23,1.16,36.54-.34,1.13-.61,2.28-.89,3.42-.04.15.06.35.13.72h20.37c.91,0,1.82-.04,2.72.02,2.54.14,4.28,1.77,4.33,4,.05,2.34-1.75,4.11-4.45,4.14-5.81.06-11.63.02-17.44.02-1.45,0-2.93.15-4.36-.03-2.63-.34-4.13.33-4.69,3.25-.48,2.52-2.75,3.55-4.99,2.88-2.24-.67-3.32-2.56-2.67-5.17,1.49-5.99,3.07-11.95,4.67-17.9,3.38-12.56,1.79-24.45-4.73-35.7-1.82-3.14-3.6-6.3-5.47-9.42-2.8-4.68-3.48-9.62-2.26-14.93,1.88-8.22,3.68-16.47,5.43-24.72,2.29-10.79-4.92-20.46-16.07-21.3-.32.82-.72,1.71-1.02,2.63-6.11,18.32-12.26,36.63-18.25,55-.86,2.63-1.25,5.49-1.35,8.26-.2,5.81-.25,11.63-.02,17.44.33,7.93-2.01,14.83-7.12,20.85-.88,1.03-1.64,2.16-2.27,3,16.21,16.21,32.31,32.3,49.04,49.03.96-1.21,1.99-2.85,3.35-4.15,3.6-3.45,7.97-5.23,12.96-5.65,8.31-.7,16.69-.71,24.79-3.16,11.53-3.49,23.67-11.62,29.5-20.2h-3.33c-5.36,0-10.72.02-16.08,0-3.18-.02-4.96-1.57-4.9-4.19.06-2.5,1.77-3.97,4.83-3.97,11.54-.02,23.08.07,34.61-.04,9.26-.08,16-7.79,14.96-17.03-8.56.1-15.26-3.25-18.54-11.45-3.82-9.55.26-16.9,7.78-23.22-5.91-4.07-9.25-9.39-9.16-16.48.09-7.24,4.58-11.98,9.8-16.55-5.89-4.26-8.98-9.81-8.56-17,.42-7.2,5.26-11.7,10.4-16.27-3.83-3.11-6.53-6.73-7.44-11.49-1.16-6.06.29-11.47,4.56-15.82,3.16-3.22,6.84-5.92,10.22-8.92.57-.51,1.08-1.41,1.11-2.15.11-3.27.11-6.54.02-9.81-.19-7.57-5.97-14.02-13.53-14.64-4.59-.38-9.23-.07-14.2-.07,0,2.01.02,3.89,0,5.76-.1,6.26-4.2,10.47-10.41,10.5-10.45.05-20.9.06-31.34,0-5.96-.03-10.07-4.14-10.26-10.09-.07-1.98-.01-3.96-.01-6.01-5.25,0-10.28-.52-15.15.12-7.49.99-12.49,7.23-12.56,14.85-.09,10.17-.02,20.35-.03,30.53,0,.82.05,1.66-.12,2.44-.49,2.23-1.92,3.5-4.22,3.47-2.16-.02-3.76-1.76-3.8-4.17-.08-4.72-.03-9.45-.03-14.17,0-5.72-.03-11.45,0-17.17.07-12.41,7.15-21.18,19.25-23.91.34-.08.66-.27,1-.41h83.41Zm-163.04,193.07c20.9,20.96,41.29,41.41,61.9,62.07,2.51-2.58,5.21-5.38,7.94-8.16,3.28-3.33,3.28-5.07-.07-8.42-13.73-13.74-27.46-27.47-41.19-41.2-4.23-4.24-8.45-8.49-12.71-12.69-2.17-2.14-4.31-2.41-6.25-.66-3.41,3.09-6.71,6.31-9.62,9.07Zm181.79-152.08c-1.61.53-3.56.66-4.76,1.67-3.09,2.61-6.23,5.33-8.64,8.54-2.82,3.75-1.67,9.19,1.84,12.31,3.54,3.14,8.94,3.47,12.49.5,2.42-2.03,4.73-4.25,6.78-6.66,2.63-3.09,3.06-6.73,1.29-10.43-1.76-3.69-4.81-5.52-9.01-5.93Zm-6.86,57.81c.71-.19,2.43-.18,3.4-1.03,3.37-2.96,6.96-5.88,9.56-9.47,2.65-3.67,1.09-9.09-2.46-11.97-3.52-2.86-8.7-3.12-12.08-.3-2.43,2.02-4.74,4.25-6.79,6.66-2.64,3.1-3.05,6.75-1.29,10.44,1.76,3.68,4.82,5.52,9.65,5.68Zm3.25,7.63c-1.7.53-3.75.64-5.03,1.68-3.06,2.51-6.11,5.18-8.5,8.3-2.88,3.76-1.88,9.12,1.6,12.34,3.47,3.22,8.86,3.69,12.47.75,2.52-2.05,4.88-4.36,6.98-6.84,2.57-3.03,2.82-6.66,1.18-10.22-1.65-3.58-4.62-5.46-8.71-6.02Zm-15.12,47.99c.14,3.35,1.82,6.43,5.33,8.26,3.5,1.83,7.12,1.71,10.23-.73,2.62-2.06,5.12-4.39,7.19-6.99,4.45-5.57,1.38-13.8-5.55-15.48-6.63-1.6-17.1,7.14-17.2,14.94Zm-24.18-146.09h-35.43c0,1.48,0,2.82,0,4.15.02,3.67.21,3.87,3.83,3.88,8.34,0,16.68,0,25.02,0,7.58,0,7.63-.07,6.59-8.03Z"/>
          <path class="cls-2" d="m223.64,138.48c.35-7.34,3.54-13.32,10.13-17.08,6.4-3.65,13.01-3.61,19.41.18,1.25.74,2.06.84,3.37.06,7.98-4.76,17.52-3.44,23.91,3.18,6.36,6.59,7.62,16.71,2.57,24.34-6.49,9.79-15.58,16.36-26.68,20.08-1.09.37-2.55.2-3.67-.19-10.29-3.65-18.73-9.86-25.21-18.67-2.55-3.47-3.71-7.43-3.84-11.91Zm54.8.43c-.5-4.9-3.45-9.33-7.77-11.09-4.31-1.76-8.69-.77-12.16,2.76-2.54,2.59-4.47,2.43-7.22.05-1.65-1.43-3.66-2.77-5.73-3.32-4.55-1.2-9.12.96-11.72,4.96-2.73,4.21-2.62,9.39.42,13.52,4.91,6.65,11.22,11.56,18.87,14.66,1.03.42,2.52.42,3.55,0,7.66-3.09,14.05-7.94,18.82-14.69,1.4-1.99,1.98-4.55,2.94-6.85Z"/>
          <path class="cls-2" d="m254.67,203.01c5.91,0,11.81-.04,17.72,0,5.35.04,8.44,3.12,8.53,8.45.04,2.72.07,5.45-.02,8.18-.15,4.5-3.26,7.81-7.76,7.85-12.17.11-24.35.11-36.52,0-4.37-.04-7.51-3.31-7.68-7.64-.12-3.08-.13-6.18,0-9.26.18-4.35,3.37-7.48,7.74-7.54,6-.09,11.99-.02,17.99-.03Zm17.96,8.33h-35.33v7.84h35.33v-7.84Z"/>
          <path class="cls-2" d="m255.12,235.71c5.72,0,11.45-.03,17.17,0,5.51.04,8.55,3.1,8.62,8.63.03,2.63.06,5.27-.02,7.9-.14,4.63-3.3,7.92-7.94,7.95-12.08.09-24.17.1-36.25,0-4.49-.04-7.63-3.34-7.78-7.83-.1-2.9-.09-5.82,0-8.72.15-4.8,3.34-7.88,8.22-7.92,6-.05,11.99-.01,17.99-.01Zm17.46,8.39h-35.33v7.82h35.33v-7.82Z"/>
          <path class="cls-2" d="m254.86,183.73c6.72,0,13.44,0,20.16,0,.91,0,1.83-.02,2.71.16,1.92.38,3,1.64,3.14,3.58.14,2.06-.8,3.56-2.8,4.12-1.11.31-2.34.3-3.51.31-13.08.02-26.15.01-39.22,0-.91,0-1.82.02-2.72-.11-2.45-.35-3.84-1.94-3.68-4.23.17-2.36,1.55-3.58,3.86-3.79.72-.06,1.45-.04,2.18-.04,6.63,0,13.26,0,19.88,0Z"/>
        </g>
      </g>
      <path class="cls-1" d="m359.39,306.9c35.8-20.51,81.44-8.11,101.94,27.69,20.5,35.8,8.11,81.44-27.69,101.94-35.8,20.5-81.44,8.11-101.94-27.69-20.51-35.8-8.11-81.44,27.69-101.94Z"/>
    </g>
  </g>
</svg>