<?xml version="1.0" encoding="UTF-8"?>
<svg id="Capa_2" data-name="Capa 2" xmlns="http://www.w3.org/2000/svg" xmlns:xlink="http://www.w3.org/1999/xlink" viewBox="0 0 480.03 452.74">
  <defs>
    <style>
      .cls-1 {
        fill: url(#linear-gradient-2);
      }

      .cls-2 {
        fill: #fff;
        fill-rule: evenodd;
      }

      .cls-3 {
        filter: url(#outer-glow-1);
      }

      .cls-4 {
        fill: url(#linear-gradient);
      }
    </style>
    <linearGradient id="linear-gradient" x1="-720.13" y1="647.9" x2="-267.37" y2="647.9" gradientTransform="translate(105.8 -574.65) rotate(-47.77)" gradientUnits="userSpaceOnUse">
      <stop offset="0" stop-color="#93278f"/>
      <stop offset=".12" stop-color="#723587"/>
      <stop offset=".29" stop-color="#49477d"/>
      <stop offset=".46" stop-color="#2a5576"/>
      <stop offset=".63" stop-color="#135f71"/>
      <stop offset=".78" stop-color="#05656e"/>
      <stop offset=".92" stop-color="#01686d"/>
    </linearGradient>
    <filter id="outer-glow-1" filterUnits="userSpaceOnUse">
      <feOffset dx="0" dy="0"/>
      <feGaussianBlur result="blur" stdDeviation="5"/>
      <feFlood flood-color="#ff00e7" flood-opacity=".75"/>
      <feComposite in2="blur" operator="in"/>
      <feComposite in="SourceGraphic"/>
    </filter>
    <linearGradient id="linear-gradient-2" x1="-1684.45" y1="-207.97" x2="-1532.94" y2="-207.97" gradientTransform="translate(-543.3 -1122.24) rotate(-119.8)" gradientUnits="userSpaceOnUse">
      <stop offset="0" stop-color="#93278f"/>
      <stop offset=".6" stop-color="#3c4d7a"/>
      <stop offset="1" stop-color="#01686d"/>
    </linearGradient>
  </defs>
  <g id="Capa_1-2" data-name="Capa 1">
    <g>
      <g>
        <path class="cls-4" d="m405.81,58.76c92.57,84.03,99.5,227.19,15.47,319.77-84.03,92.57-227.19,99.49-319.76,15.46C8.94,309.95,2.02,166.8,86.05,74.22c84.03-92.57,227.19-99.49,319.76-15.47Z"/>
        <g class="cls-3">
          <path class="cls-2" d="m316.09,105.33h4.26c.28.14.54.33.83.42,5.99,1.94,9.03,6.03,9.11,12.26.02,1.08,0,2.15,0,3.42,5.15,0,10.04-.26,14.88.09,3.39.25,6.99.75,10.01,2.16,8.02,3.75,11.46,10.63,11.46,19.31.02,31.99,0,63.97,0,95.96,0,28.91,0,57.83,0,86.74,0,5.9-1.61,11.17-5.75,15.52-3.33,3.5-7.59,5.2-12.19,6.19h-190.08c-2.16-.68-4.46-1.09-6.46-2.09-7.91-3.95-11.5-10.61-11.5-19.32,0-41.34,0-82.69,0-124.03,0-19.69,0-39.37,0-59.06,0-7.03,2.4-12.91,8.04-17.29,3.9-3.03,8.41-4.15,13.24-4.18,4.94-.03,9.88,0,14.92,0,.14-2.34,0-4.5.44-6.53,1.12-5.24,4.78-8.09,9.7-9.58h4.26c.27.14.53.33.82.43,5.95,1.94,9.02,6.07,9.11,12.28.01,1.07,0,2.15,0,3.27h40.32c0-.98-.15-1.86.03-2.67.54-2.5.85-5.13,1.88-7.43,1.47-3.27,4.71-4.65,7.9-5.88h4.73c.26.16.5.37.78.46,5.57,1.81,8.52,5.66,8.88,11.48.08,1.31.01,2.63.01,3.97h40.28c.13-2.24,0-4.33.43-6.3,1.11-5.25,4.76-8.1,9.67-9.61Zm42.5,80.93h-209.87v2.54c0,45.62,0,91.24,0,136.86,0,8.87,4.87,13.71,13.77,13.71,60.75,0,121.5,0,182.24,0,9,0,13.85-4.86,13.85-13.89,0-45.54,0-91.08,0-136.62v-2.59Zm-93.34-56.63c.65,1.92.74,3.93,1.8,4.97,4.87,4.79,7.18,10.4,6.57,17.22-.78,8.7-7.44,16-16.19,17.72-8.67,1.7-17.83-2.8-21.75-10.69-3.97-8-2.38-17.87,4.11-23.62,1.97-1.75,1.88-3.49,1.48-5.55h-39.96q-.27,3.63,1.91,5.72c7.91,7.62,8,20.5.2,28.5-7.73,7.92-20.96,7.92-28.66,0-7.8-8.02-7.79-21,.25-28.42,1.91-1.77,2.3-3.48,1.77-5.97-4.83,0-9.62,0-14.41,0-8.71.02-13.64,4.93-13.65,13.62-.01,10.8,0,21.59,0,32.39,0,.76.08,1.51.13,2.3h209.47c.12-.31.22-.45.22-.6.01-11.9.19-23.8-.04-35.69-.13-7.16-5.33-11.87-12.59-12.01-4.73-.09-9.46-.02-14.19,0-.44,0-.89.15-1.29.22-.44,2.43.16,4.09,1.97,5.9,5.58,5.56,7.21,12.38,5.02,20-2.35,8.17-9.6,13.68-18.6,14.23-7.83.48-15.77-4.52-19-11.97-3.41-7.87-1.74-17.07,4.46-22.55,1.96-1.73,1.97-3.47,1.71-5.7h-40.74Zm56.99-.19c0-3.78.03-7.55-.01-11.33-.04-2.81-1.62-4.64-3.94-4.69-2.4-.06-4.08,1.84-4.09,4.77-.03,7.55-.03,15.1,0,22.65.01,3.03,1.55,4.77,4.05,4.75,2.48-.02,3.96-1.78,3.99-4.82.03-3.78,0-7.55,0-11.33Zm-137.15,0c0,3.85-.03,7.71.01,11.56.03,2.88,1.53,4.57,3.95,4.59,2.41.02,4.05-1.67,4.07-4.5.05-7.71.05-15.42,0-23.12-.02-2.75-1.79-4.58-4.1-4.54-2.34.05-3.89,1.85-3.92,4.68-.04,3.77,0,7.55,0,11.32Zm64.5.25c0,2.52-.03,5.03,0,7.55.02,1.72-.02,3.47.24,5.16.32,2.09,1.98,3.32,4.01,3.17,2.06-.15,3.33-1.27,3.67-3.34.11-.69.14-1.41.14-2.11.01-7.08.01-14.15,0-21.23,0-.78-.04-1.58-.2-2.34-.42-1.96-1.8-2.99-3.68-3.07-1.88-.07-3.35.89-3.88,2.8-.25.89-.3,1.86-.3,2.8-.03,3.54-.01,7.08-.01,10.61Zm-71.86,16.56c-1.7,5.07.22,10.49,4.59,13.46,4.39,2.98,10.34,2.69,14.47-.71,3.86-3.18,5.38-8.49,3.58-12.51-5.17,9.79-17.57,9.53-22.64-.24Zm87.19-.05c-2.52,4.8-6.11,7.5-11.38,7.48-5.2-.02-8.68-2.88-11.23-7.41-1.61,5.3.21,10.4,4.5,13.39,4.16,2.9,10.12,2.75,14.13-.35,4.08-3.16,5.71-8.22,3.98-13.12Zm64.57-.05c-2.51,4.88-6.13,7.56-11.39,7.52-5.24-.03-8.77-2.85-11.17-7.46-1.77,4.74-.09,10.01,4.05,13.14,4.22,3.2,10.26,3.2,14.49,0,4.12-3.11,5.81-8.36,4.03-13.21Z"/>
          <path class="cls-2" d="m225.53,315.19c-1.32-1.48-2.2-2.47-3.09-3.45-6.23-6.9-12.49-13.77-18.69-20.69-3.79-4.23-4.69-9.01-2.19-14.2,2.37-4.91,6.32-7.53,11.85-7.44,3.58.06,6.48,1.71,8.95,4.21,3.97,4.03,7.95,8.06,12.06,12.23,5.7-7.01,11.16-13.72,16.61-20.44,13.51-16.63,27.03-33.24,40.52-49.88,2.68-3.31,5.97-5.28,10.33-5.27,9.19,0,15.22,9.97,10.8,18.03-1.32,2.4-3.05,4.58-4.66,6.82-18.67,25.86-37.35,51.7-56.02,77.55-.5.69-.97,1.39-1.76,2.53h2.91c10.32,0,20.64,0,30.96,0,.87,0,1.75-.03,2.59.12,1.96.36,3.04,1.71,3.18,3.6.13,1.79-.69,3.27-2.46,3.89-.94.33-2,.43-3.01.43-27.26.02-54.52.02-81.77,0-.85,0-1.74-.08-2.56-.31-2.01-.59-2.95-2.04-2.78-4.1.17-2.08,1.4-3.38,3.46-3.54,2.35-.18,4.72-.09,7.08-.1,5.66,0,11.32,0,17.69,0Zm80.84-92.79c-.88-1.13-1.54-2.74-2.68-3.22-1.23-.52-3-.26-4.37.18-.92.29-1.61,1.45-2.3,2.29-19.28,23.71-38.56,47.42-57.83,71.14-3.13,3.85-5.07,3.94-8.65.38-4.63-4.61-9.25-9.24-13.91-13.84-2.32-2.29-4.77-2.53-6.66-.74-2.17,2.04-2.29,4.77-.15,7.14,8.22,9.14,16.46,18.25,24.73,27.34,2.6,2.86,5.18,2.72,7.43-.39,20.91-28.9,41.81-57.81,62.67-86.74.67-.92,1.01-2.08,1.71-3.56Z"/>
          <path class="cls-2" d="m306.27,315.25c1.42,0,2.84-.1,4.25.02,2.05.18,3.6,1.77,3.59,3.73-.01,2.01-.95,3.75-3.02,3.92-3.27.28-6.59.3-9.86.03-2.14-.18-3.19-1.88-3.11-4.06.08-1.99,1.53-3.47,3.66-3.63,1.49-.11,2.99-.02,4.48-.02h0Z"/>
          <path class="cls-2" d="m162.79,194.15c.55,0,1.1-.02,1.65,0,2.67.12,4.39,1.64,4.44,3.92.04,2.24-1.67,3.93-4.3,4.1-1.33.09-2.69.1-4.01-.07-2.28-.3-3.84-2.12-3.74-4.14.11-2.12,1.72-3.63,4.07-3.79.62-.04,1.26,0,1.89,0h0Z"/>
          <path class="cls-2" d="m223.01,202.25c-.62-.07-1.58-.07-2.48-.29-2.01-.48-3.4-2.27-3.14-4.11.3-2.08,1.47-3.48,3.69-3.64,1.41-.1,2.83-.1,4.25-.03,2.37.12,3.96,1.64,4.07,3.77.11,2.04-1.42,3.8-3.71,4.16-.77.12-1.57.09-2.68.14Z"/>
          <path class="cls-2" d="m283.72,202.19c-.47,0-.95.03-1.42,0-2.76-.2-4.55-1.92-4.42-4.24.12-2.28,1.83-3.72,4.55-3.8,1.1-.03,2.21-.04,3.31.02,2.49.13,4.15,1.72,4.19,3.92.03,2.06-1.52,3.73-3.85,4.05-.77.11-1.57.02-2.36.02v.05Z"/>
          <path class="cls-2" d="m344.33,202.2c-.39,0-.79.02-1.18,0-2.96-.13-4.82-1.76-4.75-4.17.07-2.35,1.83-3.82,4.71-3.89,1.02-.02,2.05-.04,3.07.01,2.52.12,4.18,1.63,4.27,3.84.08,2.13-1.56,3.87-3.99,4.16-.7.08-1.42.01-2.12.01v.04Z"/>
          <path class="cls-2" d="m183.04,194.14c.47,0,.94-.01,1.42,0,2.89.1,4.54,1.55,4.53,4,0,2.31-1.63,3.89-4.32,4.03-1.4.08-2.85.08-4.23-.15-2.23-.37-3.5-2.05-3.38-4.13.12-2.08,1.59-3.52,3.85-3.71.7-.06,1.41,0,2.12,0v-.03Z"/>
          <path class="cls-2" d="m203.24,202.2c-4.04,0-5.98-1.3-5.99-4.05-.02-2.77,1.83-4.02,5.94-4.02.32,0,.63,0,.94,0,3.25.04,5.07,1.46,5.08,3.96.01,2.49-1.88,4.02-5.03,4.1-.31,0-.63,0-.94,0Z"/>
          <path class="cls-2" d="m243.52,194.19c.79,0,1.58-.07,2.36.01,2.13.22,3.54,1.64,3.61,3.66.09,2.19-.96,3.71-3.1,4.07-1.68.29-3.45.32-5.15.14-2.37-.25-3.76-1.99-3.65-4.15.1-2.17,1.63-3.6,4.04-3.77.63-.04,1.26,0,1.89,0v.03Z"/>
          <path class="cls-2" d="m263.12,202.27c-.64-.1-1.77-.13-2.78-.48-1.86-.64-2.69-2.09-2.52-4.04.17-1.97,1.31-3.23,3.25-3.48,1.55-.2,3.14-.16,4.71-.08,2.26.12,3.78,1.57,3.95,3.62.18,2.08-1.26,3.86-3.55,4.27-.84.15-1.72.12-3.05.2Z"/>
          <path class="cls-2" d="m304.11,194.14c.39,0,.79,0,1.18,0,3.07.07,4.77,1.51,4.75,4.03-.02,2.46-1.77,3.96-4.81,4.02-1.25.03-2.53.05-3.75-.17-2.23-.4-3.49-2.07-3.36-4.16.13-2.07,1.61-3.5,3.88-3.68.7-.06,1.42,0,2.12,0v-.03Z"/>
          <path class="cls-2" d="m324.28,194.14c.47,0,.94-.01,1.42,0,2.83.1,4.58,1.63,4.57,4-.01,2.23-1.74,3.87-4.37,4.03-1.25.08-2.53.1-3.77-.05-2.49-.3-3.94-1.98-3.81-4.25.12-2.17,1.64-3.56,4.08-3.72.63-.04,1.26,0,1.89,0h0Z"/>
        </g>
      </g>
      <path class="cls-1" d="m38.12,311.25c36.3-20.8,82.59-8.22,103.38,28.08,20.79,36.3,8.22,82.59-28.08,103.38-36.3,20.79-82.59,8.22-103.38-28.08-20.8-36.31-8.22-82.59,28.08-103.38Z"/>
    </g>
  </g>
</svg>