<?xml version="1.0" encoding="UTF-8"?>
<svg id="Capa_2" data-name="Capa 2" xmlns="http://www.w3.org/2000/svg" xmlns:xlink="http://www.w3.org/1999/xlink" viewBox="0 0 478.41 446.43">
  <defs>
    <style>
      .cls-1 {
        fill: url(#linear-gradient-2);
      }

      .cls-2 {
        fill: #fff;
        fill-rule: evenodd;
      }

      .cls-3 {
        filter: url(#outer-glow-1);
      }

      .cls-4 {
        fill: url(#linear-gradient);
      }
    </style>
    <linearGradient id="linear-gradient" x1="-798.33" y1="-178.78" x2="-351.88" y2="-178.78" gradientTransform="translate(742.12 -82.43) rotate(-47.77)" gradientUnits="userSpaceOnUse">
      <stop offset="0" stop-color="aqua"/>
      <stop offset=".14" stop-color="#00d9da"/>
      <stop offset=".3" stop-color="#00b0b3"/>
      <stop offset=".47" stop-color="#009194"/>
      <stop offset=".63" stop-color="#007a7e"/>
      <stop offset=".78" stop-color="#006c71"/>
      <stop offset=".92" stop-color="#01686d"/>
    </linearGradient>
    <filter id="outer-glow-1" filterUnits="userSpaceOnUse">
      <feOffset dx="0" dy="0"/>
      <feGaussianBlur result="blur" stdDeviation="5"/>
      <feFlood flood-color="#00f3ff" flood-opacity=".75"/>
      <feComposite in2="blur" operator="in"/>
      <feComposite in="SourceGraphic"/>
    </filter>
    <linearGradient id="linear-gradient-2" x1="-943.33" y1="-1386.35" x2="-793.93" y2="-1386.35" gradientTransform="translate(1174.92 -1071) rotate(-119.8)" xlink:href="#linear-gradient"/>
  </defs>
  <g id="Capa_1-2" data-name="Capa 1">
    <g>
      <g>
        <path class="cls-4" d="m373.24,57.94c91.28,82.86,98.11,224.02,15.25,315.31-82.86,91.28-224.03,98.1-315.3,15.25C-18.09,305.63-24.92,164.47,57.94,73.19c82.86-91.28,224.02-98.11,315.3-15.25Z"/>
        <g class="cls-3">
          <path class="cls-2" d="m163.57,352.74c-1.92-1.46-2.33-3.44-2.31-5.76.09-7.59.11-15.18-.03-22.76-.02-1.25-.67-2.78-1.54-3.69-4.36-4.58-8.9-8.98-13.36-13.46-8.82-8.86-8.88-20.75-.15-29.69,1.18-1.21,2.35-2.42,3.58-3.58,2.51-2.37,4.35-4.78,4.96-8.59,1.19-7.37,9.21-11.45,16.41-9.2,1.07.33,2.46.32,3.5-.07,3.86-1.44,7.53-1.38,11.25.45.86.42,2.06.49,3.03.31,3.46-.63,6.69-.29,9.74,1.56.68.41,1.49.74,2.27.8,2.79.23,5.59.32,8.92.49,5.19-7.93,9.84-18.15,23.21-14.98,1.15-2,1.21-3.13-1.17-4.15-11.54-4.93-18.64-14.05-23.27-25.38-.54-1.32-1.04-2.66-1.66-4.27-2.5.63-4.97,1.26-7.58,1.93,1.06,3.73,1.99,7.22,3.05,10.67.96,3.14.77,6.03-1.66,8.43-2.35,2.33-5.17,2.5-8.22,1.58-3.46-1.04-6.96-1.96-10.79-3.03-.75,2.86-1.48,5.67-2.21,8.48-.28,1.06-.51,2.13-.81,3.18-1.73,6.05-8.14,7.78-12.71,3.46-2.87-2.72-5.76-5.42-8.52-8.01-2.39,2.27-5.13,4.75-7.73,7.37-2.22,2.24-4.66,3.6-7.9,2.77-3.33-.85-4.94-3.2-5.67-6.42-.81-3.52-1.78-7-2.76-10.81-3.79,1.05-7.46,2.16-11.18,3.03-1.51.35-3.22.53-4.7.2-3.79-.85-6.01-4.69-5.17-8.58.44-2.05,1.08-4.07,1.64-6.09.55-2.01,1.1-4.02,1.72-6.27-3.61-.91-7-1.84-10.43-2.62-3.25-.74-5.88-2.22-6.8-5.64-.91-3.4.56-5.99,2.99-8.32,2.55-2.44,4.89-5.1,7.19-7.52-2.29-2.43-4.67-5.15-7.26-7.65-2.35-2.28-3.78-4.81-2.95-8.1.86-3.42,3.41-5,6.69-5.74,3.44-.78,6.84-1.7,10.57-2.64-.99-3.61-1.84-7.09-2.92-10.51-1.02-3.23-.94-6.18,1.57-8.66,2.44-2.42,5.36-2.45,8.47-1.51,3.44,1.04,6.93,1.95,10.58,2.97.99-3.88,1.94-7.54,2.85-11.2.74-3.01,2.36-5.17,5.46-6.03,3.13-.87,5.55.31,7.75,2.46,2.7,2.65,5.49,5.21,8.08,7.66,2.47-2.33,5.21-4.79,7.81-7.4,2.22-2.23,4.65-3.62,7.9-2.76,3.32.88,4.93,3.21,5.67,6.43.81,3.52,1.78,6.99,2.77,10.81,3.09-.85,6.1-1.53,8.96-2.62.52-.2.89-2.39.46-3.22-2.26-4.38-1.52-8.39.73-12.5,10.57-19.34,26.88-30.34,48.53-33.68,2.06-.32,4.12-.65,6.18-.98h14.17c3.54.68,7.12,1.18,10.6,2.08,5.85,1.51,10.92,4.33,14.57,9.38.54.74,1.56,1.18,2.43,1.62,2.62,1.34,5.36,2.46,7.9,3.92,8.93,5.14,11.96,13.69,12.42,23.23.39,8.05-.14,16.15-.16,24.22,0,1,.31,2.43,1,2.93,7.32,5.25,10.2,13.41,7.66,22.27-2.67,9.33-9,14.27-20,15.6-1.01,3.89-1.85,7.84-3.08,11.67-3.35,10.42-8.71,19.54-17.88,25.95-2.19,1.53-4.58,2.87-7.05,3.9-2.2.92-2.29,2.08-1.19,4.03.94-.1,1.94-.18,2.93-.31,4.65-.6,8.72.68,11.97,4.06,1.86,1.94,3.91,3.9,5.06,6.26,1.66,3.38,4.35,3.98,7.59,4.72,4.8,1.1,9.49,2.79,14.11,4.54,2.65,1,3.44,3.15,2.52,5.24-.92,2.09-3.16,2.6-5.82,1.55-3.79-1.5-7.65-2.84-11.99-4.44.98,4.19,1.76,7.58,2.56,10.97.65,2.73-.08,5.05-2.28,6.76-2.13,1.66-4.45,1.51-6.93.58-4.08-1.53-8.23-2.87-12.37-4.22-.78-.26-1.67-.24-2.51-.26-3.5-.06-3.71.16-3.71,3.59,0,21.16-.02,42.32.03,63.48,0,2.32-.4,4.29-2.34,5.74h-3.04c-1.89-1.47-2.29-3.45-2.28-5.76.06-21.33.03-42.66.03-63.99v-3.3c-7.48,3.16-14.67,3.1-21.98.1v3.43c0,21.41-.03,42.83.04,64.24,0,2.32-.53,4.12-2.62,5.28h-2.53c-1.94-1.28-2.52-3.08-2.51-5.38.06-21.32.04-42.65.04-63.97v-3.04c-5.89-1.14-10.94.7-15.89,2.88-.44.19-.69,1.26-.7,1.93-.07,3.79-.08,7.59-.02,11.38.06,4.17-1.19,7.95-4.21,10.75-3.83,3.54-5.86,7.46-5.12,12.83.34,2.46-1.55,4.2-3.71,4.21-2.16.01-3.68-1.66-3.8-4.18q-.43-9.57,6.04-16.78c.56-.63,1.24-1.21,1.6-1.94.62-1.26,1.45-2.61,1.47-3.93.14-8.93.16-17.87.06-26.8-.04-3.36-3.03-5.25-6-3.79-2.61,1.29-4.39.73-6.19-1.36-1.56-1.81-3.74-2.16-5.72-.89-2.61,1.66-4.59,1.29-6.7-.86-1.77-1.8-4.53-1.83-6.42-.1-2.29,2.09-4.27,1.98-6.73.22-3.06-2.18-7.02-.49-7.89,3.18-.25,1.05-.27,2.17-.28,3.26-.02,6.66.03,13.32-.03,19.98-.03,3.2-2.49,5.11-5.1,4.05-1.91-.77-2.47-2.39-2.46-4.3,0-3.06,0-6.12,0-9.46-8.29,6.17-8.99,14.51-2.15,21.37,4.76,4.77,9.47,9.6,14.34,14.27,1.86,1.78,2.66,3.66,2.63,6.23-.11,8.17-.09,16.35,0,24.53.02,2.32-.39,4.29-2.32,5.75h-3.04Zm119.1-204.91c-5.06,5.27-11.4,8-18.39,9.42-4.04.82-6.12.02-6.63-2.51-.54-2.75.98-4.19,5.23-4.91,10.75-1.83,17.47-8.44,19.13-19.32.56-3.72.52-7.56.42-11.34-.24-8.52-4.06-13.46-12.27-15.83-9.75-2.81-19.69-2.65-29.58-1-18.89,3.14-33.18,12.92-42.23,29.99-2.05,3.87-1.14,5.5,3.06,6.31,4.29.83,8.58,1.74,12.79,2.9,9.57,2.63,19.08,5.47,28.63,8.12,2.86.79,4.21,2.28,3.73,4.68-.44,2.2-2.38,3.43-5.11,2.71-7.97-2.08-15.91-4.26-23.81-6.61-1.88-.56-2.92-.2-4,1.29-2.01,2.76-2.98,5.81-2.98,9.21,0,8.52-.04,17.03,0,25.55.05,8.33,1.48,16.43,4.39,24.24,6.92,18.61,20.41,27.27,40.14,25.56,9.49-.82,17.45-4.85,23.47-12.37,6.41-8.01,9.98-17.37,10.74-27.38.92-12.24.79-24.58.82-36.87,0-5.28-2.82-9.21-7.56-11.84Zm-78.6,50.91c-.79,0-1.29.03-1.78,0-8.78-.65-14.57-5.48-17.62-13.42-3-7.8-2.55-15.68,3.88-21.47,3.4-3.07,4.39-5.77,3.4-9.79-.16-.64-.15-1.33-.24-2.23-3.83,1.06-7.53,2.14-11.26,3.11-2.86.74-4.47-.25-5.29-3.11-.42-1.46-.75-2.94-1.13-4.4-.87-3.35-1.74-6.7-2.51-9.63-3.35,3.11-6.69,6.08-9.88,9.19-3.44,3.35-4.78,3.35-8.18.04-3.23-3.14-6.63-6.12-9.94-9.17-1,3.91-2.12,8.2-3.2,12.51-1.21,4.8-2.42,5.51-7.14,4.18-4.32-1.21-8.64-2.4-13.02-3.62-.05.5-.11.67-.07.82,1.22,4.38,2.45,8.75,3.66,13.13,1.04,3.76.16,5.26-3.65,6.25-4.55,1.18-9.1,2.33-13.39,3.43,3.06,3.27,6.04,6.58,9.15,9.75,3.59,3.66,3.58,4.82-.05,8.51-3.11,3.17-6.07,6.48-9.07,9.71,4.44,1.12,9.17,2.29,13.89,3.53,3.11.82,4.09,2.55,3.26,5.68-.71,2.68-1.52,5.34-2.27,8.02-.58,2.06-1.12,4.12-1.76,6.49,4.77-1.34,9.06-2.54,13.34-3.75,4.7-1.33,5.89-.62,7.11,4.22,1.09,4.29,2.2,8.58,3.25,12.66,2.83-2.62,5.75-5.03,8.32-7.77,5-5.33,6.23-5.39,11.21-.08,2.62,2.79,5.58,5.26,8.42,7.9,1.08-4.28,2.17-8.68,3.29-13.06,1.12-4.39,2.51-5.18,6.9-3.94,4.34,1.22,8.68,2.43,13.35,3.73-.21-1.02-.3-1.66-.47-2.28-1.08-3.89-2.18-7.78-3.25-11.68-1.06-3.83-.2-5.3,3.58-6.25,3.33-.84,6.65-1.72,10.05-2.61-.32-1.62-.59-3.01-.9-4.62Zm37.37,45.05c-.61,2.63-1.68,5.44-1.83,8.3-.3,5.7-.15,11.44-.02,17.15.02.88.72,2.1,1.47,2.54,6.26,3.7,12.62,3.67,18.85-.06.8-.48,1.49-1.81,1.53-2.77.16-4.37.27-8.76.01-13.12-.25-4.13-.98-8.23-1.47-12.06h-18.54Zm59.76-85.02c.06-7.16.4-14.3.09-21.42-.18-4.15-1.06-8.35-2.23-12.35-1.31-4.46-4.77-7.18-9.19-9.3.56,9.08.66,17.63-2.93,25.72,6.79,4.14,10.29,10.08,11.07,17.68.52,0,.85.03,1.16,0,.49-.05.97-.15,2.04-.32Zm-31.99,113.68c7.07-.73,13.33,1.37,19.81,4-1.89-8.8-5.31-16.35-11.25-22.64-2.48-2.62-5.4-2.61-8.55-1.53v20.17Zm-37.37-20.21c-4.37-1.56-7.63-.21-10.08,3.28-1.79,2.54-3.36,5.22-5.17,7.74-2.66,3.7-.93,7.64-1.16,11.19,5.6-.91,10.92-1.78,16.4-2.67v-19.54Zm-28.75-61.07c0-7.04,0-13.76,0-20.48,0-3.75-1.32-4.91-4.98-3.92-1.63.44-3.41,1.31-4.51,2.54-3.67,4.08-3.7,8.9-1.69,13.71,1.98,4.74,5.38,7.84,11.18,8.16Zm94.91-.18c.6.03,1.09.13,1.55.06,5.02-.78,8.07-3.96,9.8-8.47,1.76-4.6,1.63-9.14-1.65-13.09-2.1-2.53-4.96-3.44-8.18-2.62-.6.15-1.45,1.02-1.46,1.56-.1,7.47-.07,14.95-.07,22.56Zm-95.49-31.79c1.46-4.1,2.83-7.92,4.25-11.92-2.33-.42-4.9-.88-7.85-1.41.41,4.6.78,8.76,1.15,12.95,1,.15,1.81.28,2.45.37Z"/>
          <path class="cls-2" d="m343.19,352.74c-.88-1.45-2.19-2.79-2.57-4.36-3.93-16.01-7.76-32.06-11.51-48.11-1.56-6.67-4.32-12.69-8.41-18.19-.87-1.17-1.4-3.21-1.03-4.57.77-2.88,4.55-3.01,6.68-.38,5.07,6.27,8.31,13.41,10.15,21.23,3.79,16.13,7.57,32.27,11.47,48.38.65,2.68.18,4.61-2.23,5.99h-2.53Z"/>
          <path class="cls-2" d="m304.23,352.74c-1.81-1.51-2.24-3.46-2.22-5.77.09-12.12.04-24.23.04-36.35,0-.84-.03-1.69.1-2.52.3-1.93,1.54-2.97,3.44-3.07,1.9-.1,3.27.79,3.77,2.67.24.88.26,1.83.26,2.75.02,12.29-.02,24.57.04,36.86.01,2.26-.55,4.09-2.4,5.44h-3.04Z"/>
          <path class="cls-2" d="m201.01,352.74c-2.01-1.21-2.71-2.97-2.57-5.3.16-2.68,0-5.38.05-8.06.04-2.56,1.48-4.21,3.64-4.29,2.25-.09,3.87,1.63,3.92,4.28.05,2.69-.1,5.38.05,8.06.13,2.32-.58,4.08-2.56,5.32h-2.53Z"/>
          <path class="cls-2" d="m250.61,198.95c3.87,0,7.74-.04,11.61.01,3.06.04,4.37,1.44,4.53,4.5.41,7.87-1.94,14.33-9.45,17.96-10.17,4.91-22.44-2.53-22.89-13.81-.06-1.43-.05-2.86-.02-4.29.06-2.93,1.41-4.32,4.35-4.36,3.95-.05,7.91-.01,11.86-.01Zm-8.53,7.68c.14,5.34,4.03,8.96,9,8.66,4.68-.28,8.22-4.21,7.73-8.66h-16.73Z"/>
          <path class="cls-2" d="m229.1,171.03c2.74,1.01,5.41,1.73,7.82,2.95,2.24,1.13,2.72,3.49,1.57,5.35-1.12,1.8-3.19,2.36-5.27,1.17-2.81-1.62-5.49-1.66-8.33-.05-2.18,1.24-4.39.64-5.44-1.24-1.04-1.85-.44-4.24,1.78-5.31,2.44-1.18,5.11-1.88,7.87-2.87Z"/>
          <path class="cls-2" d="m282.04,176.61c.05,3.45-2.74,5.48-5.19,4.12-3.26-1.8-6.24-1.95-9.48-.03-1.88,1.11-3.67.38-4.76-1.41-1.1-1.8-.72-3.56.91-4.94,4.16-3.53,12.76-3.6,16.95-.04.82.7,1.26,1.84,1.57,2.3Z"/>
          <path class="cls-2" d="m250.59,194.46c-1.62-.7-3.24-1.05-4.37-1.98-1.43-1.18-1.16-3.66.18-5,1.67-1.66,6.54-1.68,8.24-.03,1.37,1.33,1.67,3.78.24,4.99-1.12.94-2.72,1.32-4.29,2.03Z"/>
          <path class="cls-2" d="m144.75,193.7c-1.62-.08-2.96-.06-4.28-.23-2.03-.25-3.21-1.46-3.28-3.52-.08-2.18,1.06-3.66,3.21-3.81,2.93-.21,5.92-.29,8.82.06,1.13.14,2.67,1.42,3.04,2.51,2.02,5.92-1.77,13.24-7.76,15.5-6.04,2.27-13.11-.34-15.44-6.38-2.33-6.03-2.25-12.47-.04-18.54,1.62-4.44,5.41-6.82,10.18-7.17,4.86-.36,8.7,1.6,11.39,5.68,1.43,2.16,1.16,4.33-.58,5.63-1.87,1.39-3.96.96-5.61-1.33-1.45-2.01-3.28-2.95-5.67-2.21-2.4.75-3.37,2.65-3.39,5.07-.02,2.53-.09,5.06.03,7.59.12,2.61,1.76,4.43,4.05,4.8,2.3.37,4.1-.79,5.33-3.66Z"/>
          <path class="cls-2" d="m155.4,188.51c0-1.35-.02-2.7,0-4.04.13-6.65,5-11.97,11.28-12.37,6.81-.43,12.51,3.96,13.24,10.78.43,3.98.39,8.11-.16,12.07-.88,6.33-6.71,10.52-13.11,10.03-6.13-.48-11.03-5.66-11.23-11.92-.05-1.51,0-3.03,0-4.55h-.01Zm17.12.22s-.04,0-.06,0c0-1.68.19-3.38-.04-5.03-.36-2.59-2.47-4.16-4.97-4.02-2.45.14-4.33,2-4.42,4.61-.1,2.77-.09,5.55,0,8.32.08,2.76,1.97,4.68,4.52,4.79,2.54.11,4.64-1.67,4.95-4.39.16-1.41.03-2.85.03-4.28Z"/>
        </g>
      </g>
      <path class="cls-1" d="m366.57,306.9c35.8-20.51,81.44-8.11,101.94,27.69,20.5,35.8,8.11,81.44-27.69,101.94-35.8,20.5-81.44,8.11-101.94-27.69-20.51-35.8-8.11-81.44,27.69-101.94Z"/>
    </g>
  </g>
</svg>