<?xml version="1.0" encoding="UTF-8"?>
<svg id="Capa_2" data-name="Capa 2" xmlns="http://www.w3.org/2000/svg" xmlns:xlink="http://www.w3.org/1999/xlink" viewBox="0 0 477.66 446.43">
  <defs>
    <style>
      .cls-1 {
        fill: url(#linear-gradient-2);
      }

      .cls-2 {
        fill: #fff;
        fill-rule: evenodd;
      }

      .cls-3 {
        filter: url(#outer-glow-1);
      }

      .cls-4 {
        fill: url(#linear-gradient);
      }
    </style>
    <linearGradient id="linear-gradient" x1="535.76" y1="402.88" x2="982.21" y2="402.88" gradientTransform="translate(-585.19 514.39) rotate(-47.77)" gradientUnits="userSpaceOnUse">
      <stop offset="0" stop-color="aqua"/>
      <stop offset=".14" stop-color="#00d9da"/>
      <stop offset=".3" stop-color="#00b0b3"/>
      <stop offset=".47" stop-color="#009194"/>
      <stop offset=".63" stop-color="#007a7e"/>
      <stop offset=".78" stop-color="#006c71"/>
      <stop offset=".92" stop-color="#01686d"/>
    </linearGradient>
    <filter id="outer-glow-1" filterUnits="userSpaceOnUse">
      <feOffset dx="0" dy="0"/>
      <feGaussianBlur result="blur" stdDeviation="5"/>
      <feFlood flood-color="#00f3ff" flood-opacity=".75"/>
      <feComposite in2="blur" operator="in"/>
      <feComposite in="SourceGraphic"/>
    </filter>
    <linearGradient id="linear-gradient-2" x1="631.82" y1="1294.67" x2="781.22" y2="1294.67" gradientTransform="translate(-369.29 1628.22) rotate(-119.8)" gradientUnits="userSpaceOnUse">
      <stop offset="0" stop-color="aqua"/>
      <stop offset=".02" stop-color="#00f5f6"/>
      <stop offset=".11" stop-color="#00d0d1"/>
      <stop offset=".21" stop-color="#00afb2"/>
      <stop offset=".32" stop-color="#009599"/>
      <stop offset=".44" stop-color="#008185"/>
      <stop offset=".57" stop-color="#007277"/>
      <stop offset=".73" stop-color="#006a6f"/>
      <stop offset="1" stop-color="#01686d"/>
    </linearGradient>
  </defs>
  <g id="Capa_1-2" data-name="Capa 1">
    <g>
      <g>
        <path class="cls-4" d="m373.24,57.94c91.28,82.86,98.11,224.02,15.25,315.31-82.86,91.28-224.03,98.1-315.3,15.25C-18.09,305.63-24.92,164.47,57.94,73.19c82.86-91.28,224.02-98.11,315.3-15.25Z"/>
        <g class="cls-3">
          <path class="cls-2" d="m98.22,211.93c.58-2.68,1.03-5.4,1.75-8.04,8.53-31.45,42.6-46.9,71.95-32.65.43.21.88.4,1.33.61,8.8-27.6,27.04-43.4,56.44-44.1,20.65-.49,42.48,12.24,52.22,35.57,3.84-.61,7.65-1.42,11.49-1.77,11.06-1.01,21.29,1.64,30.73,7.44,2.52,1.55,3.23,3.45,2.09,5.42-1.2,2.07-3.32,2.39-5.92.81-11.27-6.84-23.22-8.23-35.57-4.73.47,6.57.93,12.92,1.33,18.62,4.18-.53,8.65-1.69,13.08-1.55,12.45.4,22.4,10.91,23.07,23.76.63,12.06-8.53,23.5-20.44,25.52-2.32.39-4.72.5-6.97,1.12-9.3,2.54-15.59,8.43-18.78,17.54-.75,2.14-1.28,4.37-1.82,6.57-1.31,5.33,1.49,10.19,6.62,11.6,4.91,1.34,9.76-1.49,11.35-6.66.5-1.63.89-3.29,1.37-4.93,1.13-3.86,3.48-5.81,7.49-6.25,23.52-2.56,40.53-21.77,39.81-45.13-.26-8.41-2.91-16.09-7.61-23.08-.66-.98-1.58-2.33-1.34-3.24.33-1.29,1.4-2.75,2.56-3.39,1.61-.9,3.12.14,4.15,1.59,4.32,6.04,7.19,12.7,8.63,19.98.33,1.66.65,3.33.98,4.99v9.77c-.6,2.76-1,5.58-1.83,8.27-6.55,21.12-20.73,33.6-42.58,37.19-2.2.36-3.55.98-3.84,3.36-.17,1.43-.66,2.85-1.15,4.22-2.98,8.24-11.96,12.76-20.36,10.28-8.41-2.48-13.61-11.16-11.42-19.68,1.18-4.61,2.43-9.38,4.68-13.52,5.65-10.43,14.72-16.22,26.57-17.45,9.27-.96,16.03-7.77,16.62-16.87.54-8.22-5.25-16.07-13.54-17.96-6.5-1.48-12.26.21-16.96,5.02-.76.78-1.3,1.86-1.69,2.89-6.06,16.28-16.98,27.87-33.18,34.32-1.72.69-2.31,1.6-2.32,3.42,0,2.99.07,6.08-.59,8.96-1.96,8.59-10.29,14.55-18.8,13.8-9.36-.82-16.45-7.91-16.93-17.13-.38-7.42-.27-14.81,2.79-21.81,4.43-10.14,11.83-17.07,22.17-21.05,9.38-3.61,14.32-11.91,13.27-21.76-1.03-9.66-9.72-17.48-19.64-17.66-10.04-.19-19.11,7.36-20.44,17.06-.3,2.17-.22,4.41-.63,6.55-1,5.3-3.87,9.41-8.45,12.29-.68.42-1.38.81-2.14,1.26,2.05,7.09,3.07,14.23,1.95,21.5-.52,3.36-1.28,6.7-2.17,9.98-.74,2.71-2.72,3.77-4.93,3.01-2.02-.7-2.84-2.67-2-5.29,2.72-8.44,2.9-16.91.6-25.47-.42-1.58-1-2.31-2.87-2.5-9.57-.96-16.43-9.05-16.03-19.07.12-2.89-.76-4.26-3.28-5.53-16.2-8.13-35.88-5.59-49.11,6.53-13.72,12.57-18.12,31.82-11.18,48.86,2.23,5.47,7.32,7.92,12.35,5.94,5.02-1.97,7.19-7.28,4.98-12.75-6.84-16.91,5.71-34.49,22.72-34.63,10.25-.08,19.4,5.84,23.35,15.12,3.96,9.31,2.05,20.09-5.19,27.32-5.03,5.02-8.33,10.74-9,17.88-.7,7.41,1.84,13.98,5.64,20.04,2.39,3.8,7.57,4.65,11.57,2.57,3.97-2.06,5.95-6.68,4.56-10.97-.62-1.92-1.55-3.75-2.32-5.62-1.47-3.59-1.04-6.82,1.79-9.63,1.21-1.2,2.31-2.52,3.52-3.72,1.62-1.59,3.73-1.66,5.23-.24,1.42,1.34,1.51,3.33.22,5.06-.14.2-.29.41-.48.55-3.7,2.69-3.6,5.61-1.71,9.7,3.99,8.66-.1,18.31-8.63,21.92-8.48,3.59-18-.12-21.75-8.79-1.89-4.37-3.79-8.91-4.55-13.55-1.88-11.44,1.79-21.31,9.96-29.52,5.82-5.86,7.39-13.36,4.31-20.33-3.83-8.67-13.89-12.76-22.68-9.23-8.88,3.57-13.37,13.52-9.98,22.54,1.57,4.17,2.3,8.27.91,12.6-2.06,6.45-7.81,11.09-14.31,11.55-7.34.51-13.88-3-16.58-9.58-1.77-4.32-2.71-8.99-4-13.5-.22-.77-.34-1.57-.51-2.35v-9.77Zm131.01-77.28c-3.77.54-7.61.82-11.32,1.65-22.19,4.95-38.26,25.09-38.31,47.81-.01,6.24,4.49,11.08,10.46,11.24,6.11.17,10.87-4.21,11.3-10.4.09-1.3.18-2.6.32-3.89,1.62-15.43,16.49-26.38,32.28-23.79,14.87,2.44,25.32,17.65,22.17,32.38-2.2,10.28-8.31,17.24-18.13,20.96-5.7,2.16-10.36,5.68-14.02,10.57-5.59,7.45-6.3,16.02-5.77,24.86.36,5.86,5.24,10.35,10.99,10.26,5.79-.1,10.45-4.67,10.72-10.54.07-1.54.03-3.09.04-4.64.01-6.21,1.44-8.3,7.3-10.62,21.89-8.68,34.91-32.12,30.51-54.96-4.53-23.53-24.73-40.44-48.53-40.88Z"/>
          <path class="cls-2" d="m228.96,270.44c10.2-.04,18.29,8.02,18.3,18.23.01,10.16-8.15,18.4-18.23,18.38-9.98-.02-18.08-8.12-18.19-18.19-.1-10.19,7.96-18.38,18.12-18.42Zm10.97,18.22c-.02-6.17-4.82-10.93-10.99-10.89-6.02.04-10.75,4.8-10.78,10.86-.04,6.11,4.84,11.08,10.88,11.09,6.03.01,10.91-4.95,10.89-11.07Z"/>
          <path class="cls-2" d="m186.35,285.22c9.15.02,16.8,7.74,16.7,16.88-.1,9.14-7.62,16.6-16.72,16.59-9.16-.01-16.78-7.72-16.71-16.89.08-9.11,7.63-16.6,16.73-16.59Zm-.13,26.14c5.05.09,9.34-4.04,9.5-9.15.16-5.11-4.12-9.57-9.27-9.66-5.03-.09-9.34,4.06-9.5,9.16-.16,5.1,4.12,9.56,9.27,9.66Z"/>
          <path class="cls-2" d="m289.81,301.89c0,9.21-7.39,16.74-16.47,16.79-9.25.05-16.86-7.47-16.87-16.68,0-9.22,7.61-16.84,16.77-16.78,9.18.06,16.58,7.5,16.57,16.66Zm-7.33-.1c-.05-5.12-4.23-9.26-9.34-9.25-5.12.01-9.41,4.41-9.34,9.57.06,5.06,4.35,9.29,9.39,9.25,5.18-.03,9.34-4.32,9.29-9.57Z"/>
        </g>
      </g>
      <path class="cls-1" d="m365.83,306.9c35.8-20.51,81.44-8.11,101.94,27.69,20.5,35.8,8.11,81.44-27.69,101.94-35.8,20.5-81.44,8.11-101.94-27.69-20.51-35.8-8.11-81.44,27.69-101.94Z"/>
    </g>
  </g>
</svg>