<?xml version="1.0" encoding="UTF-8"?>
<svg id="Capa_2" data-name="Capa 2" xmlns="http://www.w3.org/2000/svg" xmlns:xlink="http://www.w3.org/1999/xlink" viewBox="0 0 121.59 121.57">
  <defs>
    <style>
      .cls-1 {
        fill: #fff;
        fill-rule: evenodd;
      }

      .cls-2 {
        filter: url(#outer-glow-1);
      }
    </style>
    <filter id="outer-glow-1" filterUnits="userSpaceOnUse">
      <feOffset dx="0" dy="0"/>
      <feGaussianBlur result="blur" stdDeviation="5"/>
      <feFlood flood-color="#c0c" flood-opacity=".75"/>
      <feComposite in2="blur" operator="in"/>
      <feComposite in="SourceGraphic"/>
    </filter>
  </defs>
  <g id="Layer_7" data-name="Layer 7">
    <g class="cls-2">
      <path class="cls-1" d="m121.59,37.28c-.35,1.9-.59,3.82-1.06,5.69-1.74,6.86-5.3,12.65-10.61,17.32-.85.74-1.2,1.48-1.18,2.62.07,3.88.02,7.76.04,11.63,0,1.2-.29,2.22-1.49,2.71-1.19.49-2.13-.03-2.98-.87-2.57-2.58-5.16-5.13-7.72-7.73-.52-.53-.96-.73-1.74-.54-5.02,1.2-10.13,1.01-15.24.83-6.28-.22-12.07-2.04-17.29-5.5-8.48-5.62-13.78-13.45-15.28-23.54-1.87-12.53,2.11-23.1,11.56-31.52C63.96,3.62,70.34,1.01,77.46.21c.39-.04.77-.14,1.15-.21h10.92c.38.07.77.13,1.15.21,2.32.48,4.72.72,6.94,1.49,12.1,4.22,19.84,12.54,23.02,25,.45,1.75.64,3.57.95,5.35v5.22Zm-17.58,32.11c0-2.82.1-5.31-.03-7.79-.1-1.81.53-3.04,1.94-4.15,4.33-3.41,7.44-7.78,9.19-12.99,3.09-9.2,2.15-18.06-3.18-26.22-4.73-7.24-11.47-11.75-20.07-13-3.73-.54-7.57-.46-11.36-.46-4.04,0-7.94.85-11.6,2.59-9.65,4.59-15.62,12.12-17.19,22.72-1.66,11.19,2.18,20.48,10.87,27.66,4.89,4.04,10.63,6.16,17,6.41,5.42.21,10.84.43,16.13-1.18,1.14-.35,2.07.11,2.88.94,1.71,1.75,3.45,3.47,5.42,5.45Z"/>
      <path class="cls-1" d="m0,56.05c.83-2.28,1.35-4.75,2.57-6.8,2.95-4.96,7.54-7.71,13.3-7.85,8.15-.21,16.3-.08,24.46-.06,1.6,0,2.69,1.07,2.64,2.44-.05,1.37-1.13,2.29-2.79,2.29-7.6.01-15.2,0-22.8,0-7.55,0-12.62,5.1-12.63,12.67,0,11.68,0,23.35,0,35.03,0,7.54,5.1,12.62,12.68,12.62,4.63,0,9.26.02,13.89-.01,1.24,0,2.1.42,2.95,1.38,1.71,1.91,3.62,3.63,5.63,5.62,0-1.42,0-2.66,0-3.89,0-2.25.84-3.08,3.1-3.08,8.07,0,16.15,0,24.22,0,7.47,0,12.57-5.11,12.57-12.61,0-4.91,0-9.82,0-14.72,0-.36-.02-.72.03-1.07.16-1.31,1.16-2.23,2.37-2.22,1.21.01,2.18.95,2.33,2.26.03.27.02.55.02.83,0,5.07.01,10.13,0,15.2-.03,9.84-7.26,17.05-17.12,17.07-7.12.01-14.25,0-21.37,0h-1.4c0,2.71,0,5.31,0,7.91,0,1.04-.43,1.84-1.39,2.29-.97.45-1.85.2-2.64-.46-.27-.23-.52-.49-.77-.74-2.74-2.74-5.46-5.51-8.25-8.2-.45-.43-1.21-.75-1.82-.76-4.19-.07-8.39-.03-12.58-.04-8.86-.02-15.45-5.57-16.98-14.3-.03-.15-.13-.28-.19-.42v-40.37Z"/>
      <path class="cls-1" d="m40.25,78.37c-8.03,0-16.07,0-24.1,0-.4,0-.8.02-1.18-.04-1.24-.18-2.12-1.17-2.12-2.33,0-1.16.89-2.15,2.13-2.33.39-.06.79-.04,1.18-.04,16.07,0,32.14,0,48.2,0h.24c1.92.01,3.07.9,3.07,2.38,0,1.48-1.15,2.37-3.07,2.37-8.11,0-16.23,0-24.34,0Z"/>
      <path class="cls-1" d="m35.72,86.92c6.57,0,13.13,0,19.7,0,1.66,0,2.58.66,2.82,1.95.21,1.18-.38,2.26-1.52,2.6-.52.16-1.09.18-1.64.18-12.97,0-25.95,0-38.92,0-2.15,0-3.31-.83-3.32-2.36,0-1.54,1.16-2.38,3.29-2.39,6.53,0,13.05,0,19.58,0Z"/>
      <path class="cls-1" d="m32.65,60.32c5.42,0,10.84,0,16.26,0,.4,0,.8-.02,1.19.04,1.24.18,2.12,1.17,2.12,2.33s-.88,2.15-2.12,2.33c-.39.06-.79.04-1.19.04-10.92,0-21.84,0-32.77,0-.08,0-.16,0-.24,0-1.93-.01-3.07-.9-3.07-2.38s1.14-2.37,3.07-2.37c5.58,0,11.16,0,16.74,0Z"/>
      <path class="cls-1" d="m67.66,89.29c0,1.23-1.13,2.36-2.35,2.36-1.23,0-2.36-1.13-2.36-2.35,0-1.23,1.13-2.36,2.35-2.36,1.23,0,2.36,1.13,2.36,2.35Z"/>
      <path class="cls-1" d="m82.39,38.85c0-.91-.04-1.82,0-2.73.09-1.98,1.1-3.33,2.93-4.06.48-.19.99-.3,1.46-.49,2.34-.96,3.68-3.57,3.12-6.02-.58-2.5-2.84-4.25-5.36-4.15-2.57.1-4.66,2-5.02,4.53-.05.35-.1.7-.17,1.05-.28,1.41-1.24,2.16-2.6,2.01-1.18-.13-2.06-1.09-2.03-2.37.12-3.91,1.84-6.98,5.32-8.76,7.09-3.62,14.92,1.44,14.69,9.4-.11,3.83-2.82,7.54-6.52,8.79-.86.29-1.17.67-1.12,1.58.08,1.3.04,2.61.01,3.92-.04,1.71-1.03,2.82-2.43,2.79-1.38-.03-2.28-1.11-2.31-2.77-.01-.91,0-1.82,0-2.73h0Z"/>
      <path class="cls-1" d="m87.1,51.38c0,1.25-1.1,2.33-2.37,2.33-1.3,0-2.34-1.04-2.34-2.33,0-1.28,1.06-2.35,2.34-2.34,1.26,0,2.36,1.1,2.36,2.35Z"/>
    </g>
  </g>
</svg>